<?xml version="1.0" encoding="utf-8"?>
<!-- created with bpmn-js / http://bpmn.io -->
<!DOCTYPE svg PUBLIC "-//W3C//DTD SVG 1.1//EN" "http://www.w3.org/Graphics/SVG/1.1/DTD/svg11.dtd">
<svg xmlns="http://www.w3.org/2000/svg" xmlns:xlink="http://www.w3.org/1999/xlink" width="681" height="270" viewBox="118 168 681 270" version="1.1"><defs><marker viewBox="0 0 20 20" markerWidth="10" markerHeight="10" orient="auto" refX="11" refY="10" id="markerSib470zhd2xy"><path d="M 1 5 L 11 10 L 1 15 Z" fill="#000000" style="stroke-width: 1px; stroke-linecap: round; stroke-dasharray: 10000px, 1px;"/></marker><marker viewBox="0 0 20 20" markerWidth="20" markerHeight="20" orient="auto" refX="6" refY="6" id="markerSib470zhd2y0"><circle cx="6" cy="6" r="3.5" fill="#ffffff" stroke="#000000" style="stroke-width: 1px; stroke-linecap: round; stroke-dasharray: 10000px, 1px;"/></marker><marker viewBox="0 0 20 20" markerWidth="20" markerHeight="20" orient="auto" refX="8.5" refY="5" id="markerSib470zhd2y2"><path d="m 1 5 l 0 -3 l 7 3 l -7 3 z" fill="#ffffff" stroke="#000000" style="stroke-width: 1px; stroke-linecap: butt; stroke-dasharray: 10000px, 1px;"/></marker><marker viewBox="0 0 20 20" markerWidth="10" markerHeight="10" orient="auto" refX="11" refY="10" id="markerSib470zhd2y4"><path d="M 1 5 L 11 10 L 1 15" fill="#ffffff" stroke="#000000" style="stroke-width: 1px; stroke-linecap: round; stroke-dasharray: 10000px, 1px;"/></marker><marker viewBox="0 0 20 20" markerWidth="10" markerHeight="10" orient="auto" refX="-1" refY="10" id="markerSib470zhd2y6"><path d="M 0 10 L 8 6 L 16 10 L 8 14 Z" fill="#ffffff" stroke="#000000" style="stroke-width: 1px; stroke-linecap: round; stroke-dasharray: 10000px, 1px;"/></marker><marker viewBox="0 0 20 20" markerWidth="10" markerHeight="10" orient="auto" refX="-5" refY="10" id="markerSib470zhd2y8"><path d="M 1 4 L 5 16" fill="#000000" stroke="#000000" style="stroke-width: 1px; stroke-linecap: round; stroke-dasharray: 10000px, 1px;"/></marker></defs><g class="djs-group" xmlns="http://www.w3.org/2000/svg"><g data-element-id="StartEvent_1" transform="matrix(1,0,0,1,151,280)" class="djs-element djs-shape" style="display: block;"><rect fill="none" class="djs-outline" x="-6" y="-6" width="48" height="48"></rect><g class="djs-visual"><circle cx="18" cy="18" r="18" stroke="#000000" fill="#ffffff" style="stroke-width: 2px;"></circle></g><rect x="0" y="0" width="36" height="36" fill="none" stroke="#ffffff" style="stroke-opacity: 0; stroke-width: 15px;" class="djs-hit"></rect></g></g><g class="djs-group" xmlns="http://www.w3.org/2000/svg"><g data-element-id="StartEvent_1_label" class="djs-element djs-shape" transform="matrix(1,0,0,1,124,316)" style="display: block;"><rect fill="none" class="djs-outline" x="-6" y="-6" width="102" height="32"></rect><g class="djs-visual"><text class=" djs-label" style="font-family: Arial, sans-serif; font-size: 11px;"><tspan x="33.5" y="12">Start</tspan></text></g><rect x="0" y="0" width="90" height="20" fill="none" stroke="#ffffff" style="stroke-opacity: 0; stroke-width: 15px;" class="djs-hit"></rect></g></g><g class="djs-group" xmlns="http://www.w3.org/2000/svg"><g data-element-id="SequenceFlow_0buwgbg" class="djs-element djs-connection" style="display: block;"><rect fill="none" class="djs-outline" x="181" y="292" width="46" height="12"></rect><g class="djs-visual"><path d="m  187,298L221,298 " fill="none" stroke="#000000" style="stroke-width: 2px; stroke-linejoin: round; marker-end: url(#markerSib470zhd2xy);"></path></g><polyline points="187,298 221,298 " fill="none" stroke="#ffffff" style="stroke-opacity: 0; stroke-width: 15px;" class="djs-hit"></polyline></g></g><g class="djs-group" xmlns="http://www.w3.org/2000/svg"><g data-element-id="SequenceFlow_0buwgbg_label" class="djs-element djs-shape" transform="matrix(1,0,0,1,159,288)" style="display: none;"><rect fill="none" class="djs-outline" x="-6" y="-6" width="102" height="32"></rect><g class="djs-visual"><text class=" djs-label" style="font-family: Arial, sans-serif; font-size: 11px;"><tspan x="45" y="0"></tspan></text></g><rect x="0" y="0" width="90" height="20" fill="none" stroke="#ffffff" style="stroke-opacity: 0; stroke-width: 15px;" class="djs-hit"></rect></g></g><g class="djs-group" xmlns="http://www.w3.org/2000/svg"><g data-element-id="ExclusiveGateway_1fvfhvz" transform="matrix(1,0,0,1,361,273)" class="djs-element djs-shape" style="display: block;"><rect fill="none" class="djs-outline" x="-6" y="-6" width="62" height="62"></rect><g class="djs-visual"><polygon points="25,0,50,25,25,50,0,25" stroke="#000000" fill="#ffffff" style="stroke-width: 2px;"></polygon><path d="m 16,15 7.42857142857143,9.714285714285715 -7.42857142857143,9.714285714285715 3.428571428571429,0 5.714285714285715,-7.464228571428572 5.714285714285715,7.464228571428572 3.428571428571429,0 -7.42857142857143,-9.714285714285715 7.42857142857143,-9.714285714285715 -3.428571428571429,0 -5.714285714285715,7.464228571428572 -5.714285714285715,-7.464228571428572 -3.428571428571429,0 z" fill="#000000" stroke="#000000" style="stroke-width: 1px;"></path></g><rect x="0" y="0" width="50" height="50" fill="none" stroke="#ffffff" style="stroke-opacity: 0; stroke-width: 15px;" class="djs-hit"></rect></g></g><g class="djs-group" xmlns="http://www.w3.org/2000/svg"><g data-element-id="ExclusiveGateway_1fvfhvz_label" class="djs-element djs-shape" transform="matrix(1,0,0,1,341,323)" style="display: block;"><rect fill="none" class="djs-outline" x="-6" y="-6" width="102" height="32"></rect><g class="djs-visual"><text class=" djs-label" style="font-family: Arial, sans-serif; font-size: 11px;"><tspan x="8" y="12">Gateway (fork)</tspan></text></g><rect x="0" y="0" width="90" height="20" fill="none" stroke="#ffffff" style="stroke-opacity: 0; stroke-width: 15px;" class="djs-hit"></rect></g></g><g class="djs-group" xmlns="http://www.w3.org/2000/svg"><g data-element-id="SequenceFlow_1z04ca9" class="djs-element djs-connection" style="display: block;"><rect fill="none" class="djs-outline" x="315" y="292" width="52" height="12"></rect><g class="djs-visual"><path d="m  321,298L361,298 " fill="none" stroke="#000000" style="stroke-width: 2px; stroke-linejoin: round; marker-end: url(#markerSib470zhd2xy);"></path></g><polyline points="321,298 361,298 " fill="none" stroke="#ffffff" style="stroke-opacity: 0; stroke-width: 15px;" class="djs-hit"></polyline></g></g><g class="djs-group" xmlns="http://www.w3.org/2000/svg"><g data-element-id="SequenceFlow_1z04ca9_label" class="djs-element djs-shape" transform="matrix(1,0,0,1,296.5,288)" style="display: none;"><rect fill="none" class="djs-outline" x="-6" y="-6" width="102" height="32"></rect><g class="djs-visual"><text class=" djs-label" style="font-family: Arial, sans-serif; font-size: 11px;"><tspan x="45" y="0"></tspan></text></g><rect x="0" y="0" width="90" height="20" fill="none" stroke="#ffffff" style="stroke-opacity: 0; stroke-width: 15px;" class="djs-hit"></rect></g></g><g class="djs-group" xmlns="http://www.w3.org/2000/svg"><g data-element-id="SequenceFlow_1kd8lwp_label" class="djs-element djs-shape" transform="matrix(1,0,0,1,402,244.5)" style="display: none;"><rect fill="none" class="djs-outline" x="-6" y="-6" width="102" height="32"></rect><g class="djs-visual"><text class=" djs-label" style="font-family: Arial, sans-serif; font-size: 11px;"><tspan x="45" y="0"></tspan></text></g><rect x="0" y="0" width="90" height="20" fill="none" stroke="#ffffff" style="stroke-opacity: 0; stroke-width: 15px;" class="djs-hit"></rect></g></g><g class="djs-group" xmlns="http://www.w3.org/2000/svg"><g data-element-id="SequenceFlow_13rz9j9_label" class="djs-element djs-shape" transform="matrix(1,0,0,1,397,330.5)" style="display: none;"><rect fill="none" class="djs-outline" x="-6" y="-6" width="102" height="32"></rect><g class="djs-visual"><text class=" djs-label" style="font-family: Arial, sans-serif; font-size: 11px;"><tspan x="45" y="0"></tspan></text></g><rect x="0" y="0" width="90" height="20" fill="none" stroke="#ffffff" style="stroke-opacity: 0; stroke-width: 15px;" class="djs-hit"></rect></g></g><g class="djs-group" xmlns="http://www.w3.org/2000/svg"><g data-element-id="ExclusiveGateway_0dhei8b" transform="matrix(1,0,0,1,634,273)" class="djs-element djs-shape" style="display: block;"><rect fill="none" class="djs-outline" x="-6" y="-6" width="62" height="62"></rect><g class="djs-visual"><polygon points="25,0,50,25,25,50,0,25" stroke="#000000" fill="#ffffff" style="stroke-width: 2px;"></polygon><path d="m 16,15 7.42857142857143,9.714285714285715 -7.42857142857143,9.714285714285715 3.428571428571429,0 5.714285714285715,-7.464228571428572 5.714285714285715,7.464228571428572 3.428571428571429,0 -7.42857142857143,-9.714285714285715 7.42857142857143,-9.714285714285715 -3.428571428571429,0 -5.714285714285715,7.464228571428572 -5.714285714285715,-7.464228571428572 -3.428571428571429,0 z" fill="#000000" stroke="#000000" style="stroke-width: 1px;"></path></g><rect x="0" y="0" width="50" height="50" fill="none" stroke="#ffffff" style="stroke-opacity: 0; stroke-width: 15px;" class="djs-hit"></rect></g></g><g class="djs-group" xmlns="http://www.w3.org/2000/svg"><g data-element-id="ExclusiveGateway_0dhei8b_label" class="djs-element djs-shape" transform="matrix(1,0,0,1,614,323)" style="display: block;"><rect fill="none" class="djs-outline" x="-6" y="-6" width="102" height="32"></rect><g class="djs-visual"><text class=" djs-label" style="font-family: Arial, sans-serif; font-size: 11px;"><tspan x="7.5" y="12">Gateway (Join)</tspan></text></g><rect x="0" y="0" width="90" height="20" fill="none" stroke="#ffffff" style="stroke-opacity: 0; stroke-width: 15px;" class="djs-hit"></rect></g></g><g class="djs-group" xmlns="http://www.w3.org/2000/svg"><g data-element-id="SequenceFlow_12z2g00_label" class="djs-element djs-shape" transform="matrix(1,0,0,1,562,333.5)" style="display: none;"><rect fill="none" class="djs-outline" x="-6" y="-6" width="102" height="32"></rect><g class="djs-visual"><text class=" djs-label" style="font-family: Arial, sans-serif; font-size: 11px;"><tspan x="45" y="0"></tspan></text></g><rect x="0" y="0" width="90" height="20" fill="none" stroke="#ffffff" style="stroke-opacity: 0; stroke-width: 15px;" class="djs-hit"></rect></g></g><g class="djs-group" xmlns="http://www.w3.org/2000/svg"><g data-element-id="SequenceFlow_0dmjscv_label" class="djs-element djs-shape" transform="matrix(1,0,0,1,562,244.5)" style="display: none;"><rect fill="none" class="djs-outline" x="-6" y="-6" width="102" height="32"></rect><g class="djs-visual"><text class=" djs-label" style="font-family: Arial, sans-serif; font-size: 11px;"><tspan x="45" y="0"></tspan></text></g><rect x="0" y="0" width="90" height="20" fill="none" stroke="#ffffff" style="stroke-opacity: 0; stroke-width: 15px;" class="djs-hit"></rect></g></g><g class="djs-group" xmlns="http://www.w3.org/2000/svg"><g data-element-id="EndEvent_1b9pvlk" transform="matrix(1,0,0,1,730,280)" class="djs-element djs-shape" style="display: block;"><rect fill="none" class="djs-outline" x="-6" y="-6" width="48" height="48"></rect><g class="djs-visual"><circle cx="18" cy="18" r="18" stroke="#000000" fill="#ffffff" style="stroke-width: 4px;"></circle></g><rect x="0" y="0" width="36" height="36" fill="none" stroke="#ffffff" style="stroke-opacity: 0; stroke-width: 15px;" class="djs-hit"></rect></g></g><g class="djs-group" xmlns="http://www.w3.org/2000/svg"><g data-element-id="EndEvent_1b9pvlk_label" class="djs-element djs-shape" transform="matrix(1,0,0,1,703,316)" style="display: block;"><rect fill="none" class="djs-outline" x="-6" y="-6" width="102" height="32"></rect><g class="djs-visual"><text class=" djs-label" style="font-family: Arial, sans-serif; font-size: 11px;"><tspan x="20" y="12">End Event</tspan></text></g><rect x="0" y="0" width="90" height="20" fill="none" stroke="#ffffff" style="stroke-opacity: 0; stroke-width: 15px;" class="djs-hit"></rect></g></g><g class="djs-group" xmlns="http://www.w3.org/2000/svg"><g data-element-id="SequenceFlow_058e9y8" class="djs-element djs-connection" style="display: block;"><rect fill="none" class="djs-outline" x="678" y="292" width="58" height="12"></rect><g class="djs-visual"><path d="m  684,298L730,298 " fill="none" stroke="#000000" style="stroke-width: 2px; stroke-linejoin: round; marker-end: url(#markerSib470zhd2xy);"></path></g><polyline points="684,298 730,298 " fill="none" stroke="#ffffff" style="stroke-opacity: 0; stroke-width: 15px;" class="djs-hit"></polyline></g></g><g class="djs-group" xmlns="http://www.w3.org/2000/svg"><g data-element-id="SequenceFlow_058e9y8_label" class="djs-element djs-shape" transform="matrix(1,0,0,1,660.5,288)" style="display: none;"><rect fill="none" class="djs-outline" x="-6" y="-6" width="102" height="32"></rect><g class="djs-visual"><text class=" djs-label" style="font-family: Arial, sans-serif; font-size: 11px;"><tspan x="45" y="0"></tspan></text></g><rect x="0" y="0" width="90" height="20" fill="none" stroke="#ffffff" style="stroke-opacity: 0; stroke-width: 15px;" class="djs-hit"></rect></g></g><g class="djs-group" xmlns="http://www.w3.org/2000/svg"><g data-element-id="UserTask_0y3e48k" class="djs-element djs-shape" transform="matrix(1,0,0,1,221,258)" style="display: block;"><rect fill="none" class="djs-outline" x="-6" y="-6" width="112" height="92"></rect><g class="djs-visual"><rect x="0" y="0" width="100" height="80" rx="10" ry="10" stroke="#000000" fill="#ffffff" style="stroke-width: 2px;"></rect><text class=" djs-label" style="font-family: Arial, sans-serif; font-size: 12px;"><tspan x="27.5" y="36.5">Get Mail </tspan><tspan x="25" y="50.5">Message </tspan></text><path d="m 15,12 c 0.909,-0.845 1.594,-2.049 1.594,-3.385 0,-2.554 -1.805,-4.62199999 -4.357,-4.62199999 -2.55199998,0 -4.28799998,2.06799999 -4.28799998,4.62199999 0,1.348 0.974,2.562 1.89599998,3.405 -0.52899998,0.187 -5.669,2.097 -5.794,4.7560005 v 6.718 h 17 v -6.718 c 0,-2.2980005 -5.5279996,-4.5950005 -6.0509996,-4.7760005 zm -8,6 l 0,5.5 m 11,0 l 0,-5" fill="none" stroke="#000000" style="stroke-width: 0.5px;"></path><path d="m 15,12 m 2.162,1.009 c 0,2.4470005 -2.158,4.4310005 -4.821,4.4310005 -2.66499998,0 -4.822,-1.981 -4.822,-4.4310005 " fill="none" stroke="#000000" style="stroke-width: 0.5px;"></path><path d="m 15,12 m -6.9,-3.80 c 0,0 2.25099998,-2.358 4.27399998,-1.177 2.024,1.181 4.221,1.537 4.124,0.965 -0.098,-0.57 -0.117,-3.79099999 -4.191,-4.13599999 -3.57499998,0.001 -4.20799998,3.36699999 -4.20699998,4.34799999 z" fill="#000000" stroke="#000000" style="stroke-width: 0.5px;"></path></g><rect x="0" y="0" width="100" height="80" fill="none" stroke="#ffffff" style="stroke-opacity: 0; stroke-width: 15px;" class="djs-hit"></rect></g></g><g class="djs-group" xmlns="http://www.w3.org/2000/svg"><g data-element-id="UserTask_0pqdxrs" class="djs-element djs-shape selected" transform="matrix(1,0,0,1,473,352)" style="display: block;"><rect fill="none" class="djs-outline" x="-6" y="-6" width="112" height="92"></rect><g class="djs-visual"><rect x="0" y="0" width="100" height="80" rx="10" ry="10" stroke="#000000" fill="#ffffff" style="stroke-width: 2px;"></rect><text class=" djs-label" style="font-family: Arial, sans-serif; font-size: 12px;"><tspan x="8.5" y="43.5">Read Message</tspan></text><path d="m 15,12 c 0.909,-0.845 1.594,-2.049 1.594,-3.385 0,-2.554 -1.805,-4.62199999 -4.357,-4.62199999 -2.55199998,0 -4.28799998,2.06799999 -4.28799998,4.62199999 0,1.348 0.974,2.562 1.89599998,3.405 -0.52899998,0.187 -5.669,2.097 -5.794,4.7560005 v 6.718 h 17 v -6.718 c 0,-2.2980005 -5.5279996,-4.5950005 -6.0509996,-4.7760005 zm -8,6 l 0,5.5 m 11,0 l 0,-5" fill="none" stroke="#000000" style="stroke-width: 0.5px;"></path><path d="m 15,12 m 2.162,1.009 c 0,2.4470005 -2.158,4.4310005 -4.821,4.4310005 -2.66499998,0 -4.822,-1.981 -4.822,-4.4310005 " fill="none" stroke="#000000" style="stroke-width: 0.5px;"></path><path d="m 15,12 m -6.9,-3.80 c 0,0 2.25099998,-2.358 4.27399998,-1.177 2.024,1.181 4.221,1.537 4.124,0.965 -0.098,-0.57 -0.117,-3.79099999 -4.191,-4.13599999 -3.57499998,0.001 -4.20799998,3.36699999 -4.20699998,4.34799999 z" fill="#000000" stroke="#000000" style="stroke-width: 0.5px;"></path></g><rect x="0" y="0" width="100" height="80" fill="none" stroke="#ffffff" style="stroke-opacity: 0; stroke-width: 15px;" class="djs-hit"></rect></g></g><g class="djs-group" xmlns="http://www.w3.org/2000/svg"><g data-element-id="SequenceFlow_12z2g00" class="djs-element djs-connection" style="display: block;"><rect fill="none" class="djs-outline" x="567" y="317" width="98" height="81"></rect><g class="djs-visual"><path d="m  573,392L659,392 L659,323 " fill="none" stroke="#000000" style="stroke-width: 2px; stroke-linejoin: round; marker-end: url(#markerSib470zhd2xy);"></path></g><polyline points="573,392 659,392 659,323 " fill="none" stroke="#ffffff" style="stroke-opacity: 0; stroke-width: 15px;" class="djs-hit"></polyline></g></g><g class="djs-group" xmlns="http://www.w3.org/2000/svg"><g data-element-id="SequenceFlow_13rz9j9" class="djs-element djs-connection" style="display: block;"><rect fill="none" class="djs-outline" x="380" y="317" width="99" height="81"></rect><g class="djs-visual"><path d="m  386,323L386,392 L473,392 " fill="none" stroke="#000000" style="stroke-width: 2px; stroke-linejoin: round; marker-end: url(#markerSib470zhd2xy);"></path></g><polyline points="386,323 386,392 473,392 " fill="none" stroke="#ffffff" style="stroke-opacity: 0; stroke-width: 15px;" class="djs-hit"></polyline></g></g><g class="djs-group" xmlns="http://www.w3.org/2000/svg"><g data-element-id="UserTask_12eg62m" class="djs-element djs-shape" transform="matrix(1,0,0,1,473,174)" style="display: block;"><rect fill="none" class="djs-outline" x="-6" y="-6" width="112" height="92"></rect><g class="djs-visual"><rect x="0" y="0" width="100" height="80" rx="10" ry="10" stroke="#000000" fill="#ffffff" style="stroke-width: 2px;"></rect><text class=" djs-label" style="font-family: Arial, sans-serif; font-size: 12px;"><tspan x="6" y="43.5">Ignore Message</tspan></text><path d="m 15,12 c 0.909,-0.845 1.594,-2.049 1.594,-3.385 0,-2.554 -1.805,-4.62199999 -4.357,-4.62199999 -2.55199998,0 -4.28799998,2.06799999 -4.28799998,4.62199999 0,1.348 0.974,2.562 1.89599998,3.405 -0.52899998,0.187 -5.669,2.097 -5.794,4.7560005 v 6.718 h 17 v -6.718 c 0,-2.2980005 -5.5279996,-4.5950005 -6.0509996,-4.7760005 zm -8,6 l 0,5.5 m 11,0 l 0,-5" fill="none" stroke="#000000" style="stroke-width: 0.5px;"></path><path d="m 15,12 m 2.162,1.009 c 0,2.4470005 -2.158,4.4310005 -4.821,4.4310005 -2.66499998,0 -4.822,-1.981 -4.822,-4.4310005 " fill="none" stroke="#000000" style="stroke-width: 0.5px;"></path><path d="m 15,12 m -6.9,-3.80 c 0,0 2.25099998,-2.358 4.27399998,-1.177 2.024,1.181 4.221,1.537 4.124,0.965 -0.098,-0.57 -0.117,-3.79099999 -4.191,-4.13599999 -3.57499998,0.001 -4.20799998,3.36699999 -4.20699998,4.34799999 z" fill="#000000" stroke="#000000" style="stroke-width: 0.5px;"></path></g><rect x="0" y="0" width="100" height="80" fill="none" stroke="#ffffff" style="stroke-opacity: 0; stroke-width: 15px;" class="djs-hit"></rect></g></g><g class="djs-group" xmlns="http://www.w3.org/2000/svg"><g data-element-id="SequenceFlow_0dmjscv" class="djs-element djs-connection" style="display: block;"><rect fill="none" class="djs-outline" x="567" y="208" width="98" height="71"></rect><g class="djs-visual"><path d="m  573,214L659,214 L659,273 " fill="none" stroke="#000000" style="stroke-width: 2px; stroke-linejoin: round; marker-end: url(#markerSib470zhd2xy);"></path></g><polyline points="573,214 659,214 659,273 " fill="none" stroke="#ffffff" style="stroke-opacity: 0; stroke-width: 15px;" class="djs-hit"></polyline></g></g><g class="djs-group" xmlns="http://www.w3.org/2000/svg"><g data-element-id="SequenceFlow_1kd8lwp" class="djs-element djs-connection" style="display: block;"><rect fill="none" class="djs-outline" x="380" y="208" width="99" height="71"></rect><g class="djs-visual"><path d="m  386,273L386,214 L473,214 " fill="none" stroke="#000000" style="stroke-width: 2px; stroke-linejoin: round; marker-end: url(#markerSib470zhd2xy);"></path></g><polyline points="386,273 386,214 473,214 " fill="none" stroke="#ffffff" style="stroke-opacity: 0; stroke-width: 15px;" class="djs-hit"></polyline></g></g></svg>