<?xml version="1.0" encoding="utf-8"?>
<!-- created with bpmn-js / http://bpmn.io -->
<!DOCTYPE svg PUBLIC "-//W3C//DTD SVG 1.1//EN" "http://www.w3.org/Graphics/SVG/1.1/DTD/svg11.dtd">
<svg xmlns="http://www.w3.org/2000/svg" xmlns:xlink="http://www.w3.org/1999/xlink" width="711" height="363" viewBox="112 64 711 363" version="1.1"><defs><marker viewBox="0 0 20 20" markerWidth="10" markerHeight="10" orient="auto" refX="11" refY="10" id="markerSich84n3l4"><path d="M 1 5 L 11 10 L 1 15 Z" fill="#000000" style="stroke-width: 1px; stroke-linecap: round; stroke-dasharray: 10000px, 1px;"/></marker><marker viewBox="0 0 20 20" markerWidth="20" markerHeight="20" orient="auto" refX="6" refY="6" id="markerSich84n3l6"><circle cx="6" cy="6" r="3.5" style="stroke-width: 1px; stroke-linecap: round; stroke-dasharray: 10000px, 1px;" fill="#ffffff" stroke="#000000"/></marker><marker viewBox="0 0 20 20" markerWidth="20" markerHeight="20" orient="auto" refX="8.5" refY="5" id="markerSich84n3l8"><path d="m 1 5 l 0 -3 l 7 3 l -7 3 z" fill="#ffffff" stroke="#000000" style="stroke-width: 1px; stroke-linecap: butt; stroke-dasharray: 10000px, 1px;"/></marker><marker viewBox="0 0 20 20" markerWidth="10" markerHeight="10" orient="auto" refX="11" refY="10" id="markerSich84n3la"><path d="M 1 5 L 11 10 L 1 15" fill="#ffffff" stroke="#000000" style="stroke-width: 1px; stroke-linecap: round; stroke-dasharray: 10000px, 1px;"/></marker><marker viewBox="0 0 20 20" markerWidth="10" markerHeight="10" orient="auto" refX="-1" refY="10" id="markerSich84n3lc"><path d="M 0 10 L 8 6 L 16 10 L 8 14 Z" fill="#ffffff" stroke="#000000" style="stroke-width: 1px; stroke-linecap: round; stroke-dasharray: 10000px, 1px;"/></marker><marker viewBox="0 0 20 20" markerWidth="10" markerHeight="10" orient="auto" refX="-5" refY="10" id="markerSich84n3le"><path d="M 1 4 L 5 16" fill="#000000" stroke="#000000" style="stroke-width: 1px; stroke-linecap: round; stroke-dasharray: 10000px, 1px;"/></marker></defs><g class="djs-group" xmlns="http://www.w3.org/2000/svg"><g data-element-id="Participant_1cehq47" class="djs-element djs-shape" transform="matrix(1,0,0,1,118,70)" style="display: block;"><rect fill="none" class="djs-outline" x="-6" y="-6" width="709" height="363"></rect><g class="djs-visual"><rect x="0" y="0" width="697" height="351" rx="0" ry="0" stroke="#000000" fill="#ffffff" style="stroke-width: 2px;"></rect><polyline points="30,0 30,351 " fill="none" stroke="#000000" style="stroke-width: 2px;"></polyline><text class=" djs-label" transform="matrix(0,-1,1,0,0,351)" style="font-family: Arial, sans-serif; font-size: 12px;"><tspan x="153" y="18.5">Got Mail</tspan></text></g><rect x="0" y="0" width="697" height="351" fill="none" stroke="#ffffff" style="stroke-opacity: 0; stroke-width: 15px;" class="djs-hit"></rect></g><g class="djs-children"><g class="djs-group"><g data-element-id="ExclusiveGateway_1fvfhvz" transform="matrix(1,0,0,1,378,235)" class="djs-element djs-shape" style="display: block;"><rect fill="none" class="djs-outline" x="-6" y="-6" width="62" height="62"></rect><g class="djs-visual"><polygon points="25,0,50,25,25,50,0,25" stroke="#000000" fill="#ffffff" style="stroke-width: 2px;"></polygon><path d="m 16,15 7.42857142857143,9.714285714285715 -7.42857142857143,9.714285714285715 3.428571428571429,0 5.714285714285715,-7.464228571428572 5.714285714285715,7.464228571428572 3.428571428571429,0 -7.42857142857143,-9.714285714285715 7.42857142857143,-9.714285714285715 -3.428571428571429,0 -5.714285714285715,7.464228571428572 -5.714285714285715,-7.464228571428572 -3.428571428571429,0 z" fill="#000000" stroke="#000000" style="stroke-width: 1px;"></path></g><rect x="0" y="0" width="50" height="50" fill="none" stroke="#ffffff" style="stroke-opacity: 0; stroke-width: 15px;" class="djs-hit"></rect></g></g><g class="djs-group"><g data-element-id="ExclusiveGateway_1fvfhvz_label" class="djs-element djs-shape" transform="matrix(1,0,0,1,426,236)" style="display: block;"><rect fill="none" class="djs-outline" x="-6" y="-6" width="102" height="32"></rect><g class="djs-visual"><text class=" djs-label" style="font-family: Arial, sans-serif; font-size: 11px;"><tspan x="8" y="12">Gateway (fork)</tspan></text></g><rect x="0" y="0" width="90" height="20" fill="none" stroke="#ffffff" style="stroke-opacity: 0; stroke-width: 15px;" class="djs-hit"></rect></g></g><g class="djs-group"><g data-element-id="ExclusiveGateway_0dhei8b" transform="matrix(1,0,0,1,649,215)" class="djs-element djs-shape" style="display: block;"><rect fill="none" class="djs-outline" x="-6" y="-6" width="62" height="62"></rect><g class="djs-visual"><polygon points="25,0,50,25,25,50,0,25" stroke="#000000" fill="#ffffff" style="stroke-width: 2px;"></polygon><path d="m 16,15 7.42857142857143,9.714285714285715 -7.42857142857143,9.714285714285715 3.428571428571429,0 5.714285714285715,-7.464228571428572 5.714285714285715,7.464228571428572 3.428571428571429,0 -7.42857142857143,-9.714285714285715 7.42857142857143,-9.714285714285715 -3.428571428571429,0 -5.714285714285715,7.464228571428572 -5.714285714285715,-7.464228571428572 -3.428571428571429,0 z" fill="#000000" stroke="#000000" style="stroke-width: 1px;"></path></g><rect x="0" y="0" width="50" height="50" fill="none" stroke="#ffffff" style="stroke-opacity: 0; stroke-width: 15px;" class="djs-hit"></rect></g></g><g class="djs-group"><g data-element-id="ExclusiveGateway_0dhei8b_label" class="djs-element djs-shape" transform="matrix(1,0,0,1,567,248)" style="display: block;"><rect fill="none" class="djs-outline" x="-6" y="-6" width="102" height="32"></rect><g class="djs-visual"><text class=" djs-label" style="font-family: Arial, sans-serif; font-size: 11px;"><tspan x="7.5" y="12">Gateway (Join)</tspan></text></g><rect x="0" y="0" width="90" height="20" fill="none" stroke="#ffffff" style="stroke-opacity: 0; stroke-width: 15px;" class="djs-hit"></rect></g></g><g class="djs-group"><g data-element-id="EndEvent_1b9pvlk" transform="matrix(1,0,0,1,754,222)" class="djs-element djs-shape" style="display: block;"><rect fill="none" class="djs-outline" x="-6" y="-6" width="48" height="48"></rect><g class="djs-visual"><circle cx="18" cy="18" r="18" stroke="#000000" fill="#ffffff" style="stroke-width: 4px;"></circle></g><rect x="0" y="0" width="36" height="36" fill="none" stroke="#ffffff" style="stroke-opacity: 0; stroke-width: 15px;" class="djs-hit"></rect></g></g><g class="djs-group"><g data-element-id="EndEvent_1b9pvlk_label" class="djs-element djs-shape" transform="matrix(1,0,0,1,727,258)" style="display: block;"><rect fill="none" class="djs-outline" x="-6" y="-6" width="102" height="32"></rect><g class="djs-visual"><text class=" djs-label" style="font-family: Arial, sans-serif; font-size: 11px;"><tspan x="20" y="12">End Event</tspan></text></g><rect x="0" y="0" width="90" height="20" fill="none" stroke="#ffffff" style="stroke-opacity: 0; stroke-width: 15px;" class="djs-hit"></rect></g></g><g class="djs-group"><g data-element-id="UserTask_0pqdxrs" class="djs-element djs-shape" transform="matrix(1,0,0,1,490,314)" style="display: block;"><rect fill="none" class="djs-outline" x="-6" y="-6" width="112" height="92"></rect><g class="djs-visual"><rect x="0" y="0" width="100" height="80" rx="10" ry="10" stroke="#000000" fill="#ffffff" style="stroke-width: 2px;"></rect><text class=" djs-label" style="font-family: Arial, sans-serif; font-size: 12px;"><tspan x="8.5" y="43.5">Read Message</tspan></text><path d="m 15,12 c 0.909,-0.845 1.594,-2.049 1.594,-3.385 0,-2.554 -1.805,-4.62199999 -4.357,-4.62199999 -2.55199998,0 -4.28799998,2.06799999 -4.28799998,4.62199999 0,1.348 0.974,2.562 1.89599998,3.405 -0.52899998,0.187 -5.669,2.097 -5.794,4.7560005 v 6.718 h 17 v -6.718 c 0,-2.2980005 -5.5279996,-4.5950005 -6.0509996,-4.7760005 zm -8,6 l 0,5.5 m 11,0 l 0,-5" fill="none" stroke="#000000" style="stroke-width: 0.5px;"></path><path d="m 15,12 m 2.162,1.009 c 0,2.4470005 -2.158,4.4310005 -4.821,4.4310005 -2.66499998,0 -4.822,-1.981 -4.822,-4.4310005 " fill="none" stroke="#000000" style="stroke-width: 0.5px;"></path><path d="m 15,12 m -6.9,-3.80 c 0,0 2.25099998,-2.358 4.27399998,-1.177 2.024,1.181 4.221,1.537 4.124,0.965 -0.098,-0.57 -0.117,-3.79099999 -4.191,-4.13599999 -3.57499998,0.001 -4.20799998,3.36699999 -4.20699998,4.34799999 z" fill="#000000" stroke="#000000" style="stroke-width: 0.5px;"></path></g><rect x="0" y="0" width="100" height="80" fill="none" stroke="#ffffff" style="stroke-opacity: 0; stroke-width: 15px;" class="djs-hit"></rect></g></g><g class="djs-group"><g data-element-id="StartEvent_131c5qz" transform="matrix(1,0,0,1,168,242)" class="djs-element djs-shape" style="display: block;"><rect fill="none" class="djs-outline" x="-6" y="-6" width="48" height="48"></rect><g class="djs-visual"><circle cx="18" cy="18" r="18" stroke="#000000" fill="#ffffff" style="stroke-width: 2px;"></circle><path d="m 8.459999999999999,11.34 l 0,12.6 l 18.900000000000002,0 l 0,-12.6 z l 9.450000000000001,5.4 l 9.450000000000001,-5.4" fill="#ffffff" stroke="#000000" style="stroke-width: 1px;"></path></g><rect x="0" y="0" width="36" height="36" fill="none" stroke="#ffffff" style="stroke-opacity: 0; stroke-width: 15px;" class="djs-hit"></rect></g></g><g class="djs-group"><g data-element-id="StartEvent_131c5qz_label" class="djs-element djs-shape" transform="matrix(1,0,0,1,141,278)" style="display: block;"><rect fill="none" class="djs-outline" x="-6" y="-6" width="102" height="32"></rect><g class="djs-visual"><text class=" djs-label" style="font-family: Arial, sans-serif; font-size: 11px;"><tspan x="33.5" y="12">Start</tspan></text></g><rect x="0" y="0" width="90" height="20" fill="none" stroke="#ffffff" style="stroke-opacity: 0; stroke-width: 15px;" class="djs-hit"></rect></g></g><g class="djs-group"><g data-element-id="ScriptTask_1n8gfep" class="djs-element djs-shape" transform="matrix(1,0,0,1,238,220)" style="display: block;"><rect fill="none" class="djs-outline" x="-6" y="-6" width="112" height="92"></rect><g class="djs-visual"><rect x="0" y="0" width="100" height="80" rx="10" ry="10" stroke="#000000" fill="#ffffff" style="stroke-width: 2px;"></rect><text class=" djs-label" style="font-family: Arial, sans-serif; font-size: 12px;"><tspan x="19.5" y="36.5">Check Mail </tspan><tspan x="25" y="50.5">Message </tspan></text><path d="m 15,20 c 9.966553,-6.27276 -8.000926,-7.91932 2.968968,-14.938 l -8.802728,0 c -10.969894,7.01868 6.997585,8.66524 -2.968967,14.938 z m -7,-12 l 5,0 m -4.5,3 l 4.5,0 m -3,3 l 5,0m -4,3 l 5,0" fill="none" stroke="#000000" style="stroke-width: 1px;"></path></g><rect x="0" y="0" width="100" height="80" fill="none" stroke="#ffffff" style="stroke-opacity: 0; stroke-width: 15px;" class="djs-hit"></rect></g></g><g class="djs-group"><g data-element-id="ScriptTask_1c258w6" class="djs-element djs-shape" transform="matrix(1,0,0,1,490,90)" style="display: block;"><rect fill="none" class="djs-outline" x="-6" y="-6" width="112" height="92"></rect><g class="djs-visual"><rect x="0" y="0" width="100" height="80" rx="10" ry="10" stroke="#000000" fill="#ffffff" style="stroke-width: 2px;"></rect><text class=" djs-label" style="font-family: Arial, sans-serif; font-size: 12px;"><tspan x="6" y="43.5">Ignore Message</tspan></text><path d="m 15,20 c 9.966553,-6.27276 -8.000926,-7.91932 2.968968,-14.938 l -8.802728,0 c -10.969894,7.01868 6.997585,8.66524 -2.968967,14.938 z m -7,-12 l 5,0 m -4.5,3 l 4.5,0 m -3,3 l 5,0m -4,3 l 5,0" fill="none" stroke="#000000" style="stroke-width: 1px;"></path></g><rect x="0" y="0" width="100" height="80" fill="none" stroke="#ffffff" style="stroke-opacity: 0; stroke-width: 15px;" class="djs-hit"></rect></g></g><g class="djs-group"><g data-element-id="SequenceFlow_1z04ca9" class="djs-element djs-connection" style="display: block;"><rect fill="none" class="djs-outline" x="332" y="254" width="52" height="12"></rect><g class="djs-visual"><path d="m  338,260L378,260 " fill="none" stroke="#000000" style="stroke-width: 2px; stroke-linejoin: round; marker-end: url(#markerSich84n3l4);"></path></g><polyline points="338,260 378,260 " fill="none" stroke="#ffffff" style="stroke-opacity: 0; stroke-width: 15px;" class="djs-hit"></polyline></g></g><g class="djs-group"><g data-element-id="SequenceFlow_1z04ca9_label" class="djs-element djs-shape" transform="matrix(1,0,0,1,314,250)" style="display: none;"><rect fill="none" class="djs-outline" x="-6" y="-6" width="102" height="32"></rect><g class="djs-visual"><text class=" djs-label" style="font-family: Arial, sans-serif; font-size: 11px;"><tspan x="45" y="0"></tspan></text></g><rect x="0" y="0" width="90" height="20" fill="none" stroke="#ffffff" style="stroke-opacity: 0; stroke-width: 15px;" class="djs-hit"></rect></g></g><g class="djs-group"><g data-element-id="SequenceFlow_1kd8lwp" class="djs-element djs-connection" style="display: block;"><rect fill="none" class="djs-outline" x="397" y="124" width="99" height="117"></rect><g class="djs-visual"><path d="m  403,235L403,130 L490,130 " fill="none" stroke="#000000" style="stroke-width: 2px; stroke-linejoin: round; marker-end: url(#markerSich84n3l4);"></path></g><polyline points="403,235 403,130 490,130 " fill="none" stroke="#ffffff" style="stroke-opacity: 0; stroke-width: 15px;" class="djs-hit"></polyline></g></g><g class="djs-group"><g data-element-id="SequenceFlow_1kd8lwp_label" class="djs-element djs-shape" transform="matrix(1,0,0,1,379,158)" style="display: block;"><rect fill="none" class="djs-outline" x="-6" y="-6" width="102" height="32"></rect><g class="djs-visual"><text class=" djs-label" style="font-family: Arial, sans-serif; font-size: 11px;"><tspan x="33" y="12">Junk</tspan></text></g><rect x="0" y="0" width="90" height="20" fill="none" stroke="#ffffff" style="stroke-opacity: 0; stroke-width: 15px;" class="djs-hit"></rect></g></g><g class="djs-group"><g data-element-id="SequenceFlow_13rz9j9" class="djs-element djs-connection" style="display: block;"><rect fill="none" class="djs-outline" x="397" y="279" width="99" height="81"></rect><g class="djs-visual"><path d="m  403,285L403,354 L490,354 " fill="none" stroke="#000000" style="stroke-width: 2px; stroke-linejoin: round; marker-end: url(#markerSich84n3l4);"></path></g><polyline points="403,285 403,354 490,354 " fill="none" stroke="#ffffff" style="stroke-opacity: 0; stroke-width: 15px;" class="djs-hit"></polyline></g></g><g class="djs-group"><g data-element-id="SequenceFlow_13rz9j9_label" class="djs-element djs-shape" transform="matrix(1,0,0,1,372,359)" style="display: block;"><rect fill="none" class="djs-outline" x="-6" y="-6" width="102" height="32"></rect><g class="djs-visual"><text class=" djs-label" style="font-family: Arial, sans-serif; font-size: 11px;"><tspan x="23" y="12">Not Junk</tspan></text></g><rect x="0" y="0" width="90" height="20" fill="none" stroke="#ffffff" style="stroke-opacity: 0; stroke-width: 15px;" class="djs-hit"></rect></g></g><g class="djs-group"><g data-element-id="SequenceFlow_12z2g00" class="djs-element djs-connection" style="display: block;"><rect fill="none" class="djs-outline" x="584" y="259" width="96" height="101"></rect><g class="djs-visual"><path d="m  590,354L674,354 L674,265 " fill="none" stroke="#000000" style="stroke-width: 2px; stroke-linejoin: round; marker-end: url(#markerSich84n3l4);"></path></g><polyline points="590,354 674,354 674,265 " fill="none" stroke="#ffffff" style="stroke-opacity: 0; stroke-width: 15px;" class="djs-hit"></polyline></g></g><g class="djs-group"><g data-element-id="SequenceFlow_12z2g00_label" class="djs-element djs-shape" transform="matrix(1,0,0,1,579,296)" style="display: none;"><rect fill="none" class="djs-outline" x="-6" y="-6" width="102" height="32"></rect><g class="djs-visual"><text class=" djs-label" style="font-family: Arial, sans-serif; font-size: 11px;"><tspan x="45" y="0"></tspan></text></g><rect x="0" y="0" width="90" height="20" fill="none" stroke="#ffffff" style="stroke-opacity: 0; stroke-width: 15px;" class="djs-hit"></rect></g></g><g class="djs-group"><g data-element-id="SequenceFlow_0dmjscv" class="djs-element djs-connection" style="display: block;"><rect fill="none" class="djs-outline" x="584" y="124" width="96" height="97"></rect><g class="djs-visual"><path d="m  590,130L674,130 L674,215 " fill="none" stroke="#000000" style="stroke-width: 2px; stroke-linejoin: round; marker-end: url(#markerSich84n3l4);"></path></g><polyline points="590,130 674,130 674,215 " fill="none" stroke="#ffffff" style="stroke-opacity: 0; stroke-width: 15px;" class="djs-hit"></polyline></g></g><g class="djs-group"><g data-element-id="SequenceFlow_0dmjscv_label" class="djs-element djs-shape" transform="matrix(1,0,0,1,579,207)" style="display: none;"><rect fill="none" class="djs-outline" x="-6" y="-6" width="102" height="32"></rect><g class="djs-visual"><text class=" djs-label" style="font-family: Arial, sans-serif; font-size: 11px;"><tspan x="45" y="0"></tspan></text></g><rect x="0" y="0" width="90" height="20" fill="none" stroke="#ffffff" style="stroke-opacity: 0; stroke-width: 15px;" class="djs-hit"></rect></g></g><g class="djs-group"><g data-element-id="SequenceFlow_058e9y8" class="djs-element djs-connection" style="display: block;"><rect fill="none" class="djs-outline" x="693" y="234" width="67" height="12"></rect><g class="djs-visual"><path d="m  699,240L723,240 L723,240 L754,240 " fill="none" stroke="#000000" style="stroke-width: 2px; stroke-linejoin: round; marker-end: url(#markerSich84n3l4);"></path></g><polyline points="699,240 723,240 723,240 754,240 " fill="none" stroke="#ffffff" style="stroke-opacity: 0; stroke-width: 15px;" class="djs-hit"></polyline></g></g><g class="djs-group"><g data-element-id="SequenceFlow_058e9y8_label" class="djs-element djs-shape" transform="matrix(1,0,0,1,678,250)" style="display: none;"><rect fill="none" class="djs-outline" x="-6" y="-6" width="102" height="32"></rect><g class="djs-visual"><text class=" djs-label" style="font-family: Arial, sans-serif; font-size: 11px;"><tspan x="45" y="0"></tspan></text></g><rect x="0" y="0" width="90" height="20" fill="none" stroke="#ffffff" style="stroke-opacity: 0; stroke-width: 15px;" class="djs-hit"></rect></g></g><g class="djs-group"><g data-element-id="SequenceFlow_0buwgbg" class="djs-element djs-connection" style="display: block;"><rect fill="none" class="djs-outline" x="198" y="254" width="46" height="12"></rect><g class="djs-visual"><path d="m  204,260L238,260 " fill="none" stroke="#000000" style="stroke-width: 2px; stroke-linejoin: round; marker-end: url(#markerSich84n3l4);"></path></g><polyline points="204,260 238,260 " fill="none" stroke="#ffffff" style="stroke-opacity: 0; stroke-width: 15px;" class="djs-hit"></polyline></g></g><g class="djs-group"><g data-element-id="SequenceFlow_0buwgbg_label" class="djs-element djs-shape" transform="matrix(1,0,0,1,176,250)" style="display: none;"><rect fill="none" class="djs-outline" x="-6" y="-6" width="102" height="32"></rect><g class="djs-visual"><text class=" djs-label" style="font-family: Arial, sans-serif; font-size: 11px;"><tspan x="45" y="0"></tspan></text></g><rect x="0" y="0" width="90" height="20" fill="none" stroke="#ffffff" style="stroke-opacity: 0; stroke-width: 15px;" class="djs-hit"></rect></g></g></g></g></svg>