<?xml version="1.0" encoding="utf-8"?>
<!-- created with bpmn-js / http://bpmn.io -->
<!DOCTYPE svg PUBLIC "-//W3C//DTD SVG 1.1//EN" "http://www.w3.org/Graphics/SVG/1.1/DTD/svg11.dtd">
<svg xmlns="http://www.w3.org/2000/svg" xmlns:xlink="http://www.w3.org/1999/xlink" width="1063" height="438" viewBox="93 26 1063 438" version="1.1"><defs><marker viewBox="0 0 20 20" markerWidth="10" markerHeight="10" orient="auto" refX="11" refY="10" id="markerSiccl8lwd4"><path d="M 1 5 L 11 10 L 1 15 Z" fill="#000000" style="stroke-width: 1px; stroke-linecap: round; stroke-dasharray: 10000px, 1px;"/></marker><marker viewBox="0 0 20 20" markerWidth="20" markerHeight="20" orient="auto" refX="6" refY="6" id="markerSiccl8lwd6"><circle cx="6" cy="6" r="3.5" style="stroke-width: 1px; stroke-linecap: round; stroke-dasharray: 10000px, 1px;" fill="#ffffff" stroke="#000000"/></marker><marker viewBox="0 0 20 20" markerWidth="20" markerHeight="20" orient="auto" refX="8.5" refY="5" id="markerSiccl8lwd8"><path d="m 1 5 l 0 -3 l 7 3 l -7 3 z" fill="#ffffff" stroke="#000000" style="stroke-width: 1px; stroke-linecap: butt; stroke-dasharray: 10000px, 1px;"/></marker><marker viewBox="0 0 20 20" markerWidth="10" markerHeight="10" orient="auto" refX="11" refY="10" id="markerSiccl8lwda"><path d="M 1 5 L 11 10 L 1 15" fill="#ffffff" stroke="#000000" style="stroke-width: 1px; stroke-linecap: round; stroke-dasharray: 10000px, 1px;"/></marker><marker viewBox="0 0 20 20" markerWidth="10" markerHeight="10" orient="auto" refX="-1" refY="10" id="markerSiccl8lwdc"><path d="M 0 10 L 8 6 L 16 10 L 8 14 Z" fill="#ffffff" stroke="#000000" style="stroke-width: 1px; stroke-linecap: round; stroke-dasharray: 10000px, 1px;"/></marker><marker viewBox="0 0 20 20" markerWidth="10" markerHeight="10" orient="auto" refX="-5" refY="10" id="markerSiccl8lwde"><path d="M 1 4 L 5 16" fill="#000000" stroke="#000000" style="stroke-width: 1px; stroke-linecap: round; stroke-dasharray: 10000px, 1px;"/></marker></defs><g class="djs-group" xmlns="http://www.w3.org/2000/svg"><g data-element-id="Participant_1s48ray" class="djs-element djs-shape" transform="matrix(1,0,0,1,99,32)" style="display: block;"><rect fill="none" class="djs-outline" x="-6" y="-6" width="1063" height="438"></rect><g class="djs-visual"><rect x="0" y="0" width="1051" height="426" rx="0" ry="0" stroke="#000000" fill="#ffffff" style="stroke-width: 2px;"></rect><polyline points="30,0 30,426 " fill="none" stroke="#000000" style="stroke-width: 2px;"></polyline><text class=" djs-label" transform="matrix(0,-1,1,0,0,426)" style="font-family: Arial, sans-serif; font-size: 12px;"><tspan x="164.5" y="18.5">Customer Service</tspan></text></g><rect x="0" y="0" width="1051" height="426" fill="none" stroke="#ffffff" style="stroke-opacity: 0; stroke-width: 15px;" class="djs-hit"></rect></g><g class="djs-children"><g class="djs-group"><g data-element-id="StartEvent_1" transform="matrix(1,0,0,1,149,323)" class="djs-element djs-shape" style="display: block;"><rect fill="none" class="djs-outline" x="-6" y="-6" width="48" height="48"></rect><g class="djs-visual"><circle cx="18" cy="18" r="18" stroke="#000000" fill="#ffffff" style="stroke-width: 2px;"></circle></g><rect x="0" y="0" width="36" height="36" fill="none" stroke="#ffffff" style="stroke-opacity: 0; stroke-width: 15px;" class="djs-hit"></rect></g></g><g class="djs-group"><g data-element-id="StartEvent_1_label" class="djs-element djs-shape" transform="matrix(1,0,0,1,122,359)" style="display: block;"><rect fill="none" class="djs-outline" x="-6" y="-6" width="102" height="32"></rect><g class="djs-visual"><text class=" djs-label" style="font-family: Arial, sans-serif; font-size: 11px;"><tspan x="33.5" y="12">Start</tspan></text></g><rect x="0" y="0" width="90" height="20" fill="none" stroke="#ffffff" style="stroke-opacity: 0; stroke-width: 15px;" class="djs-hit"></rect></g></g><g class="djs-group"><g data-element-id="UserTask_0h2n8wu" class="djs-element djs-shape" transform="matrix(1,0,0,1,235,301)" style="display: block;"><rect fill="none" class="djs-outline" x="-6" y="-6" width="112" height="92"></rect><g class="djs-visual"><rect x="0" y="0" width="100" height="80" rx="10" ry="10" stroke="#000000" fill="#ffffff" style="stroke-width: 2px;"></rect><text class=" djs-label" style="font-family: Arial, sans-serif; font-size: 12px;"><tspan x="12" y="43.5">Analyse Case</tspan></text><path d="m 15,12 c 0.909,-0.845 1.594,-2.049 1.594,-3.385 0,-2.554 -1.805,-4.62199999 -4.357,-4.62199999 -2.55199998,0 -4.28799998,2.06799999 -4.28799998,4.62199999 0,1.348 0.974,2.562 1.89599998,3.405 -0.52899998,0.187 -5.669,2.097 -5.794,4.7560005 v 6.718 h 17 v -6.718 c 0,-2.2980005 -5.5279996,-4.5950005 -6.0509996,-4.7760005 zm -8,6 l 0,5.5 m 11,0 l 0,-5" fill="none" stroke="#000000" style="stroke-width: 0.5px;"></path><path d="m 15,12 m 2.162,1.009 c 0,2.4470005 -2.158,4.4310005 -4.821,4.4310005 -2.66499998,0 -4.822,-1.981 -4.822,-4.4310005 " fill="none" stroke="#000000" style="stroke-width: 0.5px;"></path><path d="m 15,12 m -6.9,-3.80 c 0,0 2.25099998,-2.358 4.27399998,-1.177 2.024,1.181 4.221,1.537 4.124,0.965 -0.098,-0.57 -0.117,-3.79099999 -4.191,-4.13599999 -3.57499998,0.001 -4.20799998,3.36699999 -4.20699998,4.34799999 z" fill="#000000" stroke="#000000" style="stroke-width: 0.5px;"></path></g><rect x="0" y="0" width="100" height="80" fill="none" stroke="#ffffff" style="stroke-opacity: 0; stroke-width: 15px;" class="djs-hit"></rect></g></g><g class="djs-group"><g data-element-id="ExclusiveGateway_06pmaep" transform="matrix(1,0,0,1,377,316)" class="djs-element djs-shape" style="display: block;"><rect fill="none" class="djs-outline" x="-6" y="-6" width="62" height="62"></rect><g class="djs-visual"><polygon points="25,0,50,25,25,50,0,25" stroke="#000000" fill="#ffffff" style="stroke-width: 2px;"></polygon><path d="m 16,15 7.42857142857143,9.714285714285715 -7.42857142857143,9.714285714285715 3.428571428571429,0 5.714285714285715,-7.464228571428572 5.714285714285715,7.464228571428572 3.428571428571429,0 -7.42857142857143,-9.714285714285715 7.42857142857143,-9.714285714285715 -3.428571428571429,0 -5.714285714285715,7.464228571428572 -5.714285714285715,-7.464228571428572 -3.428571428571429,0 z" fill="#000000" stroke="#000000" style="stroke-width: 1px;"></path></g><rect x="0" y="0" width="50" height="50" fill="none" stroke="#ffffff" style="stroke-opacity: 0; stroke-width: 15px;" class="djs-hit"></rect></g></g><g class="djs-group"><g data-element-id="ExclusiveGateway_06pmaep_label" class="djs-element djs-shape" transform="matrix(1,0,0,1,357,366)" style="display: none;"><rect fill="none" class="djs-outline" x="-6" y="-6" width="102" height="32"></rect><g class="djs-visual"><text class=" djs-label" style="font-family: Arial, sans-serif; font-size: 11px;"><tspan x="45" y="0"></tspan></text></g><rect x="0" y="0" width="90" height="20" fill="none" stroke="#ffffff" style="stroke-opacity: 0; stroke-width: 15px;" class="djs-hit"></rect></g></g><g class="djs-group"><g data-element-id="UserTask_1z04rjf" class="djs-element djs-shape" transform="matrix(1,0,0,1,498,301)" style="display: block;"><rect fill="none" class="djs-outline" x="-6" y="-6" width="112" height="92"></rect><g class="djs-visual"><rect x="0" y="0" width="100" height="80" rx="10" ry="10" stroke="#000000" fill="#ffffff" style="stroke-width: 2px;"></rect><text class=" djs-label" style="font-family: Arial, sans-serif; font-size: 12px;"><tspan x="35.5" y="22.5">Case </tspan><tspan x="12.5" y="36.5">Resolution by </tspan><tspan x="28" y="50.5">General </tspan><tspan x="28.5" y="64.5">Support </tspan></text><path d="m 15,12 c 0.909,-0.845 1.594,-2.049 1.594,-3.385 0,-2.554 -1.805,-4.62199999 -4.357,-4.62199999 -2.55199998,0 -4.28799998,2.06799999 -4.28799998,4.62199999 0,1.348 0.974,2.562 1.89599998,3.405 -0.52899998,0.187 -5.669,2.097 -5.794,4.7560005 v 6.718 h 17 v -6.718 c 0,-2.2980005 -5.5279996,-4.5950005 -6.0509996,-4.7760005 zm -8,6 l 0,5.5 m 11,0 l 0,-5" fill="none" stroke="#000000" style="stroke-width: 0.5px;"></path><path d="m 15,12 m 2.162,1.009 c 0,2.4470005 -2.158,4.4310005 -4.821,4.4310005 -2.66499998,0 -4.822,-1.981 -4.822,-4.4310005 " fill="none" stroke="#000000" style="stroke-width: 0.5px;"></path><path d="m 15,12 m -6.9,-3.80 c 0,0 2.25099998,-2.358 4.27399998,-1.177 2.024,1.181 4.221,1.537 4.124,0.965 -0.098,-0.57 -0.117,-3.79099999 -4.191,-4.13599999 -3.57499998,0.001 -4.20799998,3.36699999 -4.20699998,4.34799999 z" fill="#000000" stroke="#000000" style="stroke-width: 0.5px;"></path></g><rect x="0" y="0" width="100" height="80" fill="none" stroke="#ffffff" style="stroke-opacity: 0; stroke-width: 15px;" class="djs-hit"></rect></g></g><g class="djs-group"><g data-element-id="UserTask_1akswid" class="djs-element djs-shape" transform="matrix(1,0,0,1,620,160)" style="display: block;"><rect fill="none" class="djs-outline" x="-6" y="-6" width="112" height="92"></rect><g class="djs-visual"><rect x="0" y="0" width="100" height="80" rx="10" ry="10" stroke="#000000" fill="#ffffff" style="stroke-width: 2px;"></rect><text class=" djs-label" style="font-family: Arial, sans-serif; font-size: 12px;"><tspan x="6.5" y="29.5">Notify Customer</tspan><tspan x="29" y="43.5">of Case </tspan><tspan x="20.5" y="57.5">Resolution </tspan></text><path d="m 15,12 c 0.909,-0.845 1.594,-2.049 1.594,-3.385 0,-2.554 -1.805,-4.62199999 -4.357,-4.62199999 -2.55199998,0 -4.28799998,2.06799999 -4.28799998,4.62199999 0,1.348 0.974,2.562 1.89599998,3.405 -0.52899998,0.187 -5.669,2.097 -5.794,4.7560005 v 6.718 h 17 v -6.718 c 0,-2.2980005 -5.5279996,-4.5950005 -6.0509996,-4.7760005 zm -8,6 l 0,5.5 m 11,0 l 0,-5" fill="none" stroke="#000000" style="stroke-width: 0.5px;"></path><path d="m 15,12 m 2.162,1.009 c 0,2.4470005 -2.158,4.4310005 -4.821,4.4310005 -2.66499998,0 -4.822,-1.981 -4.822,-4.4310005 " fill="none" stroke="#000000" style="stroke-width: 0.5px;"></path><path d="m 15,12 m -6.9,-3.80 c 0,0 2.25099998,-2.358 4.27399998,-1.177 2.024,1.181 4.221,1.537 4.124,0.965 -0.098,-0.57 -0.117,-3.79099999 -4.191,-4.13599999 -3.57499998,0.001 -4.20799998,3.36699999 -4.20699998,4.34799999 z" fill="#000000" stroke="#000000" style="stroke-width: 0.5px;"></path></g><rect x="0" y="0" width="100" height="80" fill="none" stroke="#ffffff" style="stroke-opacity: 0; stroke-width: 15px;" class="djs-hit"></rect></g></g><g class="djs-group"><g data-element-id="UserTask_1b732dx" class="djs-element djs-shape" transform="matrix(1,0,0,1,769,160)" style="display: block;"><rect fill="none" class="djs-outline" x="-6" y="-6" width="112" height="92"></rect><g class="djs-visual"><rect x="0" y="0" width="100" height="80" rx="10" ry="10" stroke="#000000" fill="#ffffff" style="stroke-width: 2px;"></rect><text class=" djs-label" style="font-family: Arial, sans-serif; font-size: 12px;"><tspan x="8.5" y="43.5">Verify the Case</tspan></text><path d="m 15,12 c 0.909,-0.845 1.594,-2.049 1.594,-3.385 0,-2.554 -1.805,-4.62199999 -4.357,-4.62199999 -2.55199998,0 -4.28799998,2.06799999 -4.28799998,4.62199999 0,1.348 0.974,2.562 1.89599998,3.405 -0.52899998,0.187 -5.669,2.097 -5.794,4.7560005 v 6.718 h 17 v -6.718 c 0,-2.2980005 -5.5279996,-4.5950005 -6.0509996,-4.7760005 zm -8,6 l 0,5.5 m 11,0 l 0,-5" fill="none" stroke="#000000" style="stroke-width: 0.5px;"></path><path d="m 15,12 m 2.162,1.009 c 0,2.4470005 -2.158,4.4310005 -4.821,4.4310005 -2.66499998,0 -4.822,-1.981 -4.822,-4.4310005 " fill="none" stroke="#000000" style="stroke-width: 0.5px;"></path><path d="m 15,12 m -6.9,-3.80 c 0,0 2.25099998,-2.358 4.27399998,-1.177 2.024,1.181 4.221,1.537 4.124,0.965 -0.098,-0.57 -0.117,-3.79099999 -4.191,-4.13599999 -3.57499998,0.001 -4.20799998,3.36699999 -4.20699998,4.34799999 z" fill="#000000" stroke="#000000" style="stroke-width: 0.5px;"></path></g><rect x="0" y="0" width="100" height="80" fill="none" stroke="#ffffff" style="stroke-opacity: 0; stroke-width: 15px;" class="djs-hit"></rect></g></g><g class="djs-group"><g data-element-id="ExclusiveGateway_0ejauzs" transform="matrix(1,0,0,1,899,175)" class="djs-element djs-shape" style="display: block;"><rect fill="none" class="djs-outline" x="-6" y="-6" width="62" height="62"></rect><g class="djs-visual"><polygon points="25,0,50,25,25,50,0,25" stroke="#000000" fill="#ffffff" style="stroke-width: 2px;"></polygon><path d="m 16,15 7.42857142857143,9.714285714285715 -7.42857142857143,9.714285714285715 3.428571428571429,0 5.714285714285715,-7.464228571428572 5.714285714285715,7.464228571428572 3.428571428571429,0 -7.42857142857143,-9.714285714285715 7.42857142857143,-9.714285714285715 -3.428571428571429,0 -5.714285714285715,7.464228571428572 -5.714285714285715,-7.464228571428572 -3.428571428571429,0 z" fill="#000000" stroke="#000000" style="stroke-width: 1px;"></path></g><rect x="0" y="0" width="50" height="50" fill="none" stroke="#ffffff" style="stroke-opacity: 0; stroke-width: 15px;" class="djs-hit"></rect></g></g><g class="djs-group"><g data-element-id="ExclusiveGateway_0ejauzs_label" class="djs-element djs-shape" transform="matrix(1,0,0,1,879,225)" style="display: none;"><rect fill="none" class="djs-outline" x="-6" y="-6" width="102" height="32"></rect><g class="djs-visual"><text class=" djs-label" style="font-family: Arial, sans-serif; font-size: 11px;"><tspan x="45" y="0"></tspan></text></g><rect x="0" y="0" width="90" height="20" fill="none" stroke="#ffffff" style="stroke-opacity: 0; stroke-width: 15px;" class="djs-hit"></rect></g></g><g class="djs-group"><g data-element-id="UserTask_1mqe5zj" class="djs-element djs-shape" transform="matrix(1,0,0,1,1028,160)" style="display: block;"><rect fill="none" class="djs-outline" x="-6" y="-6" width="112" height="92"></rect><g class="djs-visual"><rect x="0" y="0" width="100" height="80" rx="10" ry="10" stroke="#000000" fill="#ffffff" style="stroke-width: 2px;"></rect><text class=" djs-label" style="font-family: Arial, sans-serif; font-size: 12px;"><tspan x="18" y="43.5">Close Case</tspan></text><path d="m 15,12 c 0.909,-0.845 1.594,-2.049 1.594,-3.385 0,-2.554 -1.805,-4.62199999 -4.357,-4.62199999 -2.55199998,0 -4.28799998,2.06799999 -4.28799998,4.62199999 0,1.348 0.974,2.562 1.89599998,3.405 -0.52899998,0.187 -5.669,2.097 -5.794,4.7560005 v 6.718 h 17 v -6.718 c 0,-2.2980005 -5.5279996,-4.5950005 -6.0509996,-4.7760005 zm -8,6 l 0,5.5 m 11,0 l 0,-5" fill="none" stroke="#000000" style="stroke-width: 0.5px;"></path><path d="m 15,12 m 2.162,1.009 c 0,2.4470005 -2.158,4.4310005 -4.821,4.4310005 -2.66499998,0 -4.822,-1.981 -4.822,-4.4310005 " fill="none" stroke="#000000" style="stroke-width: 0.5px;"></path><path d="m 15,12 m -6.9,-3.80 c 0,0 2.25099998,-2.358 4.27399998,-1.177 2.024,1.181 4.221,1.537 4.124,0.965 -0.098,-0.57 -0.117,-3.79099999 -4.191,-4.13599999 -3.57499998,0.001 -4.20799998,3.36699999 -4.20699998,4.34799999 z" fill="#000000" stroke="#000000" style="stroke-width: 0.5px;"></path></g><rect x="0" y="0" width="100" height="80" fill="none" stroke="#ffffff" style="stroke-opacity: 0; stroke-width: 15px;" class="djs-hit"></rect></g><g class="djs-children"></g></g><g class="djs-group"><g data-element-id="EndEvent_0dd0zas" transform="matrix(1,0,0,1,1060,323)" class="djs-element djs-shape" style="display: block;"><rect fill="none" class="djs-outline" x="-6" y="-6" width="48" height="48"></rect><g class="djs-visual"><circle cx="18" cy="18" r="18" stroke="#000000" fill="#ffffff" style="stroke-width: 4px;"></circle></g><rect x="0" y="0" width="36" height="36" fill="none" stroke="#ffffff" style="stroke-opacity: 0; stroke-width: 15px;" class="djs-hit"></rect></g></g><g class="djs-group"><g data-element-id="EndEvent_0dd0zas_label" class="djs-element djs-shape" transform="matrix(1,0,0,1,1033,359)" style="display: block;"><rect fill="none" class="djs-outline" x="-6" y="-6" width="102" height="32"></rect><g class="djs-visual"><text class=" djs-label" style="font-family: Arial, sans-serif; font-size: 11px;"><tspan x="35.5" y="12">End</tspan></text></g><rect x="0" y="0" width="90" height="20" fill="none" stroke="#ffffff" style="stroke-opacity: 0; stroke-width: 15px;" class="djs-hit"></rect></g></g><g class="djs-group"><g data-element-id="UserTask_1onatrv" class="djs-element djs-shape" transform="matrix(1,0,0,1,352,152)" style="display: block;"><rect fill="none" class="djs-outline" x="-6" y="-6" width="112" height="92"></rect><g class="djs-visual"><rect x="0" y="0" width="100" height="80" rx="10" ry="10" stroke="#000000" fill="#ffffff" style="stroke-width: 2px;"></rect><text class=" djs-label" style="font-family: Arial, sans-serif; font-size: 12px;"><tspan x="20" y="29.5">Analyse by </tspan><tspan x="22.5" y="43.5">Advanced </tspan><tspan x="28.5" y="57.5">Support </tspan></text><path d="m 15,12 c 0.909,-0.845 1.594,-2.049 1.594,-3.385 0,-2.554 -1.805,-4.62199999 -4.357,-4.62199999 -2.55199998,0 -4.28799998,2.06799999 -4.28799998,4.62199999 0,1.348 0.974,2.562 1.89599998,3.405 -0.52899998,0.187 -5.669,2.097 -5.794,4.7560005 v 6.718 h 17 v -6.718 c 0,-2.2980005 -5.5279996,-4.5950005 -6.0509996,-4.7760005 zm -8,6 l 0,5.5 m 11,0 l 0,-5" fill="none" stroke="#000000" style="stroke-width: 0.5px;"></path><path d="m 15,12 m 2.162,1.009 c 0,2.4470005 -2.158,4.4310005 -4.821,4.4310005 -2.66499998,0 -4.822,-1.981 -4.822,-4.4310005 " fill="none" stroke="#000000" style="stroke-width: 0.5px;"></path><path d="m 15,12 m -6.9,-3.80 c 0,0 2.25099998,-2.358 4.27399998,-1.177 2.024,1.181 4.221,1.537 4.124,0.965 -0.098,-0.57 -0.117,-3.79099999 -4.191,-4.13599999 -3.57499998,0.001 -4.20799998,3.36699999 -4.20699998,4.34799999 z" fill="#000000" stroke="#000000" style="stroke-width: 0.5px;"></path></g><rect x="0" y="0" width="100" height="80" fill="none" stroke="#ffffff" style="stroke-opacity: 0; stroke-width: 15px;" class="djs-hit"></rect></g></g><g class="djs-group"><g data-element-id="Task_0a1x02b" class="djs-element djs-shape" transform="matrix(1,0,0,1,472,52)" style="display: block;"><rect fill="none" class="djs-outline" x="-6" y="-6" width="112" height="92"></rect><g class="djs-visual"><rect x="0" y="0" width="100" height="80" rx="10" ry="10" stroke="#000000" fill="#ffffff" style="stroke-width: 2px;"></rect><text class=" djs-label" style="font-family: Arial, sans-serif; font-size: 12px;"><tspan x="35.5" y="22.5">Case </tspan><tspan x="12.5" y="36.5">Resolution by </tspan><tspan x="22.5" y="50.5">Advanced </tspan><tspan x="28.5" y="64.5">Support </tspan></text></g><rect x="0" y="0" width="100" height="80" fill="none" stroke="#ffffff" style="stroke-opacity: 0; stroke-width: 15px;" class="djs-hit"></rect></g></g><g class="djs-group"><g data-element-id="SequenceFlow_045sos7_label" class="djs-element djs-shape" transform="matrix(1,0,0,1,181,250)" style="display: none;"><rect fill="none" class="djs-outline" x="-6" y="-6" width="102" height="32"></rect><g class="djs-visual"><text class=" djs-label" style="font-family: Arial, sans-serif; font-size: 11px;"><tspan x="45" y="0"></tspan></text></g><rect x="0" y="0" width="90" height="20" fill="none" stroke="#ffffff" style="stroke-opacity: 0; stroke-width: 15px;" class="djs-hit"></rect></g></g><g class="djs-group"><g data-element-id="SequenceFlow_0j3kf2n_label" class="djs-element djs-shape" transform="matrix(1,0,0,1,335,331)" style="display: none;"><rect fill="none" class="djs-outline" x="-6" y="-6" width="102" height="32"></rect><g class="djs-visual"><text class=" djs-label" style="font-family: Arial, sans-serif; font-size: 11px;"><tspan x="45" y="0"></tspan></text></g><rect x="0" y="0" width="90" height="20" fill="none" stroke="#ffffff" style="stroke-opacity: 0; stroke-width: 15px;" class="djs-hit"></rect></g></g><g class="djs-group"><g data-element-id="SequenceFlow_1re6xr5_label" class="djs-element djs-shape" transform="matrix(1,0,0,1,419,315)" style="display: block;"><rect fill="none" class="djs-outline" x="-6" y="-6" width="102" height="32"></rect><g class="djs-visual"><text class=" djs-label" style="font-family: Arial, sans-serif; font-size: 11px;"><tspan x="38" y="12">No</tspan></text></g><rect x="0" y="0" width="90" height="20" fill="none" stroke="#ffffff" style="stroke-opacity: 0; stroke-width: 15px;" class="djs-hit"></rect></g></g><g class="djs-group"><g data-element-id="SequenceFlow_1lt329a_label" class="djs-element djs-shape" transform="matrix(1,0,0,1,606,219)" style="display: none;"><rect fill="none" class="djs-outline" x="-6" y="-6" width="102" height="32"></rect><g class="djs-visual"><text class=" djs-label" style="font-family: Arial, sans-serif; font-size: 11px;"><tspan x="45" y="0"></tspan></text></g><rect x="0" y="0" width="90" height="20" fill="none" stroke="#ffffff" style="stroke-opacity: 0; stroke-width: 15px;" class="djs-hit"></rect></g></g><g class="djs-group"><g data-element-id="SequenceFlow_1d65ydj_label" class="djs-element djs-shape" transform="matrix(1,0,0,1,763,108)" style="display: none;"><rect fill="none" class="djs-outline" x="-6" y="-6" width="102" height="32"></rect><g class="djs-visual"><text class=" djs-label" style="font-family: Arial, sans-serif; font-size: 11px;"><tspan x="45" y="0"></tspan></text></g><rect x="0" y="0" width="90" height="20" fill="none" stroke="#ffffff" style="stroke-opacity: 0; stroke-width: 15px;" class="djs-hit"></rect></g></g><g class="djs-group"><g data-element-id="SequenceFlow_1bcn81r_label" class="djs-element djs-shape" transform="matrix(1,0,0,1,902,109)" style="display: none;"><rect fill="none" class="djs-outline" x="-6" y="-6" width="102" height="32"></rect><g class="djs-visual"><text class=" djs-label" style="font-family: Arial, sans-serif; font-size: 11px;"><tspan x="45" y="0"></tspan></text></g><rect x="0" y="0" width="90" height="20" fill="none" stroke="#ffffff" style="stroke-opacity: 0; stroke-width: 15px;" class="djs-hit"></rect></g></g><g class="djs-group"><g data-element-id="SequenceFlow_1urpjhx_label" class="djs-element djs-shape" transform="matrix(1,0,0,1,1011,369)" style="display: none;"><rect fill="none" class="djs-outline" x="-6" y="-6" width="102" height="32"></rect><g class="djs-visual"><text class=" djs-label" style="font-family: Arial, sans-serif; font-size: 11px;"><tspan x="45" y="0"></tspan></text></g><rect x="0" y="0" width="90" height="20" fill="none" stroke="#ffffff" style="stroke-opacity: 0; stroke-width: 15px;" class="djs-hit"></rect></g></g><g class="djs-group"><g data-element-id="SequenceFlow_0i071yi_label" class="djs-element djs-shape" transform="matrix(1,0,0,1,270,425)" style="display: block;"><rect fill="none" class="djs-outline" x="-6" y="-6" width="102" height="42"></rect><g class="djs-visual"><text class=" djs-label" style="font-family: Arial, sans-serif; font-size: 11px;"><tspan x="3" y="12">Needs escalation</tspan></text></g><rect x="0" y="0" width="90" height="30" fill="none" stroke="#ffffff" style="stroke-opacity: 0; stroke-width: 15px;" class="djs-hit"></rect></g></g><g class="djs-group"><g data-element-id="SequenceFlow_0g2ulj0_label" class="djs-element djs-shape" transform="matrix(1,0,0,1,527,548)" style="display: none;"><rect fill="none" class="djs-outline" x="-6" y="-6" width="102" height="32"></rect><g class="djs-visual"><text class=" djs-label" style="font-family: Arial, sans-serif; font-size: 11px;"><tspan x="45" y="0"></tspan></text></g><rect x="0" y="0" width="90" height="20" fill="none" stroke="#ffffff" style="stroke-opacity: 0; stroke-width: 15px;" class="djs-hit"></rect></g></g><g class="djs-group"><g data-element-id="SequenceFlow_1xnrffm_label" class="djs-element djs-shape" transform="matrix(1,0,0,1,663,329)" style="display: none;"><rect fill="none" class="djs-outline" x="-6" y="-6" width="102" height="32"></rect><g class="djs-visual"><text class=" djs-label" style="font-family: Arial, sans-serif; font-size: 11px;"><tspan x="45" y="0"></tspan></text></g><rect x="0" y="0" width="90" height="20" fill="none" stroke="#ffffff" style="stroke-opacity: 0; stroke-width: 15px;" class="djs-hit"></rect></g></g><g class="djs-group"><g data-element-id="SequenceFlow_1rhadj8_label" class="djs-element djs-shape" transform="matrix(1,0,0,1,890,393)" style="display: block;"><rect fill="none" class="djs-outline" x="-6" y="-6" width="102" height="42"></rect><g class="djs-visual"><text class=" djs-label" style="font-family: Arial, sans-serif; font-size: 11px;"><tspan x="0.5" y="12">Case not resolved</tspan></text></g><rect x="0" y="0" width="90" height="30" fill="none" stroke="#ffffff" style="stroke-opacity: 0; stroke-width: 15px;" class="djs-hit"></rect></g></g><g class="djs-group"><g data-element-id="SequenceFlow_06n8vuv_label" class="djs-element djs-shape" transform="matrix(1,0,0,1,943,168)" style="display: block;"><rect fill="none" class="djs-outline" x="-6" y="-6" width="102" height="42"></rect><g class="djs-visual"><text class=" djs-label" style="font-family: Arial, sans-serif; font-size: 11px;"><tspan x="19.5" y="12">Verified by </tspan><tspan x="21" y="24">Customer </tspan></text></g><rect x="0" y="0" width="90" height="30" fill="none" stroke="#ffffff" style="stroke-opacity: 0; stroke-width: 15px;" class="djs-hit"></rect></g></g><g class="djs-group"><g data-element-id="SequenceFlow_045sos7" class="djs-element djs-connection" style="display: block;"><rect fill="none" class="djs-outline" x="179" y="335" width="62" height="12"></rect><g class="djs-visual"><path d="m  185,341L235,341 " fill="none" stroke="#000000" style="stroke-width: 2px; stroke-linejoin: round; marker-end: url(#markerSiccl8lwd4);"></path></g><polyline points="185,341 235,341 " fill="none" stroke="#ffffff" style="stroke-opacity: 0; stroke-width: 15px;" class="djs-hit"></polyline></g></g><g class="djs-group"><g data-element-id="SequenceFlow_1rhadj8" class="djs-element djs-connection" style="display: block;"><rect fill="none" class="djs-outline" x="279" y="219" width="651" height="209"></rect><g class="djs-visual"><path d="m  924,225L924,422 L285,422 L285,387 " fill="none" stroke="#000000" style="stroke-width: 2px; stroke-linejoin: round; marker-end: url(#markerSiccl8lwd4);"></path></g><polyline points="924,225 924,422 285,422 285,387 " fill="none" stroke="#ffffff" style="stroke-opacity: 0; stroke-width: 15px;" class="djs-hit"></polyline></g></g><g class="djs-group"><g data-element-id="SequenceFlow_0j3kf2n" class="djs-element djs-connection" style="display: block;"><rect fill="none" class="djs-outline" x="329" y="335" width="54" height="12"></rect><g class="djs-visual"><path d="m  335,341L377,341 " fill="none" stroke="#000000" style="stroke-width: 2px; stroke-linejoin: round; marker-end: url(#markerSiccl8lwd4);"></path></g><polyline points="335,341 377,341 " fill="none" stroke="#ffffff" style="stroke-opacity: 0; stroke-width: 15px;" class="djs-hit"></polyline></g></g><g class="djs-group"><g data-element-id="SequenceFlow_1re6xr5" class="djs-element djs-connection" style="display: block;"><rect fill="none" class="djs-outline" x="421" y="335" width="83" height="12"></rect><g class="djs-visual"><path d="m  427,341L498,341 " fill="none" stroke="#000000" style="stroke-width: 2px; stroke-linejoin: round; marker-end: url(#markerSiccl8lwd4); marker-start: url(#markerSiccl8lwde);"></path></g><polyline points="427,341 498,341 " fill="none" stroke="#ffffff" style="stroke-opacity: 0; stroke-width: 15px;" class="djs-hit"></polyline></g></g><g class="djs-group"><g data-element-id="SequenceFlow_0i071yi" class="djs-element djs-connection" style="display: block;"><rect fill="none" class="djs-outline" x="396" y="226" width="12" height="96"></rect><g class="djs-visual"><path d="m  402,316L402,232 " fill="none" stroke="#000000" style="stroke-width: 2px; stroke-linejoin: round; marker-end: url(#markerSiccl8lwd4);"></path></g><polyline points="402,316 402,232 " fill="none" stroke="#ffffff" style="stroke-opacity: 0; stroke-width: 15px;" class="djs-hit"></polyline></g></g><g class="djs-group"><g data-element-id="SequenceFlow_1lt329a" class="djs-element djs-connection" style="display: block;"><rect fill="none" class="djs-outline" x="594" y="239" width="82" height="108"></rect><g class="djs-visual"><path d="m  600,341L670,341 L670,245 " fill="none" stroke="#000000" style="stroke-width: 2px; stroke-linejoin: round; marker-end: url(#markerSiccl8lwd4);"></path></g><polyline points="600,341 670,341 670,245 " fill="none" stroke="#ffffff" style="stroke-opacity: 0; stroke-width: 15px;" class="djs-hit"></polyline></g></g><g class="djs-group"><g data-element-id="SequenceFlow_1xnrffm" class="djs-element djs-connection" style="display: block;"><rect fill="none" class="djs-outline" x="567" y="86" width="109" height="80"></rect><g class="djs-visual"><path d="m  573,92L670,92 L670,160 " fill="none" stroke="#000000" style="stroke-width: 2px; stroke-linejoin: round; marker-end: url(#markerSiccl8lwd4);"></path></g><polyline points="573,92 670,92 670,160 " fill="none" stroke="#ffffff" style="stroke-opacity: 0; stroke-width: 15px;" class="djs-hit"></polyline></g></g><g class="djs-group"><g data-element-id="SequenceFlow_1d65ydj" class="djs-element djs-connection" style="display: block;"><rect fill="none" class="djs-outline" x="714" y="194" width="61" height="12"></rect><g class="djs-visual"><path d="m  720,200L769,200 " fill="none" stroke="#000000" style="stroke-width: 2px; stroke-linejoin: round; marker-end: url(#markerSiccl8lwd4);"></path></g><polyline points="720,200 769,200 " fill="none" stroke="#ffffff" style="stroke-opacity: 0; stroke-width: 15px;" class="djs-hit"></polyline></g></g><g class="djs-group"><g data-element-id="SequenceFlow_1bcn81r" class="djs-element djs-connection" style="display: block;"><rect fill="none" class="djs-outline" x="863" y="194" width="42" height="12"></rect><g class="djs-visual"><path d="m  869,200L899,200 " fill="none" stroke="#000000" style="stroke-width: 2px; stroke-linejoin: round; marker-end: url(#markerSiccl8lwd4);"></path></g><polyline points="869,200 899,200 " fill="none" stroke="#ffffff" style="stroke-opacity: 0; stroke-width: 15px;" class="djs-hit"></polyline></g></g><g class="djs-group"><g data-element-id="SequenceFlow_06n8vuv" class="djs-element djs-connection" style="display: block;"><rect fill="none" class="djs-outline" x="943" y="194" width="91" height="12"></rect><g class="djs-visual"><path d="m  949,200L989,200 L989,200 L1028,200 " fill="none" stroke="#000000" style="stroke-width: 2px; stroke-linejoin: round; marker-end: url(#markerSiccl8lwd4); marker-start: url(#markerSiccl8lwde);"></path></g><polyline points="949,200 989,200 989,200 1028,200 " fill="none" stroke="#ffffff" style="stroke-opacity: 0; stroke-width: 15px;" class="djs-hit"></polyline></g></g><g class="djs-group"><g data-element-id="SequenceFlow_1urpjhx" class="djs-element djs-connection" style="display: block;"><rect fill="none" class="djs-outline" x="1072" y="234" width="12" height="95"></rect><g class="djs-visual"><path d="m  1078,240L1078,323 " fill="none" stroke="#000000" style="stroke-width: 2px; stroke-linejoin: round; marker-end: url(#markerSiccl8lwd4);"></path></g><polyline points="1078,240 1078,323 " fill="none" stroke="#ffffff" style="stroke-opacity: 0; stroke-width: 15px;" class="djs-hit"></polyline></g></g><g class="djs-group"><g data-element-id="SequenceFlow_0g2ulj0" class="djs-element djs-connection" style="display: block;"><rect fill="none" class="djs-outline" x="396" y="86" width="82" height="69"></rect><g class="djs-visual"><path d="m  402,149L402,92 L472,92 " fill="none" stroke="#000000" style="stroke-width: 2px; stroke-linejoin: round; marker-end: url(#markerSiccl8lwd4);"></path></g><polyline points="402,149 402,92 472,92 " fill="none" stroke="#ffffff" style="stroke-opacity: 0; stroke-width: 15px;" class="djs-hit"></polyline></g></g></g></g></svg>