<?xml version="1.0" encoding="utf-8"?>
<!-- created with bpmn-js / http://bpmn.io -->
<!DOCTYPE svg PUBLIC "-//W3C//DTD SVG 1.1//EN" "http://www.w3.org/Graphics/SVG/1.1/DTD/svg11.dtd">
<svg xmlns="http://www.w3.org/2000/svg" xmlns:xlink="http://www.w3.org/1999/xlink" width="1040" height="605" viewBox="76 48 1040 605" version="1.1"><defs><marker viewBox="0 0 20 20" markerWidth="10" markerHeight="10" orient="auto" refX="11" refY="10" id="markerSich6wnbi4"><path d="M 1 5 L 11 10 L 1 15 Z" fill="#000000" style="stroke-width: 1px; stroke-linecap: round; stroke-dasharray: 10000px, 1px;"/></marker><marker viewBox="0 0 20 20" markerWidth="20" markerHeight="20" orient="auto" refX="6" refY="6" id="markerSich6wnbi6"><circle cx="6" cy="6" r="3.5" style="stroke-width: 1px; stroke-linecap: round; stroke-dasharray: 10000px, 1px;" fill="#ffffff" stroke="#000000"/></marker><marker viewBox="0 0 20 20" markerWidth="20" markerHeight="20" orient="auto" refX="8.5" refY="5" id="markerSich6wnbi8"><path d="m 1 5 l 0 -3 l 7 3 l -7 3 z" fill="#ffffff" stroke="#000000" style="stroke-width: 1px; stroke-linecap: butt; stroke-dasharray: 10000px, 1px;"/></marker><marker viewBox="0 0 20 20" markerWidth="10" markerHeight="10" orient="auto" refX="11" refY="10" id="markerSich6wnbia"><path d="M 1 5 L 11 10 L 1 15" fill="#ffffff" stroke="#000000" style="stroke-width: 1px; stroke-linecap: round; stroke-dasharray: 10000px, 1px;"/></marker><marker viewBox="0 0 20 20" markerWidth="10" markerHeight="10" orient="auto" refX="-1" refY="10" id="markerSich6wnbic"><path d="M 0 10 L 8 6 L 16 10 L 8 14 Z" fill="#ffffff" stroke="#000000" style="stroke-width: 1px; stroke-linecap: round; stroke-dasharray: 10000px, 1px;"/></marker><marker viewBox="0 0 20 20" markerWidth="10" markerHeight="10" orient="auto" refX="-5" refY="10" id="markerSich6wnbie"><path d="M 1 4 L 5 16" fill="#000000" stroke="#000000" style="stroke-width: 1px; stroke-linecap: round; stroke-dasharray: 10000px, 1px;"/></marker></defs><g class="djs-group" xmlns="http://www.w3.org/2000/svg"><g data-element-id="Participant_1pwp8g5" class="djs-element djs-shape hover" transform="matrix(1,0,0,1,82,54)" style="display: block;"><rect fill="none" class="djs-outline" x="-6" y="-6" width="1040" height="605"></rect><g class="djs-visual"><rect x="0" y="0" width="1028" height="593" rx="0" ry="0" stroke="#000000" fill="#ffffff" style="stroke-width: 2px;"></rect><polyline points="30,0 30,593 " fill="none" stroke="#000000" style="stroke-width: 2px;"></polyline><text class=" djs-label" transform="matrix(0,-1,1,0,0,593)" style="font-family: Arial, sans-serif; font-size: 12px;"><tspan x="296.5" y="15"></tspan></text></g><rect x="0" y="0" width="1028" height="593" fill="none" stroke="#ffffff" style="stroke-opacity: 0; stroke-width: 15px;" class="djs-hit"></rect></g><g class="djs-children"><g class="djs-group"><g data-element-id="StartEvent_1" transform="matrix(1,0,0,1,155,126)" class="djs-element djs-shape" style="display: block;"><rect fill="none" class="djs-outline" x="-6" y="-6" width="48" height="48"></rect><g class="djs-visual"><circle cx="18" cy="18" r="18" stroke="#000000" fill="#ffffff" style="stroke-width: 2px;"></circle></g><rect x="0" y="0" width="36" height="36" fill="none" stroke="#ffffff" style="stroke-opacity: 0; stroke-width: 15px;" class="djs-hit"></rect></g><g class="djs-children"></g></g><g class="djs-group"><g data-element-id="UserTask_0h2n8wu" class="djs-element djs-shape" transform="matrix(1,0,0,1,202,246)" style="display: block;"><rect fill="none" class="djs-outline" x="-6" y="-6" width="112" height="92"></rect><g class="djs-visual"><rect x="0" y="0" width="100" height="80" rx="10" ry="10" stroke="#000000" fill="#ffffff" style="stroke-width: 2px;"></rect><text class=" djs-label" style="font-family: Arial, sans-serif; font-size: 12px;"><tspan x="12" y="43.5">Analyse Case</tspan></text><path d="m 15,12 c 0.909,-0.845 1.594,-2.049 1.594,-3.385 0,-2.554 -1.805,-4.62199999 -4.357,-4.62199999 -2.55199998,0 -4.28799998,2.06799999 -4.28799998,4.62199999 0,1.348 0.974,2.562 1.89599998,3.405 -0.52899998,0.187 -5.669,2.097 -5.794,4.7560005 v 6.718 h 17 v -6.718 c 0,-2.2980005 -5.5279996,-4.5950005 -6.0509996,-4.7760005 zm -8,6 l 0,5.5 m 11,0 l 0,-5" fill="none" stroke="#000000" style="stroke-width: 0.5px;"></path><path d="m 15,12 m 2.162,1.009 c 0,2.4470005 -2.158,4.4310005 -4.821,4.4310005 -2.66499998,0 -4.822,-1.981 -4.822,-4.4310005 " fill="none" stroke="#000000" style="stroke-width: 0.5px;"></path><path d="m 15,12 m -6.9,-3.80 c 0,0 2.25099998,-2.358 4.27399998,-1.177 2.024,1.181 4.221,1.537 4.124,0.965 -0.098,-0.57 -0.117,-3.79099999 -4.191,-4.13599999 -3.57499998,0.001 -4.20799998,3.36699999 -4.20699998,4.34799999 z" fill="#000000" stroke="#000000" style="stroke-width: 0.5px;"></path></g><rect x="0" y="0" width="100" height="80" fill="none" stroke="#ffffff" style="stroke-opacity: 0; stroke-width: 15px;" class="djs-hit"></rect></g></g><g class="djs-group"><g data-element-id="ExclusiveGateway_06pmaep" transform="matrix(1,0,0,1,368,261)" class="djs-element djs-shape" style="display: block;"><rect fill="none" class="djs-outline" x="-6" y="-6" width="62" height="62"></rect><g class="djs-visual"><polygon points="25,0,50,25,25,50,0,25" stroke="#000000" fill="#ffffff" style="stroke-width: 2px;"></polygon><path d="m 16,15 7.42857142857143,9.714285714285715 -7.42857142857143,9.714285714285715 3.428571428571429,0 5.714285714285715,-7.464228571428572 5.714285714285715,7.464228571428572 3.428571428571429,0 -7.42857142857143,-9.714285714285715 7.42857142857143,-9.714285714285715 -3.428571428571429,0 -5.714285714285715,7.464228571428572 -5.714285714285715,-7.464228571428572 -3.428571428571429,0 z" fill="#000000" stroke="#000000" style="stroke-width: 1px;"></path></g><rect x="0" y="0" width="50" height="50" fill="none" stroke="#ffffff" style="stroke-opacity: 0; stroke-width: 15px;" class="djs-hit"></rect></g></g><g class="djs-group"><g data-element-id="ExclusiveGateway_06pmaep_label" class="djs-element djs-shape" transform="matrix(1,0,0,1,348,311)" style="display: none;"><rect fill="none" class="djs-outline" x="-6" y="-6" width="102" height="32"></rect><g class="djs-visual"><text class=" djs-label" style="font-family: Arial, sans-serif; font-size: 11px;"><tspan x="45" y="0"></tspan></text></g><rect x="0" y="0" width="90" height="20" fill="none" stroke="#ffffff" style="stroke-opacity: 0; stroke-width: 15px;" class="djs-hit"></rect></g></g><g class="djs-group"><g data-element-id="UserTask_1z04rjf" class="djs-element djs-shape" transform="matrix(1,0,0,1,494,246)" style="display: block;"><rect fill="none" class="djs-outline" x="-6" y="-6" width="112" height="92"></rect><g class="djs-visual"><rect x="0" y="0" width="100" height="80" rx="10" ry="10" stroke="#000000" fill="#ffffff" style="stroke-width: 2px;"></rect><text class=" djs-label" style="font-family: Arial, sans-serif; font-size: 12px;"><tspan x="35.5" y="22.5">Case </tspan><tspan x="12.5" y="36.5">Resolution by </tspan><tspan x="28" y="50.5">General </tspan><tspan x="28.5" y="64.5">Support </tspan></text><path d="m 15,12 c 0.909,-0.845 1.594,-2.049 1.594,-3.385 0,-2.554 -1.805,-4.62199999 -4.357,-4.62199999 -2.55199998,0 -4.28799998,2.06799999 -4.28799998,4.62199999 0,1.348 0.974,2.562 1.89599998,3.405 -0.52899998,0.187 -5.669,2.097 -5.794,4.7560005 v 6.718 h 17 v -6.718 c 0,-2.2980005 -5.5279996,-4.5950005 -6.0509996,-4.7760005 zm -8,6 l 0,5.5 m 11,0 l 0,-5" fill="none" stroke="#000000" style="stroke-width: 0.5px;"></path><path d="m 15,12 m 2.162,1.009 c 0,2.4470005 -2.158,4.4310005 -4.821,4.4310005 -2.66499998,0 -4.822,-1.981 -4.822,-4.4310005 " fill="none" stroke="#000000" style="stroke-width: 0.5px;"></path><path d="m 15,12 m -6.9,-3.80 c 0,0 2.25099998,-2.358 4.27399998,-1.177 2.024,1.181 4.221,1.537 4.124,0.965 -0.098,-0.57 -0.117,-3.79099999 -4.191,-4.13599999 -3.57499998,0.001 -4.20799998,3.36699999 -4.20699998,4.34799999 z" fill="#000000" stroke="#000000" style="stroke-width: 0.5px;"></path></g><rect x="0" y="0" width="100" height="80" fill="none" stroke="#ffffff" style="stroke-opacity: 0; stroke-width: 15px;" class="djs-hit"></rect></g></g><g class="djs-group"><g data-element-id="UserTask_1akswid" class="djs-element djs-shape" transform="matrix(1,0,0,1,623,104)" style="display: block;"><rect fill="none" class="djs-outline" x="-6" y="-6" width="112" height="92"></rect><g class="djs-visual"><rect x="0" y="0" width="100" height="80" rx="10" ry="10" stroke="#000000" fill="#ffffff" style="stroke-width: 2px;"></rect><text class=" djs-label" style="font-family: Arial, sans-serif; font-size: 12px;"><tspan x="6.5" y="29.5">Notify Customer</tspan><tspan x="29" y="43.5">of Case </tspan><tspan x="20.5" y="57.5">Resolution </tspan></text><path d="m 15,12 c 0.909,-0.845 1.594,-2.049 1.594,-3.385 0,-2.554 -1.805,-4.62199999 -4.357,-4.62199999 -2.55199998,0 -4.28799998,2.06799999 -4.28799998,4.62199999 0,1.348 0.974,2.562 1.89599998,3.405 -0.52899998,0.187 -5.669,2.097 -5.794,4.7560005 v 6.718 h 17 v -6.718 c 0,-2.2980005 -5.5279996,-4.5950005 -6.0509996,-4.7760005 zm -8,6 l 0,5.5 m 11,0 l 0,-5" fill="none" stroke="#000000" style="stroke-width: 0.5px;"></path><path d="m 15,12 m 2.162,1.009 c 0,2.4470005 -2.158,4.4310005 -4.821,4.4310005 -2.66499998,0 -4.822,-1.981 -4.822,-4.4310005 " fill="none" stroke="#000000" style="stroke-width: 0.5px;"></path><path d="m 15,12 m -6.9,-3.80 c 0,0 2.25099998,-2.358 4.27399998,-1.177 2.024,1.181 4.221,1.537 4.124,0.965 -0.098,-0.57 -0.117,-3.79099999 -4.191,-4.13599999 -3.57499998,0.001 -4.20799998,3.36699999 -4.20699998,4.34799999 z" fill="#000000" stroke="#000000" style="stroke-width: 0.5px;"></path></g><rect x="0" y="0" width="100" height="80" fill="none" stroke="#ffffff" style="stroke-opacity: 0; stroke-width: 15px;" class="djs-hit"></rect></g></g><g class="djs-group"><g data-element-id="UserTask_1b732dx" class="djs-element djs-shape" transform="matrix(1,0,0,1,790,104)" style="display: block;"><rect fill="none" class="djs-outline" x="-6" y="-6" width="112" height="92"></rect><g class="djs-visual"><rect x="0" y="0" width="100" height="80" rx="10" ry="10" stroke="#000000" fill="#ffffff" style="stroke-width: 2px;"></rect><text class=" djs-label" style="font-family: Arial, sans-serif; font-size: 12px;"><tspan x="8.5" y="43.5">Verify the Case</tspan></text><path d="m 15,12 c 0.909,-0.845 1.594,-2.049 1.594,-3.385 0,-2.554 -1.805,-4.62199999 -4.357,-4.62199999 -2.55199998,0 -4.28799998,2.06799999 -4.28799998,4.62199999 0,1.348 0.974,2.562 1.89599998,3.405 -0.52899998,0.187 -5.669,2.097 -5.794,4.7560005 v 6.718 h 17 v -6.718 c 0,-2.2980005 -5.5279996,-4.5950005 -6.0509996,-4.7760005 zm -8,6 l 0,5.5 m 11,0 l 0,-5" fill="none" stroke="#000000" style="stroke-width: 0.5px;"></path><path d="m 15,12 m 2.162,1.009 c 0,2.4470005 -2.158,4.4310005 -4.821,4.4310005 -2.66499998,0 -4.822,-1.981 -4.822,-4.4310005 " fill="none" stroke="#000000" style="stroke-width: 0.5px;"></path><path d="m 15,12 m -6.9,-3.80 c 0,0 2.25099998,-2.358 4.27399998,-1.177 2.024,1.181 4.221,1.537 4.124,0.965 -0.098,-0.57 -0.117,-3.79099999 -4.191,-4.13599999 -3.57499998,0.001 -4.20799998,3.36699999 -4.20699998,4.34799999 z" fill="#000000" stroke="#000000" style="stroke-width: 0.5px;"></path></g><rect x="0" y="0" width="100" height="80" fill="none" stroke="#ffffff" style="stroke-opacity: 0; stroke-width: 15px;" class="djs-hit"></rect></g></g><g class="djs-group"><g data-element-id="ExclusiveGateway_0ejauzs" transform="matrix(1,0,0,1,921,119)" class="djs-element djs-shape" style="display: block;"><rect fill="none" class="djs-outline" x="-6" y="-6" width="62" height="62"></rect><g class="djs-visual"><polygon points="25,0,50,25,25,50,0,25" stroke="#000000" fill="#ffffff" style="stroke-width: 2px;"></polygon><path d="m 16,15 7.42857142857143,9.714285714285715 -7.42857142857143,9.714285714285715 3.428571428571429,0 5.714285714285715,-7.464228571428572 5.714285714285715,7.464228571428572 3.428571428571429,0 -7.42857142857143,-9.714285714285715 7.42857142857143,-9.714285714285715 -3.428571428571429,0 -5.714285714285715,7.464228571428572 -5.714285714285715,-7.464228571428572 -3.428571428571429,0 z" fill="#000000" stroke="#000000" style="stroke-width: 1px;"></path></g><rect x="0" y="0" width="50" height="50" fill="none" stroke="#ffffff" style="stroke-opacity: 0; stroke-width: 15px;" class="djs-hit"></rect></g></g><g class="djs-group"><g data-element-id="ExclusiveGateway_0ejauzs_label" class="djs-element djs-shape" transform="matrix(1,0,0,1,901,169)" style="display: none;"><rect fill="none" class="djs-outline" x="-6" y="-6" width="102" height="32"></rect><g class="djs-visual"><text class=" djs-label" style="font-family: Arial, sans-serif; font-size: 11px;"><tspan x="45" y="0"></tspan></text></g><rect x="0" y="0" width="90" height="20" fill="none" stroke="#ffffff" style="stroke-opacity: 0; stroke-width: 15px;" class="djs-hit"></rect></g></g><g class="djs-group"><g data-element-id="UserTask_1mqe5zj" class="djs-element djs-shape" transform="matrix(1,0,0,1,987,246)" style="display: block;"><rect fill="none" class="djs-outline" x="-6" y="-6" width="112" height="92"></rect><g class="djs-visual"><rect x="0" y="0" width="100" height="80" rx="10" ry="10" stroke="#000000" fill="#ffffff" style="stroke-width: 2px;"></rect><text class=" djs-label" style="font-family: Arial, sans-serif; font-size: 12px;"><tspan x="18" y="43.5">Close Case</tspan></text><path d="m 15,12 c 0.909,-0.845 1.594,-2.049 1.594,-3.385 0,-2.554 -1.805,-4.62199999 -4.357,-4.62199999 -2.55199998,0 -4.28799998,2.06799999 -4.28799998,4.62199999 0,1.348 0.974,2.562 1.89599998,3.405 -0.52899998,0.187 -5.669,2.097 -5.794,4.7560005 v 6.718 h 17 v -6.718 c 0,-2.2980005 -5.5279996,-4.5950005 -6.0509996,-4.7760005 zm -8,6 l 0,5.5 m 11,0 l 0,-5" fill="none" stroke="#000000" style="stroke-width: 0.5px;"></path><path d="m 15,12 m 2.162,1.009 c 0,2.4470005 -2.158,4.4310005 -4.821,4.4310005 -2.66499998,0 -4.822,-1.981 -4.822,-4.4310005 " fill="none" stroke="#000000" style="stroke-width: 0.5px;"></path><path d="m 15,12 m -6.9,-3.80 c 0,0 2.25099998,-2.358 4.27399998,-1.177 2.024,1.181 4.221,1.537 4.124,0.965 -0.098,-0.57 -0.117,-3.79099999 -4.191,-4.13599999 -3.57499998,0.001 -4.20799998,3.36699999 -4.20699998,4.34799999 z" fill="#000000" stroke="#000000" style="stroke-width: 0.5px;"></path></g><rect x="0" y="0" width="100" height="80" fill="none" stroke="#ffffff" style="stroke-opacity: 0; stroke-width: 15px;" class="djs-hit"></rect></g></g><g class="djs-group"><g data-element-id="EndEvent_0dd0zas" transform="matrix(1,0,0,1,1019,435)" class="djs-element djs-shape" style="display: block;"><rect fill="none" class="djs-outline" x="-6" y="-6" width="48" height="48"></rect><g class="djs-visual"><circle cx="18" cy="18" r="18" stroke="#000000" fill="#ffffff" style="stroke-width: 4px;"></circle></g><rect x="0" y="0" width="36" height="36" fill="none" stroke="#ffffff" style="stroke-opacity: 0; stroke-width: 15px;" class="djs-hit"></rect></g><g class="djs-children"><g class="djs-group"><g data-element-id="EndEvent_0dd0zas_label" class="djs-element djs-shape" transform="matrix(1,0,0,1,965,423)" style="display: block;"><rect fill="none" class="djs-outline" x="-6" y="-6" width="102" height="32"></rect><g class="djs-visual"><text class=" djs-label" style="font-family: Arial, sans-serif; font-size: 11px;"><tspan x="35.5" y="12">End</tspan></text></g><rect x="0" y="0" width="90" height="20" fill="none" stroke="#ffffff" style="stroke-opacity: 0; stroke-width: 15px;" class="djs-hit"></rect></g></g></g></g><g class="djs-group"><g data-element-id="UserTask_1onatrv" class="djs-element djs-shape" transform="matrix(1,0,0,1,343,455)" style="display: block;"><rect fill="none" class="djs-outline" x="-6" y="-6" width="112" height="92"></rect><g class="djs-visual"><rect x="0" y="0" width="100" height="80" rx="10" ry="10" stroke="#000000" fill="#ffffff" style="stroke-width: 2px;"></rect><text class=" djs-label" style="font-family: Arial, sans-serif; font-size: 12px;"><tspan x="20" y="29.5">Analyse by </tspan><tspan x="22.5" y="43.5">Advanced </tspan><tspan x="28.5" y="57.5">Support </tspan></text><path d="m 15,12 c 0.909,-0.845 1.594,-2.049 1.594,-3.385 0,-2.554 -1.805,-4.62199999 -4.357,-4.62199999 -2.55199998,0 -4.28799998,2.06799999 -4.28799998,4.62199999 0,1.348 0.974,2.562 1.89599998,3.405 -0.52899998,0.187 -5.669,2.097 -5.794,4.7560005 v 6.718 h 17 v -6.718 c 0,-2.2980005 -5.5279996,-4.5950005 -6.0509996,-4.7760005 zm -8,6 l 0,5.5 m 11,0 l 0,-5" fill="none" stroke="#000000" style="stroke-width: 0.5px;"></path><path d="m 15,12 m 2.162,1.009 c 0,2.4470005 -2.158,4.4310005 -4.821,4.4310005 -2.66499998,0 -4.822,-1.981 -4.822,-4.4310005 " fill="none" stroke="#000000" style="stroke-width: 0.5px;"></path><path d="m 15,12 m -6.9,-3.80 c 0,0 2.25099998,-2.358 4.27399998,-1.177 2.024,1.181 4.221,1.537 4.124,0.965 -0.098,-0.57 -0.117,-3.79099999 -4.191,-4.13599999 -3.57499998,0.001 -4.20799998,3.36699999 -4.20699998,4.34799999 z" fill="#000000" stroke="#000000" style="stroke-width: 0.5px;"></path></g><rect x="0" y="0" width="100" height="80" fill="none" stroke="#ffffff" style="stroke-opacity: 0; stroke-width: 15px;" class="djs-hit"></rect></g></g><g class="djs-group"><g data-element-id="Task_0a1x02b" class="djs-element djs-shape" transform="matrix(1,0,0,1,623,455)" style="display: block;"><rect fill="none" class="djs-outline" x="-6" y="-6" width="112" height="92"></rect><g class="djs-visual"><rect x="0" y="0" width="100" height="80" rx="10" ry="10" stroke="#000000" fill="#ffffff" style="stroke-width: 2px;"></rect><text class=" djs-label" style="font-family: Arial, sans-serif; font-size: 12px;"><tspan x="35.5" y="22.5">Case </tspan><tspan x="12.5" y="36.5">Resolution by </tspan><tspan x="22.5" y="50.5">Advanced </tspan><tspan x="28.5" y="64.5">Support </tspan></text></g><rect x="0" y="0" width="100" height="80" fill="none" stroke="#ffffff" style="stroke-opacity: 0; stroke-width: 15px;" class="djs-hit"></rect></g></g><g class="djs-group"><g data-element-id="SequenceFlow_045sos7" class="djs-element djs-connection" style="display: block;"><rect fill="none" class="djs-outline" x="167" y="158" width="41" height="134"></rect><g class="djs-visual"><path d="m  173,164L174,286 L202,286 " fill="none" stroke="#000000" style="stroke-width: 2px; stroke-linejoin: round; marker-end: url(#markerSich6wnbi4);"></path></g><polyline points="173,164 174,286 202,286 " fill="none" stroke="#ffffff" style="stroke-opacity: 0; stroke-width: 15px;" class="djs-hit"></polyline></g></g><g class="djs-group"><g data-element-id="SequenceFlow_045sos7_label" class="djs-element djs-shape" transform="matrix(1,0,0,1,140,245)" style="display: none;"><rect fill="none" class="djs-outline" x="-6" y="-6" width="102" height="32"></rect><g class="djs-visual"><text class=" djs-label" style="font-family: Arial, sans-serif; font-size: 11px;"><tspan x="45" y="0"></tspan></text></g><rect x="0" y="0" width="90" height="20" fill="none" stroke="#ffffff" style="stroke-opacity: 0; stroke-width: 15px;" class="djs-hit"></rect></g></g><g class="djs-group"><g data-element-id="SequenceFlow_1rhadj8" class="djs-element djs-connection" style="display: block;"><rect fill="none" class="djs-outline" x="246" y="163" width="706" height="442"></rect><g class="djs-visual"><path d="m  946,169L946,599 L252,599 L252,332 " fill="none" stroke="#000000" style="stroke-width: 2px; stroke-linejoin: round; marker-end: url(#markerSich6wnbi4);"></path></g><polyline points="946,169 946,599 252,599 252,332 " fill="none" stroke="#ffffff" style="stroke-opacity: 0; stroke-width: 15px;" class="djs-hit"></polyline></g></g><g class="djs-group"><g data-element-id="SequenceFlow_1rhadj8_label" class="djs-element djs-shape" transform="matrix(1,0,0,1,770,571)" style="display: block;"><rect fill="none" class="djs-outline" x="-6" y="-6" width="102" height="42"></rect><g class="djs-visual"><text class=" djs-label" style="font-family: Arial, sans-serif; font-size: 11px;"><tspan x="0.5" y="12">Case not resolved</tspan></text></g><rect x="0" y="0" width="90" height="30" fill="none" stroke="#ffffff" style="stroke-opacity: 0; stroke-width: 15px;" class="djs-hit"></rect></g></g><g class="djs-group"><g data-element-id="SequenceFlow_0j3kf2n" class="djs-element djs-connection" style="display: block;"><rect fill="none" class="djs-outline" x="296" y="280" width="78" height="12"></rect><g class="djs-visual"><path d="m  302,286L331,286 L331,286 L368,286 " fill="none" stroke="#000000" style="stroke-width: 2px; stroke-linejoin: round; marker-end: url(#markerSich6wnbi4);"></path></g><polyline points="302,286 331,286 331,286 368,286 " fill="none" stroke="#ffffff" style="stroke-opacity: 0; stroke-width: 15px;" class="djs-hit"></polyline></g></g><g class="djs-group"><g data-element-id="SequenceFlow_0j3kf2n_label" class="djs-element djs-shape" transform="matrix(1,0,0,1,294,326)" style="display: none;"><rect fill="none" class="djs-outline" x="-6" y="-6" width="102" height="32"></rect><g class="djs-visual"><text class=" djs-label" style="font-family: Arial, sans-serif; font-size: 11px;"><tspan x="45" y="0"></tspan></text></g><rect x="0" y="0" width="90" height="20" fill="none" stroke="#ffffff" style="stroke-opacity: 0; stroke-width: 15px;" class="djs-hit"></rect></g></g><g class="djs-group"><g data-element-id="SequenceFlow_1re6xr5" class="djs-element djs-connection" style="display: block;"><rect fill="none" class="djs-outline" x="412" y="280" width="88" height="12"></rect><g class="djs-visual"><path d="m  418,286L448,286 L448,286 L494,286 " fill="none" stroke="#000000" style="stroke-width: 2px; stroke-linejoin: round; marker-end: url(#markerSich6wnbi4);"></path></g><polyline points="418,286 448,286 448,286 494,286 " fill="none" stroke="#ffffff" style="stroke-opacity: 0; stroke-width: 15px;" class="djs-hit"></polyline></g></g><g class="djs-group"><g data-element-id="SequenceFlow_1re6xr5_label" class="djs-element djs-shape" transform="matrix(1,0,0,1,378,310)" style="display: block;"><rect fill="none" class="djs-outline" x="-6" y="-6" width="102" height="32"></rect><g class="djs-visual"><text class=" djs-label" style="font-family: Arial, sans-serif; font-size: 11px;"><tspan x="38" y="12">No</tspan></text></g><rect x="0" y="0" width="90" height="20" fill="none" stroke="#ffffff" style="stroke-opacity: 0; stroke-width: 15px;" class="djs-hit"></rect></g></g><g class="djs-group"><g data-element-id="SequenceFlow_0i071yi" class="djs-element djs-connection" style="display: block;"><rect fill="none" class="djs-outline" x="387" y="305" width="12" height="156"></rect><g class="djs-visual"><path d="m  393,311L393,388 L393,388 L393,455 " fill="none" stroke="#000000" style="stroke-width: 2px; stroke-linejoin: round; marker-end: url(#markerSich6wnbi4);"></path></g><polyline points="393,311 393,388 393,388 393,455 " fill="none" stroke="#ffffff" style="stroke-opacity: 0; stroke-width: 15px;" class="djs-hit"></polyline></g></g><g class="djs-group"><g data-element-id="SequenceFlow_0i071yi_label" class="djs-element djs-shape" transform="matrix(1,0,0,1,332,438)" style="display: block;"><rect fill="none" class="djs-outline" x="-6" y="-6" width="102" height="42"></rect><g class="djs-visual"><text class=" djs-label" style="font-family: Arial, sans-serif; font-size: 11px;"><tspan x="3" y="12">Needs escalation</tspan></text></g><rect x="0" y="0" width="90" height="30" fill="none" stroke="#ffffff" style="stroke-opacity: 0; stroke-width: 15px;" class="djs-hit"></rect></g></g><g class="djs-group"><g data-element-id="SequenceFlow_1lt329a" class="djs-element djs-connection" style="display: block;"><rect fill="none" class="djs-outline" x="538" y="138" width="91" height="114"></rect><g class="djs-visual"><path d="m  544,246L544,144 L623,144 " fill="none" stroke="#000000" style="stroke-width: 2px; stroke-linejoin: round; marker-end: url(#markerSich6wnbi4);"></path></g><polyline points="544,246 544,144 623,144 " fill="none" stroke="#ffffff" style="stroke-opacity: 0; stroke-width: 15px;" class="djs-hit"></polyline></g></g><g class="djs-group"><g data-element-id="SequenceFlow_1lt329a_label" class="djs-element djs-shape" transform="matrix(1,0,0,1,565,214)" style="display: none;"><rect fill="none" class="djs-outline" x="-6" y="-6" width="102" height="32"></rect><g class="djs-visual"><text class=" djs-label" style="font-family: Arial, sans-serif; font-size: 11px;"><tspan x="45" y="0"></tspan></text></g><rect x="0" y="0" width="90" height="20" fill="none" stroke="#ffffff" style="stroke-opacity: 0; stroke-width: 15px;" class="djs-hit"></rect></g></g><g class="djs-group"><g data-element-id="SequenceFlow_1xnrffm" class="djs-element djs-connection" style="display: block;"><rect fill="none" class="djs-outline" x="667" y="178" width="12" height="283"></rect><g class="djs-visual"><path d="m  673,455L673,184 " fill="none" stroke="#000000" style="stroke-width: 2px; stroke-linejoin: round; marker-end: url(#markerSich6wnbi4);"></path></g><polyline points="673,455 673,184 " fill="none" stroke="#ffffff" style="stroke-opacity: 0; stroke-width: 15px;" class="djs-hit"></polyline></g></g><g class="djs-group"><g data-element-id="SequenceFlow_1xnrffm_label" class="djs-element djs-shape" transform="matrix(1,0,0,1,622,324)" style="display: none;"><rect fill="none" class="djs-outline" x="-6" y="-6" width="102" height="32"></rect><g class="djs-visual"><text class=" djs-label" style="font-family: Arial, sans-serif; font-size: 11px;"><tspan x="45" y="0"></tspan></text></g><rect x="0" y="0" width="90" height="20" fill="none" stroke="#ffffff" style="stroke-opacity: 0; stroke-width: 15px;" class="djs-hit"></rect></g></g><g class="djs-group"><g data-element-id="SequenceFlow_1d65ydj" class="djs-element djs-connection" style="display: block;"><rect fill="none" class="djs-outline" x="717" y="138" width="79" height="12"></rect><g class="djs-visual"><path d="m  723,144L758,144 L758,144 L790,144 " fill="none" stroke="#000000" style="stroke-width: 2px; stroke-linejoin: round; marker-end: url(#markerSich6wnbi4);"></path></g><polyline points="723,144 758,144 758,144 790,144 " fill="none" stroke="#ffffff" style="stroke-opacity: 0; stroke-width: 15px;" class="djs-hit"></polyline></g></g><g class="djs-group"><g data-element-id="SequenceFlow_1d65ydj_label" class="djs-element djs-shape" transform="matrix(1,0,0,1,722,103)" style="display: none;"><rect fill="none" class="djs-outline" x="-6" y="-6" width="102" height="32"></rect><g class="djs-visual"><text class=" djs-label" style="font-family: Arial, sans-serif; font-size: 11px;"><tspan x="45" y="0"></tspan></text></g><rect x="0" y="0" width="90" height="20" fill="none" stroke="#ffffff" style="stroke-opacity: 0; stroke-width: 15px;" class="djs-hit"></rect></g></g><g class="djs-group"><g data-element-id="SequenceFlow_1bcn81r" class="djs-element djs-connection" style="display: block;"><rect fill="none" class="djs-outline" x="884" y="138" width="43" height="12"></rect><g class="djs-visual"><path d="m  890,144L921,144 " fill="none" stroke="#000000" style="stroke-width: 2px; stroke-linejoin: round; marker-end: url(#markerSich6wnbi4);"></path></g><polyline points="890,144 921,144 " fill="none" stroke="#ffffff" style="stroke-opacity: 0; stroke-width: 15px;" class="djs-hit"></polyline></g></g><g class="djs-group"><g data-element-id="SequenceFlow_1bcn81r_label" class="djs-element djs-shape" transform="matrix(1,0,0,1,861,104)" style="display: none;"><rect fill="none" class="djs-outline" x="-6" y="-6" width="102" height="32"></rect><g class="djs-visual"><text class=" djs-label" style="font-family: Arial, sans-serif; font-size: 11px;"><tspan x="45" y="0"></tspan></text></g><rect x="0" y="0" width="90" height="20" fill="none" stroke="#ffffff" style="stroke-opacity: 0; stroke-width: 15px;" class="djs-hit"></rect></g></g><g class="djs-group"><g data-element-id="SequenceFlow_06n8vuv" class="djs-element djs-connection" style="display: block;"><rect fill="none" class="djs-outline" x="965" y="138" width="78" height="114"></rect><g class="djs-visual"><path d="m  971,144L1037,144 L1037,246 " fill="none" stroke="#000000" style="stroke-width: 2px; stroke-linejoin: round; marker-end: url(#markerSich6wnbi4);"></path></g><polyline points="971,144 1037,144 1037,246 " fill="none" stroke="#ffffff" style="stroke-opacity: 0; stroke-width: 15px;" class="djs-hit"></polyline></g></g><g class="djs-group"><g data-element-id="SequenceFlow_06n8vuv_label" class="djs-element djs-shape selected" transform="matrix(1,0,0,1,975,109)" style="display: block;"><rect fill="none" class="djs-outline" x="-6" y="-6" width="102" height="42"></rect><g class="djs-visual"><text class=" djs-label" style="font-family: Arial, sans-serif; font-size: 11px;"><tspan x="19.5" y="12">Verified by </tspan><tspan x="21" y="24">Customer </tspan></text></g><rect x="0" y="0" width="90" height="30" fill="none" stroke="#ffffff" style="stroke-opacity: 0; stroke-width: 15px;" class="djs-hit"></rect></g></g><g class="djs-group"><g data-element-id="SequenceFlow_1urpjhx" class="djs-element djs-connection" style="display: block;"><rect fill="none" class="djs-outline" x="1031" y="320" width="12" height="121"></rect><g class="djs-visual"><path d="m  1037,326L1037,435 " fill="none" stroke="#000000" style="stroke-width: 2px; stroke-linejoin: round; marker-end: url(#markerSich6wnbi4);"></path></g><polyline points="1037,326 1037,435 " fill="none" stroke="#ffffff" style="stroke-opacity: 0; stroke-width: 15px;" class="djs-hit"></polyline></g></g><g class="djs-group"><g data-element-id="SequenceFlow_1urpjhx_label" class="djs-element djs-shape" transform="matrix(1,0,0,1,970,364)" style="display: none;"><rect fill="none" class="djs-outline" x="-6" y="-6" width="102" height="32"></rect><g class="djs-visual"><text class=" djs-label" style="font-family: Arial, sans-serif; font-size: 11px;"><tspan x="45" y="0"></tspan></text></g><rect x="0" y="0" width="90" height="20" fill="none" stroke="#ffffff" style="stroke-opacity: 0; stroke-width: 15px;" class="djs-hit"></rect></g></g><g class="djs-group"><g data-element-id="SequenceFlow_0g2ulj0" class="djs-element djs-connection" style="display: block;"><rect fill="none" class="djs-outline" x="437" y="489" width="192" height="12"></rect><g class="djs-visual"><path d="m  443,495L623,495 " fill="none" stroke="#000000" style="stroke-width: 2px; stroke-linejoin: round; marker-end: url(#markerSich6wnbi4);"></path></g><polyline points="443,495 623,495 " fill="none" stroke="#ffffff" style="stroke-opacity: 0; stroke-width: 15px;" class="djs-hit"></polyline></g></g><g class="djs-group"><g data-element-id="SequenceFlow_0g2ulj0_label" class="djs-element djs-shape" transform="matrix(1,0,0,1,486,543)" style="display: none;"><rect fill="none" class="djs-outline" x="-6" y="-6" width="102" height="32"></rect><g class="djs-visual"><text class=" djs-label" style="font-family: Arial, sans-serif; font-size: 11px;"><tspan x="45" y="0"></tspan></text></g><rect x="0" y="0" width="90" height="20" fill="none" stroke="#ffffff" style="stroke-opacity: 0; stroke-width: 15px;" class="djs-hit"></rect></g></g><g class="djs-group"><g data-element-id="StartEvent_1_label" class="djs-element djs-shape" transform="matrix(1,0,0,1,163,153)" style="display: block;"><rect fill="none" class="djs-outline" x="-6" y="-6" width="102" height="32"></rect><g class="djs-visual"><text class=" djs-label" style="font-family: Arial, sans-serif; font-size: 11px;"><tspan x="33.5" y="12">Start</tspan></text></g><rect x="0" y="0" width="90" height="20" fill="none" stroke="#ffffff" style="stroke-opacity: 0; stroke-width: 15px;" class="djs-hit"></rect></g></g></g></g></svg>