<?xml version="1.0" encoding="utf-8"?>
<!-- created with bpmn-js / http://bpmn.io -->
<!DOCTYPE svg PUBLIC "-//W3C//DTD SVG 1.1//EN" "http://www.w3.org/Graphics/SVG/1.1/DTD/svg11.dtd">
<svg xmlns="http://www.w3.org/2000/svg" xmlns:xlink="http://www.w3.org/1999/xlink" width="861" height="298" viewBox="26 9 861 298" version="1.1"><defs><marker viewBox="0 0 20 20" markerWidth="10" markerHeight="10" orient="auto" refX="11" refY="10" id="markerSie0z6ma64"><path d="M 1 5 L 11 10 L 1 15 Z" fill="#000000" style="stroke-width: 1px; stroke-linecap: round; stroke-dasharray: 10000px, 1px;"/></marker><marker viewBox="0 0 20 20" markerWidth="20" markerHeight="20" orient="auto" refX="6" refY="6" id="markerSie0z6ma66"><circle cx="6" cy="6" r="3.5" style="stroke-width: 1px; stroke-linecap: round; stroke-dasharray: 10000px, 1px;" fill="#ffffff" stroke="#000000"/></marker><marker viewBox="0 0 20 20" markerWidth="20" markerHeight="20" orient="auto" refX="8.5" refY="5" id="markerSie0z6ma68"><path d="m 1 5 l 0 -3 l 7 3 l -7 3 z" fill="#ffffff" stroke="#000000" style="stroke-width: 1px; stroke-linecap: butt; stroke-dasharray: 10000px, 1px;"/></marker><marker viewBox="0 0 20 20" markerWidth="10" markerHeight="10" orient="auto" refX="11" refY="10" id="markerSie0z6ma6a"><path d="M 1 5 L 11 10 L 1 15" fill="#ffffff" stroke="#000000" style="stroke-width: 1px; stroke-linecap: round; stroke-dasharray: 10000px, 1px;"/></marker><marker viewBox="0 0 20 20" markerWidth="10" markerHeight="10" orient="auto" refX="-1" refY="10" id="markerSie0z6ma6c"><path d="M 0 10 L 8 6 L 16 10 L 8 14 Z" fill="#ffffff" stroke="#000000" style="stroke-width: 1px; stroke-linecap: round; stroke-dasharray: 10000px, 1px;"/></marker><marker viewBox="0 0 20 20" markerWidth="10" markerHeight="10" orient="auto" refX="-5" refY="10" id="markerSie0z6ma6e"><path d="M 1 4 L 5 16" fill="#000000" stroke="#000000" style="stroke-width: 1px; stroke-linecap: round; stroke-dasharray: 10000px, 1px;"/></marker></defs><g class="djs-group" xmlns="http://www.w3.org/2000/svg"><g data-element-id="sid-D0BED8B1-BB93-411E-8E26-49C51C4AAF75" transform="matrix(1,0,0,1,62,84)" class="djs-element djs-shape" style="display: block;"><rect fill="none" class="djs-outline" x="-6" y="-6" width="42" height="42"></rect><g class="djs-visual"><circle cx="15" cy="15" r="15" stroke="#000000" fill="#ffffff" style="stroke-width: 2px;"></circle></g><rect x="0" y="0" width="30" height="30" fill="none" stroke="#ffffff" style="stroke-opacity: 0; stroke-width: 15px;" class="djs-hit"></rect></g></g><g class="djs-group" xmlns="http://www.w3.org/2000/svg"><g data-element-id="sid-D0BED8B1-BB93-411E-8E26-49C51C4AAF75_label" class="djs-element djs-shape" transform="matrix(1,0,0,1,32,116)" style="display: block;"><rect fill="none" class="djs-outline" x="-6" y="-6" width="102" height="34"></rect><g class="djs-visual"><text class=" djs-label" style="font-family: Arial, sans-serif; font-size: 11px;"><tspan x="27.265625" y="12.734375">hunger</tspan><tspan x="27.5" y="24.734375">noticed</tspan></text></g><rect x="0" y="0" width="90" height="22" fill="none" stroke="#ffffff" style="stroke-opacity: 0; stroke-width: 15px;" class="djs-hit"></rect></g></g><g class="djs-group" xmlns="http://www.w3.org/2000/svg"><g data-element-id="sid-8F82DC6C-AE16-41F6-9271-229FC57C00F4" class="djs-element djs-shape" transform="matrix(1,0,0,1,121,59)" style="display: block;"><rect fill="none" class="djs-outline" x="-6" y="-6" width="112" height="92"></rect><g class="djs-visual"><rect x="0" y="0" width="100" height="80" rx="10" ry="10" stroke="#000000" fill="#ffffff" style="stroke-width: 2px;"></rect><text class=" djs-label" style="font-family: Arial, sans-serif; font-size: 12px;"><tspan x="13.1796875" y="43.4140625">choose recipe</tspan></text></g><rect x="0" y="0" width="100" height="80" fill="none" stroke="#ffffff" style="stroke-opacity: 0; stroke-width: 15px;" class="djs-hit"></rect></g></g><g class="djs-group" xmlns="http://www.w3.org/2000/svg"><g data-element-id="sid-433EEF5E-4740-4E48-9503-61C492767C56" transform="matrix(1,0,0,1,397,79)" class="djs-element djs-shape" style="display: block;"><rect fill="none" class="djs-outline" x="-6" y="-6" width="52" height="52"></rect><g class="djs-visual"><polygon points="20,0,40,20,20,40,0,20" stroke="#000000" fill="#ffffff" style="stroke-width: 2px;"></polygon><path d="m 12.8,12 5.942857142857143,7.771428571428571 -5.942857142857143,7.771428571428571 2.742857142857143,0 4.571428571428571,-5.971382857142857 4.571428571428571,5.971382857142857 2.742857142857143,0 -5.942857142857143,-7.771428571428571 5.942857142857143,-7.771428571428571 -2.742857142857143,0 -4.571428571428571,5.971382857142857 -4.571428571428571,-5.971382857142857 -2.742857142857143,0 z" fill="#000000" stroke="#000000" style="stroke-width: 1px;"></path></g><rect x="0" y="0" width="40" height="40" fill="none" stroke="#ffffff" style="stroke-opacity: 0; stroke-width: 15px;" class="djs-hit"></rect></g><g class="djs-children"><g class="djs-group"><g data-element-id="sid-E943A666-80E2-4D38-9AEF-ACD1EFE0D128_label" class="djs-element djs-shape" transform="matrix(1,0,0,1,418,66)" style="display: block;"><rect fill="none" class="djs-outline" x="-6" y="-6" width="102" height="24"></rect><g class="djs-visual"><text class=" djs-label" style="font-family: Arial, sans-serif; font-size: 11px;"><tspan x="31.359375" y="12.734375">pasta</tspan></text></g><rect x="0" y="0" width="90" height="12" fill="none" stroke="#ffffff" style="stroke-opacity: 0; stroke-width: 15px;" class="djs-hit"></rect></g></g></g></g><g class="djs-group" xmlns="http://www.w3.org/2000/svg"><g data-element-id="sid-433EEF5E-4740-4E48-9503-61C492767C56_label" class="djs-element djs-shape" transform="matrix(1,0,0,1,353,115)" style="display: block;"><rect fill="none" class="djs-outline" x="-6" y="-6" width="102" height="36"></rect><g class="djs-visual"><text class=" djs-label" style="font-family: Arial, sans-serif; font-size: 11px;"><tspan x="26.359375" y="12.734375">desired </tspan><tspan x="32" y="24.734375">dish?</tspan></text></g><rect x="0" y="0" width="90" height="24" fill="none" stroke="#ffffff" style="stroke-opacity: 0; stroke-width: 15px;" class="djs-hit"></rect></g></g><g class="djs-group" xmlns="http://www.w3.org/2000/svg"><g data-element-id="sid-91F38206-6869-44E3-8930-0A83748450BF" class="djs-element djs-shape" transform="matrix(1,0,0,1,485,15)" style="display: block;"><rect fill="none" class="djs-outline" x="-6" y="-6" width="112" height="92"></rect><g class="djs-visual"><rect x="0" y="0" width="100" height="80" rx="10" ry="10" stroke="#000000" fill="#ffffff" style="stroke-width: 2px;"></rect><text class=" djs-label" style="font-family: Arial, sans-serif; font-size: 12px;"><tspan x="20.90625" y="43.4140625">cook pasta</tspan></text></g><rect x="0" y="0" width="100" height="80" fill="none" stroke="#ffffff" style="stroke-opacity: 0; stroke-width: 15px;" class="djs-hit"></rect></g></g><g class="djs-group" xmlns="http://www.w3.org/2000/svg"><g data-element-id="sid-9995AE6B-11A6-420E-9F08-19E38191A77A" class="djs-element djs-shape" transform="matrix(1,0,0,1,485,162)" style="display: block;"><rect fill="none" class="djs-outline" x="-6" y="-6" width="112" height="92"></rect><g class="djs-visual"><rect x="0" y="0" width="100" height="80" rx="10" ry="10" stroke="#000000" fill="#ffffff" style="stroke-width: 2px;"></rect><text class=" djs-label" style="font-family: Arial, sans-serif; font-size: 12px;"><tspan x="20.90625" y="43.4140625">cook steak</tspan></text></g><rect x="0" y="0" width="100" height="80" fill="none" stroke="#ffffff" style="stroke-opacity: 0; stroke-width: 15px;" class="djs-hit"></rect></g></g><g class="djs-group" xmlns="http://www.w3.org/2000/svg"><g data-element-id="sid-5144EF42-AEA7-4985-84F9-C082122C7107" class="djs-element djs-shape" transform="matrix(1,0,0,1,265,59)" style="display: block;"><rect fill="none" class="djs-outline" x="-6" y="-6" width="112" height="92"></rect><g class="djs-visual"><rect x="0" y="0" width="100" height="80" rx="10" ry="10" stroke="#000000" fill="#ffffff" style="stroke-width: 2px;"></rect><text class=" djs-label" style="font-family: Arial, sans-serif; font-size: 12px;"><tspan x="14.5390625" y="43.4140625">prepare salad</tspan></text></g><rect x="0" y="0" width="100" height="80" fill="none" stroke="#ffffff" style="stroke-opacity: 0; stroke-width: 15px;" class="djs-hit"></rect></g></g><g class="djs-group" xmlns="http://www.w3.org/2000/svg"><g data-element-id="sid-47D7385A-388F-40C4-892E-F814C0659C54" transform="matrix(1,0,0,1,610,100)" class="djs-element djs-shape" style="display: block;"><rect fill="none" class="djs-outline" x="-6" y="-6" width="52" height="52"></rect><g class="djs-visual"><polygon points="20,0,40,20,20,40,0,20" stroke="#000000" fill="#ffffff" style="stroke-width: 2px;"></polygon><path d="m 12.8,12 5.942857142857143,7.771428571428571 -5.942857142857143,7.771428571428571 2.742857142857143,0 4.571428571428571,-5.971382857142857 4.571428571428571,5.971382857142857 2.742857142857143,0 -5.942857142857143,-7.771428571428571 5.942857142857143,-7.771428571428571 -2.742857142857143,0 -4.571428571428571,5.971382857142857 -4.571428571428571,-5.971382857142857 -2.742857142857143,0 z" fill="#000000" stroke="#000000" style="stroke-width: 1px;"></path></g><rect x="0" y="0" width="40" height="40" fill="none" stroke="#ffffff" style="stroke-opacity: 0; stroke-width: 15px;" class="djs-hit"></rect></g></g><g class="djs-group" xmlns="http://www.w3.org/2000/svg"><g data-element-id="sid-47D7385A-388F-40C4-892E-F814C0659C54_label" class="djs-element djs-shape" transform="matrix(1,0,0,1,585,140)" style="display: none;"><rect fill="none" class="djs-outline" x="-6" y="-6" width="102" height="32"></rect><g class="djs-visual"><text class=" djs-label" style="font-family: Arial, sans-serif; font-size: 11px;"><tspan x="45" y="0"></tspan></text></g><rect x="0" y="0" width="90" height="20" fill="none" stroke="#ffffff" style="stroke-opacity: 0; stroke-width: 15px;" class="djs-hit"></rect></g></g><g class="djs-group" xmlns="http://www.w3.org/2000/svg"><g data-element-id="sid-AAEB396B-8B49-4A20-ADC8-8F956C1B5256" class="djs-element djs-shape" transform="matrix(1,0,0,1,692,80)" style="display: block;"><rect fill="none" class="djs-outline" x="-6" y="-6" width="112" height="92"></rect><g class="djs-visual"><rect x="0" y="0" width="100" height="80" rx="10" ry="10" stroke="#000000" fill="#ffffff" style="stroke-width: 2px;"></rect><text class=" djs-label" style="font-family: Arial, sans-serif; font-size: 12px;"><tspan x="27.265625" y="43.4140625">eat meal</tspan></text></g><rect x="0" y="0" width="100" height="80" fill="none" stroke="#ffffff" style="stroke-opacity: 0; stroke-width: 15px;" class="djs-hit"></rect></g></g><g class="djs-group" xmlns="http://www.w3.org/2000/svg"><g data-element-id="sid-283C754D-1AA2-4EC9-982F-382C51F2C9B9" transform="matrix(1,0,0,1,853,106)" class="djs-element djs-shape" style="display: block;"><rect fill="none" class="djs-outline" x="-6" y="-6" width="40" height="40"></rect><g class="djs-visual"><circle cx="14" cy="14" r="14" stroke="#000000" fill="#ffffff" style="stroke-width: 4px;"></circle></g><rect x="0" y="0" width="28" height="28" fill="none" stroke="#ffffff" style="stroke-opacity: 0; stroke-width: 15px;" class="djs-hit"></rect></g></g><g class="djs-group" xmlns="http://www.w3.org/2000/svg"><g data-element-id="sid-283C754D-1AA2-4EC9-982F-382C51F2C9B9_label" class="djs-element djs-shape" transform="matrix(1,0,0,1,822,134)" style="display: none;"><rect fill="none" class="djs-outline" x="-6" y="-6" width="102" height="32"></rect><g class="djs-visual"><text class=" djs-label" style="font-family: Arial, sans-serif; font-size: 11px;"><tspan x="45" y="0"></tspan></text></g><rect x="0" y="0" width="90" height="20" fill="none" stroke="#ffffff" style="stroke-opacity: 0; stroke-width: 15px;" class="djs-hit"></rect></g></g><g class="djs-group" xmlns="http://www.w3.org/2000/svg"><g data-element-id="sid-BF48915E-9493-4461-A096-7B52E6FD0B70" class="djs-element djs-shape" transform="matrix(1,0,0,1,709,195)" style="display: block;"><rect fill="none" class="djs-outline" x="-6" y="-6" width="112" height="43"></rect><g class="djs-visual"><rect x="0" y="0" width="100" height="31" rx="0" ry="0" stroke="none" fill="none" style="stroke-width: 2px;"></rect><path d="m 0, 0 m 10,0 l -10,0 l 0,31.000000000000004 l 10,0" fill="none" stroke="#000000" style="stroke-width: 2px;"></path><text class=" djs-label" style="font-family: Arial, sans-serif; font-size: 12px;"><tspan x="5" y="18.9140625">20 minutes</tspan></text></g><rect x="0" y="0" width="100" height="31" fill="none" stroke="#ffffff" style="stroke-opacity: 0; stroke-width: 15px;" class="djs-hit"></rect></g></g><g class="djs-group" xmlns="http://www.w3.org/2000/svg"><g data-element-id="sid-4E820B8B-41A4-47BC-B9BA-F007E2D485A4" class="djs-element djs-shape" transform="matrix(1,0,0,1,265,146)" style="display: block;"><rect fill="none" class="djs-outline" x="-6" y="-6" width="112" height="43"></rect><g class="djs-visual"><rect x="0" y="0" width="100" height="31" rx="0" ry="0" stroke="none" fill="none" style="stroke-width: 2px;"></rect><path d="m 0, 0 m 10,0 l -10,0 l 0,31.000000000000004 l 10,0" fill="none" stroke="#000000" style="stroke-width: 2px;"></path><text class=" djs-label" style="font-family: Arial, sans-serif; font-size: 12px;"><tspan x="5" y="18.9140625">10 minutes</tspan></text></g><rect x="0" y="0" width="100" height="31" fill="none" stroke="#ffffff" style="stroke-opacity: 0; stroke-width: 15px;" class="djs-hit"></rect></g></g><g class="djs-group" xmlns="http://www.w3.org/2000/svg"><g data-element-id="sid-CFD63D17-AEF8-441B-B612-A50DBA801760" class="djs-element djs-shape" transform="matrix(1,0,0,1,505,270)" style="display: block;"><rect fill="none" class="djs-outline" x="-6" y="-6" width="112" height="43"></rect><g class="djs-visual"><rect x="0" y="0" width="100" height="31" rx="0" ry="0" stroke="none" fill="none" style="stroke-width: 2px;"></rect><path d="m 0, 0 m 10,0 l -10,0 l 0,31.000000000000004 l 10,0" fill="none" stroke="#000000" style="stroke-width: 2px;"></path><text class=" djs-label" style="font-family: Arial, sans-serif; font-size: 12px;"><tspan x="5" y="18.9140625">10 minutes</tspan></text></g><rect x="0" y="0" width="100" height="31" fill="none" stroke="#ffffff" style="stroke-opacity: 0; stroke-width: 15px;" class="djs-hit"></rect></g></g><g class="djs-group" xmlns="http://www.w3.org/2000/svg"><g data-element-id="sid-A6E3D7E7-B739-4B08-993E-B5CB5F61C69F" class="djs-element djs-shape selected" transform="matrix(1,0,0,1,121,155)" style="display: block;"><rect fill="none" class="djs-outline" x="-6" y="-6" width="112" height="43"></rect><g class="djs-visual"><rect x="0" y="0" width="100" height="31" rx="0" ry="0" stroke="none" fill="none" style="stroke-width: 2px;"></rect><path d="m 0, 0 m 10,0 l -10,0 l 0,31.000000000000004 l 10,0" fill="none" stroke="#000000" style="stroke-width: 2px;"></path><text class=" djs-label" style="font-family: Arial, sans-serif; font-size: 12px;"><tspan x="5" y="18.9140625">3 minutes</tspan></text></g><rect x="0" y="0" width="100" height="31" fill="none" stroke="#ffffff" style="stroke-opacity: 0; stroke-width: 15px;" class="djs-hit"></rect><g class=" djs-resizer djs-resizer-nw" transform="matrix(1,0,0,1,0,0)"><rect x="-7" y="-7" width="5" height="5" class=" djs-resizer-visual"></rect><rect x="-7" y="-7" width="20" height="20" class=" djs-resizer-hit"></rect></g><g class=" djs-resizer djs-resizer-ne" transform="matrix(0,1,-1,0,100,0)"><rect x="-7" y="-7" width="5" height="5" class=" djs-resizer-visual"></rect><rect x="-7" y="-7" width="20" height="20" class=" djs-resizer-hit"></rect></g><g class=" djs-resizer djs-resizer-se" transform="matrix(-1,0,0,-1,100,31)"><rect x="-7" y="-7" width="5" height="5" class=" djs-resizer-visual"></rect><rect x="-7" y="-7" width="20" height="20" class=" djs-resizer-hit"></rect></g><g class=" djs-resizer djs-resizer-sw" transform="matrix(0,-1,1,0,0,31)"><rect x="-7" y="-7" width="5" height="5" class=" djs-resizer-visual"></rect><rect x="-7" y="-7" width="20" height="20" class=" djs-resizer-hit"></rect></g></g></g><g class="djs-group" xmlns="http://www.w3.org/2000/svg"><g data-element-id="sid-158140B4-D103-4652-A69B-F15B8A689F9A" class="djs-element djs-shape" transform="matrix(1,0,0,1,505,119)" style="display: block;"><rect fill="none" class="djs-outline" x="-6" y="-6" width="112" height="43"></rect><g class="djs-visual"><rect x="0" y="0" width="100" height="31" rx="0" ry="0" stroke="none" fill="none" style="stroke-width: 2px;"></rect><path d="m 0, 0 m 10,0 l -10,0 l 0,31.000000000000004 l 10,0" fill="none" stroke="#000000" style="stroke-width: 2px;"></path><text class=" djs-label" style="font-family: Arial, sans-serif; font-size: 12px;"><tspan x="5" y="18.9140625">15 minutes</tspan></text></g><rect x="0" y="0" width="100" height="31" fill="none" stroke="#ffffff" style="stroke-opacity: 0; stroke-width: 15px;" class="djs-hit"></rect></g></g><g class="djs-group" xmlns="http://www.w3.org/2000/svg"><g data-element-id="sid-FFF01EF7-1FEC-4B83-986C-018858D97835" class="djs-element djs-connection" style="display: block;"><rect fill="none" class="djs-outline" x="86" y="93" width="41" height="12"></rect><g class="djs-visual"><path d="m  92,99L121,99 " fill="none" stroke="#000000" style="stroke-width: 2px; stroke-linejoin: round; marker-end: url(#markerSie0z6ma64);"></path></g><polyline points="92,99 121,99 " fill="none" stroke="#ffffff" style="stroke-opacity: 0; stroke-width: 15px;" class="djs-hit"></polyline></g></g><g class="djs-group" xmlns="http://www.w3.org/2000/svg"><g data-element-id="sid-FFF01EF7-1FEC-4B83-986C-018858D97835_label" class="djs-element djs-shape" transform="matrix(1,0,0,1,43,45)" style="display: none;"><rect fill="none" class="djs-outline" x="-6" y="-6" width="102" height="32"></rect><g class="djs-visual"><text class=" djs-label" style="font-family: Arial, sans-serif; font-size: 11px;"><tspan x="45" y="0"></tspan></text></g><rect x="0" y="0" width="90" height="20" fill="none" stroke="#ffffff" style="stroke-opacity: 0; stroke-width: 15px;" class="djs-hit"></rect></g></g><g class="djs-group" xmlns="http://www.w3.org/2000/svg"><g data-element-id="sid-5244058D-4A1C-49C7-A975-3D2AF4BFAFE0" class="djs-element djs-connection" style="display: block;"><rect fill="none" class="djs-outline" x="215" y="93" width="56" height="12"></rect><g class="djs-visual"><path d="m  221,99L243,99 L243,99 L265,99 " fill="none" stroke="#000000" style="stroke-width: 2px; stroke-linejoin: round; marker-end: url(#markerSie0z6ma64);"></path></g><polyline points="221,99 243,99 243,99 265,99 " fill="none" stroke="#ffffff" style="stroke-opacity: 0; stroke-width: 15px;" class="djs-hit"></polyline></g></g><g class="djs-group" xmlns="http://www.w3.org/2000/svg"><g data-element-id="sid-5244058D-4A1C-49C7-A975-3D2AF4BFAFE0_label" class="djs-element djs-shape" transform="matrix(1,0,0,1,188,45)" style="display: none;"><rect fill="none" class="djs-outline" x="-6" y="-6" width="102" height="32"></rect><g class="djs-visual"><text class=" djs-label" style="font-family: Arial, sans-serif; font-size: 11px;"><tspan x="45" y="0"></tspan></text></g><rect x="0" y="0" width="90" height="20" fill="none" stroke="#ffffff" style="stroke-opacity: 0; stroke-width: 15px;" class="djs-hit"></rect></g></g><g class="djs-group" xmlns="http://www.w3.org/2000/svg"><g data-element-id="sid-E02C3FCE-3C11-4C6B-AFC0-674C5A8B69AF" class="djs-element djs-connection" style="display: block;"><rect fill="none" class="djs-outline" x="579" y="49" width="57" height="57"></rect><g class="djs-visual"><path d="m  585,55L630,55 L630,100 " fill="none" stroke="#000000" style="stroke-width: 2px; stroke-linejoin: round; marker-end: url(#markerSie0z6ma64);"></path></g><polyline points="585,55 630,55 630,100 " fill="none" stroke="#ffffff" style="stroke-opacity: 0; stroke-width: 15px;" class="djs-hit"></polyline></g></g><g class="djs-group" xmlns="http://www.w3.org/2000/svg"><g data-element-id="sid-E02C3FCE-3C11-4C6B-AFC0-674C5A8B69AF_label" class="djs-element djs-shape" transform="matrix(1,0,0,1,623,45)" style="display: none;"><rect fill="none" class="djs-outline" x="-6" y="-6" width="102" height="32"></rect><g class="djs-visual"><text class=" djs-label" style="font-family: Arial, sans-serif; font-size: 11px;"><tspan x="45" y="0"></tspan></text></g><rect x="0" y="0" width="90" height="20" fill="none" stroke="#ffffff" style="stroke-opacity: 0; stroke-width: 15px;" class="djs-hit"></rect></g></g><g class="djs-group" xmlns="http://www.w3.org/2000/svg"><g data-element-id="sid-F031AA0F-ABDF-4866-A905-7EF8FF7A899B" class="djs-element djs-connection" style="display: block;"><rect fill="none" class="djs-outline" x="579" y="134" width="57.5" height="74"></rect><g class="djs-visual"><path d="m  585,202L629,202 L630.5,140 " fill="none" stroke="#000000" style="stroke-width: 2px; stroke-linejoin: round; marker-end: url(#markerSie0z6ma64);"></path></g><polyline points="585,202 629,202 630.5,140 " fill="none" stroke="#ffffff" style="stroke-opacity: 0; stroke-width: 15px;" class="djs-hit"></polyline></g></g><g class="djs-group" xmlns="http://www.w3.org/2000/svg"><g data-element-id="sid-F031AA0F-ABDF-4866-A905-7EF8FF7A899B_label" class="djs-element djs-shape" transform="matrix(1,0,0,1,633,210)" style="display: none;"><rect fill="none" class="djs-outline" x="-6" y="-6" width="102" height="32"></rect><g class="djs-visual"><text class=" djs-label" style="font-family: Arial, sans-serif; font-size: 11px;"><tspan x="45" y="0"></tspan></text></g><rect x="0" y="0" width="90" height="20" fill="none" stroke="#ffffff" style="stroke-opacity: 0; stroke-width: 15px;" class="djs-hit"></rect></g></g><g class="djs-group" xmlns="http://www.w3.org/2000/svg"><g data-element-id="sid-1BF06A5D-6B3D-4808-B358-69C1E08B1C42" class="djs-element djs-connection" style="display: block;"><rect fill="none" class="djs-outline" x="644" y="114.21834061135371" width="54" height="12.196506550218345"></rect><g class="djs-visual"><path d="m  650,120.41484716157206L671,120.41484716157206 L671,120.21834061135371 L692,120.21834061135371 " fill="none" stroke="#000000" style="stroke-width: 2px; stroke-linejoin: round; marker-end: url(#markerSie0z6ma64);"></path></g><polyline points="650,120.41484716157206 671,120.41484716157206 671,120.21834061135371 692,120.21834061135371 " fill="none" stroke="#ffffff" style="stroke-opacity: 0; stroke-width: 15px;" class="djs-hit"></polyline></g></g><g class="djs-group" xmlns="http://www.w3.org/2000/svg"><g data-element-id="sid-1BF06A5D-6B3D-4808-B358-69C1E08B1C42_label" class="djs-element djs-shape" transform="matrix(1,0,0,1,713,45)" style="display: none;"><rect fill="none" class="djs-outline" x="-6" y="-6" width="102" height="32"></rect><g class="djs-visual"><text class=" djs-label" style="font-family: Arial, sans-serif; font-size: 11px;"><tspan x="45" y="0"></tspan></text></g><rect x="0" y="0" width="90" height="20" fill="none" stroke="#ffffff" style="stroke-opacity: 0; stroke-width: 15px;" class="djs-hit"></rect></g></g><g class="djs-group" xmlns="http://www.w3.org/2000/svg"><g data-element-id="sid-A183C0F7-53E8-4A53-B0C1-C626A5459AB5" class="djs-element djs-connection" style="display: block;"><rect fill="none" class="djs-outline" x="786" y="114" width="73" height="12"></rect><g class="djs-visual"><path d="m  792,120L853,120 " fill="none" stroke="#000000" style="stroke-width: 2px; stroke-linejoin: round; marker-end: url(#markerSie0z6ma64);"></path></g><polyline points="792,120 853,120 " fill="none" stroke="#ffffff" style="stroke-opacity: 0; stroke-width: 15px;" class="djs-hit"></polyline></g></g><g class="djs-group" xmlns="http://www.w3.org/2000/svg"><g data-element-id="sid-A183C0F7-53E8-4A53-B0C1-C626A5459AB5_label" class="djs-element djs-shape" transform="matrix(1,0,0,1,858,45)" style="display: none;"><rect fill="none" class="djs-outline" x="-6" y="-6" width="102" height="32"></rect><g class="djs-visual"><text class=" djs-label" style="font-family: Arial, sans-serif; font-size: 11px;"><tspan x="45" y="0"></tspan></text></g><rect x="0" y="0" width="90" height="20" fill="none" stroke="#ffffff" style="stroke-opacity: 0; stroke-width: 15px;" class="djs-hit"></rect></g></g><g class="djs-group" xmlns="http://www.w3.org/2000/svg"><g data-element-id="sid-1CA5065E-3A33-4024-93CF-B7148AD79095" class="djs-element djs-connection" style="display: block;"><rect fill="none" class="djs-outline" x="359" y="93" width="44" height="12.40723981900453"></rect><g class="djs-visual"><path d="m  365,99L381,99.22624434389141 L381,99.40723981900453 L397,99.40723981900453 " fill="none" stroke="#000000" style="stroke-width: 2px; stroke-linejoin: round; marker-end: url(#markerSie0z6ma64);"></path></g><polyline points="365,99 381,99.22624434389141 381,99.40723981900453 397,99.40723981900453 " fill="none" stroke="#ffffff" style="stroke-opacity: 0; stroke-width: 15px;" class="djs-hit"></polyline></g></g><g class="djs-group" xmlns="http://www.w3.org/2000/svg"><g data-element-id="sid-1CA5065E-3A33-4024-93CF-B7148AD79095_label" class="djs-element djs-shape" transform="matrix(1,0,0,1,330,45)" style="display: none;"><rect fill="none" class="djs-outline" x="-6" y="-6" width="102" height="32"></rect><g class="djs-visual"><text class=" djs-label" style="font-family: Arial, sans-serif; font-size: 11px;"><tspan x="45" y="0"></tspan></text></g><rect x="0" y="0" width="90" height="20" fill="none" stroke="#ffffff" style="stroke-opacity: 0; stroke-width: 15px;" class="djs-hit"></rect></g></g><g class="djs-group" xmlns="http://www.w3.org/2000/svg"><g data-element-id="sid-E943A666-80E2-4D38-9AEF-ACD1EFE0D128" class="djs-element djs-connection" style="display: block;"><rect fill="none" class="djs-outline" x="411" y="49" width="80" height="36"></rect><g class="djs-visual"><path d="m  417,79L417,55 L485,55 " fill="none" stroke="#000000" style="stroke-width: 2px; stroke-linejoin: round; marker-end: url(#markerSie0z6ma64);"></path></g><polyline points="417,79 417,55 485,55 " fill="none" stroke="#ffffff" style="stroke-opacity: 0; stroke-width: 15px;" class="djs-hit"></polyline></g></g><g class="djs-group" xmlns="http://www.w3.org/2000/svg"><g data-element-id="sid-4C1A6A53-32E3-46D3-BECE-5B3555133586" class="djs-element djs-connection" style="display: block;"><rect fill="none" class="djs-outline" x="411.5" y="113" width="79.5" height="95"></rect><g class="djs-visual"><path d="m  417.5,119L417.5,202 L485,202 " fill="none" stroke="#000000" style="stroke-width: 2px; stroke-linejoin: round; marker-end: url(#markerSie0z6ma64);"></path></g><polyline points="417.5,119 417.5,202 485,202 " fill="none" stroke="#ffffff" style="stroke-opacity: 0; stroke-width: 15px;" class="djs-hit"></polyline></g></g><g class="djs-group" xmlns="http://www.w3.org/2000/svg"><g data-element-id="sid-4C1A6A53-32E3-46D3-BECE-5B3555133586_label" class="djs-element djs-shape" transform="matrix(1,0,0,1,395,163)" style="display: block;"><rect fill="none" class="djs-outline" x="-6" y="-6" width="102" height="24"></rect><g class="djs-visual"><text class=" djs-label" style="font-family: Arial, sans-serif; font-size: 11px;"><tspan x="31.8125" y="12.734375">steak</tspan></text></g><rect x="0" y="0" width="90" height="12" fill="none" stroke="#ffffff" style="stroke-opacity: 0; stroke-width: 15px;" class="djs-hit"></rect></g></g><g class="djs-group" xmlns="http://www.w3.org/2000/svg"><g data-element-id="sid-F04D4AF9-B37A-4489-9121-EA6E2398D277" class="djs-element djs-connection" style="display: block;"><rect fill="none" class="djs-outline" x="123.16480630334866" y="133" width="34.835193696651345" height="27.5"></rect><g class="djs-visual"><polyline points="152,139 129.16480630334866,154.5 " fill="none" stroke="#000000" style="stroke-width: 2px; stroke-dasharray: 1px, 6px; stroke-linecap: round; stroke-linejoin: round;"></polyline></g><polyline points="152,139 129.16480630334866,154.5 " fill="none" stroke="#ffffff" style="stroke-opacity: 0; stroke-width: 15px;" class="djs-hit"></polyline></g></g><g class="djs-group" xmlns="http://www.w3.org/2000/svg"><g data-element-id="sid-18F7ACF2-1B3D-4E25-B7EF-B5080D0E25A4" class="djs-element djs-connection" style="display: block;"><rect fill="none" class="djs-outline" x="268.0228873239437" y="133" width="30.977112676056322" height="19"></rect><g class="djs-visual"><polyline points="293,139 274.0228873239437,146 " fill="none" stroke="#000000" style="stroke-width: 2px; stroke-dasharray: 1px, 6px; stroke-linecap: round; stroke-linejoin: round;"></polyline></g><polyline points="293,139 274.0228873239437,146 " fill="none" stroke="#ffffff" style="stroke-opacity: 0; stroke-width: 15px;" class="djs-hit"></polyline></g></g><g class="djs-group" xmlns="http://www.w3.org/2000/svg"><g data-element-id="sid-BC2439FA-B8F5-4ED6-B5BA-CF57F99FA435" class="djs-element djs-connection" style="display: block;"><rect fill="none" class="djs-outline" x="508" y="89" width="12" height="36"></rect><g class="djs-visual"><polyline points="514,95 514,119 " fill="none" stroke="#000000" style="stroke-width: 2px; stroke-dasharray: 1px, 6px; stroke-linecap: round; stroke-linejoin: round;"></polyline></g><polyline points="514,95 514,119 " fill="none" stroke="#ffffff" style="stroke-opacity: 0; stroke-width: 15px;" class="djs-hit"></polyline></g></g><g class="djs-group" xmlns="http://www.w3.org/2000/svg"><g data-element-id="sid-62F4C2FE-901D-44BB-83F4-3A606EACD2EA" class="djs-element djs-connection" style="display: block;"><rect fill="none" class="djs-outline" x="506" y="236" width="19" height="40"></rect><g class="djs-visual"><polyline points="519,242 512,270 " fill="none" stroke="#000000" style="stroke-width: 2px; stroke-dasharray: 1px, 6px; stroke-linecap: round; stroke-linejoin: round;"></polyline></g><polyline points="519,242 512,270 " fill="none" stroke="#ffffff" style="stroke-opacity: 0; stroke-width: 15px;" class="djs-hit"></polyline></g></g><g class="djs-group" xmlns="http://www.w3.org/2000/svg"><g data-element-id="sid-37413548-ADAD-45C5-9306-650FE331BC24" class="djs-element djs-connection" style="display: block;"><rect fill="none" class="djs-outline" x="711.9789888378201" y="154" width="15.021011162179889" height="46.5"></rect><g class="djs-visual"><polyline points="721,160 717.9789888378201,194.5 " fill="none" stroke="#000000" style="stroke-width: 2px; stroke-dasharray: 1px, 6px; stroke-linecap: round; stroke-linejoin: round;"></polyline></g><polyline points="721,160 717.9789888378201,194.5 " fill="none" stroke="#ffffff" style="stroke-opacity: 0; stroke-width: 15px;" class="djs-hit"></polyline></g></g></svg>