<?xml version="1.0" encoding="utf-8"?>
<!-- created with bpmn-js / http://bpmn.io -->
<!DOCTYPE svg PUBLIC "-//W3C//DTD SVG 1.1//EN" "http://www.w3.org/Graphics/SVG/1.1/DTD/svg11.dtd">
<svg xmlns="http://www.w3.org/2000/svg" xmlns:xlink="http://www.w3.org/1999/xlink" width="1000" height="368" viewBox="90 49 1000 368" version="1.1"><defs><marker viewBox="0 0 20 20" markerWidth="10" markerHeight="10" orient="auto" refX="11" refY="10" id="markerSie0yr5c24"><path d="M 1 5 L 11 10 L 1 15 Z" fill="#000000" style="stroke-width: 1px; stroke-linecap: round; stroke-dasharray: 10000px, 1px;"/></marker><marker viewBox="0 0 20 20" markerWidth="20" markerHeight="20" orient="auto" refX="6" refY="6" id="markerSie0yr5c26"><circle cx="6" cy="6" r="3.5" style="stroke-width: 1px; stroke-linecap: round; stroke-dasharray: 10000px, 1px;" fill="#ffffff" stroke="#000000"/></marker><marker viewBox="0 0 20 20" markerWidth="20" markerHeight="20" orient="auto" refX="8.5" refY="5" id="markerSie0yr5c28"><path d="m 1 5 l 0 -3 l 7 3 l -7 3 z" fill="#ffffff" stroke="#000000" style="stroke-width: 1px; stroke-linecap: butt; stroke-dasharray: 10000px, 1px;"/></marker><marker viewBox="0 0 20 20" markerWidth="10" markerHeight="10" orient="auto" refX="11" refY="10" id="markerSie0yr5c2a"><path d="M 1 5 L 11 10 L 1 15" fill="#ffffff" stroke="#000000" style="stroke-width: 1px; stroke-linecap: round; stroke-dasharray: 10000px, 1px;"/></marker><marker viewBox="0 0 20 20" markerWidth="10" markerHeight="10" orient="auto" refX="-1" refY="10" id="markerSie0yr5c2c"><path d="M 0 10 L 8 6 L 16 10 L 8 14 Z" fill="#ffffff" stroke="#000000" style="stroke-width: 1px; stroke-linecap: round; stroke-dasharray: 10000px, 1px;"/></marker><marker viewBox="0 0 20 20" markerWidth="10" markerHeight="10" orient="auto" refX="-5" refY="10" id="markerSie0yr5c2e"><path d="M 1 4 L 5 16" fill="#000000" stroke="#000000" style="stroke-width: 1px; stroke-linecap: round; stroke-dasharray: 10000px, 1px;"/></marker></defs><g class="djs-group" xmlns="http://www.w3.org/2000/svg"><g data-element-id="Participant_0yxylks" class="djs-element djs-shape hover" transform="matrix(1,0,0,1,96,55)" style="display: block;"><rect fill="none" class="djs-outline" x="-6" y="-6" width="1000" height="368"></rect><g class="djs-visual"><rect x="0" y="0" width="988" height="356" rx="0" ry="0" stroke="#000000" style="stroke-width: 2px;" fill="#ffffff"></rect><polyline points="30,0 30,356 " fill="none" stroke="#000000" style="stroke-width: 2px;"></polyline><text class=" djs-label" transform="matrix(0,-1,1,0,0,356)" style="font-family: Arial, sans-serif; font-size: 12px;"><tspan x="158.90625" y="18.4140625">Hungry</tspan></text></g><rect x="0" y="0" width="988" height="356" fill="none" stroke="#ffffff" style="stroke-opacity: 0; stroke-width: 15px;" class="djs-hit"></rect></g><g class="djs-children"><g class="djs-group"><g data-element-id="sid-D0BED8B1-BB93-411E-8E26-49C51C4AAF75" transform="matrix(1,0,0,1,146,100)" class="djs-element djs-shape" style="display: block;"><rect fill="none" class="djs-outline" x="-6" y="-6" width="42" height="42"></rect><g class="djs-visual"><circle cx="15" cy="15" r="15" stroke="#000000" fill="#ffffff" style="stroke-width: 2px;"></circle></g><rect x="0" y="0" width="30" height="30" fill="none" stroke="#ffffff" style="stroke-opacity: 0; stroke-width: 15px;" class="djs-hit"></rect></g></g><g class="djs-group"><g data-element-id="sid-D0BED8B1-BB93-411E-8E26-49C51C4AAF75_label" class="djs-element djs-shape" transform="matrix(1,0,0,1,116,132)" style="display: block;"><rect fill="none" class="djs-outline" x="-6" y="-6" width="102" height="34"></rect><g class="djs-visual"><text class=" djs-label" style="font-family: Arial, sans-serif; font-size: 11px;"><tspan x="27.265625" y="12.734375">hunger</tspan><tspan x="27.5" y="24.734375">noticed</tspan></text></g><rect x="0" y="0" width="90" height="22" fill="none" stroke="#ffffff" style="stroke-opacity: 0; stroke-width: 15px;" class="djs-hit"></rect></g></g><g class="djs-group"><g data-element-id="sid-433EEF5E-4740-4E48-9503-61C492767C56" transform="matrix(1,0,0,1,506,95)" class="djs-element djs-shape" style="display: block;"><rect fill="none" class="djs-outline" x="-6" y="-6" width="52" height="52"></rect><g class="djs-visual"><polygon points="20,0,40,20,20,40,0,20" stroke="#000000" fill="#ffffff" style="stroke-width: 2px;"></polygon><path d="m 12.8,12 5.942857142857143,7.771428571428571 -5.942857142857143,7.771428571428571 2.742857142857143,0 4.571428571428571,-5.971382857142857 4.571428571428571,5.971382857142857 2.742857142857143,0 -5.942857142857143,-7.771428571428571 5.942857142857143,-7.771428571428571 -2.742857142857143,0 -4.571428571428571,5.971382857142857 -4.571428571428571,-5.971382857142857 -2.742857142857143,0 z" fill="#000000" stroke="#000000" style="stroke-width: 1px;"></path></g><rect x="0" y="0" width="40" height="40" fill="none" stroke="#ffffff" style="stroke-opacity: 0; stroke-width: 15px;" class="djs-hit"></rect></g></g><g class="djs-group"><g data-element-id="sid-433EEF5E-4740-4E48-9503-61C492767C56_label" class="djs-element djs-shape" transform="matrix(1,0,0,1,482,63)" style="display: block;"><rect fill="none" class="djs-outline" x="-6" y="-6" width="102" height="36"></rect><g class="djs-visual"><text class=" djs-label" style="font-family: Arial, sans-serif; font-size: 11px;"><tspan x="26.359375" y="12.734375">desired </tspan><tspan x="32" y="24.734375">dish?</tspan></text></g><rect x="0" y="0" width="90" height="24" fill="none" stroke="#ffffff" style="stroke-opacity: 0; stroke-width: 15px;" class="djs-hit"></rect></g></g><g class="djs-group"><g data-element-id="sid-47D7385A-388F-40C4-892E-F814C0659C54" transform="matrix(1,0,0,1,760,95)" class="djs-element djs-shape" style="display: block;"><rect fill="none" class="djs-outline" x="-6" y="-6" width="52" height="52"></rect><g class="djs-visual"><polygon points="20,0,40,20,20,40,0,20" stroke="#000000" fill="#ffffff" style="stroke-width: 2px;"></polygon><path d="m 12.8,12 5.942857142857143,7.771428571428571 -5.942857142857143,7.771428571428571 2.742857142857143,0 4.571428571428571,-5.971382857142857 4.571428571428571,5.971382857142857 2.742857142857143,0 -5.942857142857143,-7.771428571428571 5.942857142857143,-7.771428571428571 -2.742857142857143,0 -4.571428571428571,5.971382857142857 -4.571428571428571,-5.971382857142857 -2.742857142857143,0 z" fill="#000000" stroke="#000000" style="stroke-width: 1px;"></path></g><rect x="0" y="0" width="40" height="40" fill="none" stroke="#ffffff" style="stroke-opacity: 0; stroke-width: 15px;" class="djs-hit"></rect></g></g><g class="djs-group"><g data-element-id="sid-47D7385A-388F-40C4-892E-F814C0659C54_label" class="djs-element djs-shape" transform="matrix(1,0,0,1,735,135)" style="display: none;"><rect fill="none" class="djs-outline" x="-6" y="-6" width="102" height="32"></rect><g class="djs-visual"><text class=" djs-label" style="font-family: Arial, sans-serif; font-size: 11px;"><tspan x="45" y="0"></tspan></text></g><rect x="0" y="0" width="90" height="20" fill="none" stroke="#ffffff" style="stroke-opacity: 0; stroke-width: 15px;" class="djs-hit"></rect></g></g><g class="djs-group"><g data-element-id="sid-283C754D-1AA2-4EC9-982F-382C51F2C9B9" transform="matrix(1,0,0,1,959,101)" class="djs-element djs-shape selected" style="display: block;"><rect fill="none" class="djs-outline" x="-6" y="-6" width="40" height="40"></rect><g class="djs-visual"><circle cx="14" cy="14" r="14" stroke="#000000" fill="#ffffff" style="stroke-width: 4px;"></circle></g><rect x="0" y="0" width="28" height="28" fill="none" stroke="#ffffff" style="stroke-opacity: 0; stroke-width: 15px;" class="djs-hit"></rect></g></g><g class="djs-group"><g data-element-id="sid-283C754D-1AA2-4EC9-982F-382C51F2C9B9_label" class="djs-element djs-shape" transform="matrix(1,0,0,1,928,129)" style="display: none;"><rect fill="none" class="djs-outline" x="-6" y="-6" width="102" height="32"></rect><g class="djs-visual"><text class=" djs-label" style="font-family: Arial, sans-serif; font-size: 11px;"><tspan x="45" y="0"></tspan></text></g><rect x="0" y="0" width="90" height="20" fill="none" stroke="#ffffff" style="stroke-opacity: 0; stroke-width: 15px;" class="djs-hit"></rect></g></g><g class="djs-group"><g data-element-id="sid-BF48915E-9493-4461-A096-7B52E6FD0B70" class="djs-element djs-shape" transform="matrix(1,0,0,1,923,192)" style="display: block;"><rect fill="none" class="djs-outline" x="-6" y="-6" width="112" height="43"></rect><g class="djs-visual"><rect x="0" y="0" width="100" height="31" rx="0" ry="0" stroke="none" fill="none" style="stroke-width: 2px;"></rect><path d="m 0, 0 m 10,0 l -10,0 l 0,31.000000000000004 l 10,0" fill="none" stroke="#000000" style="stroke-width: 2px;"></path><text class=" djs-label" style="font-family: Arial, sans-serif; font-size: 12px;"><tspan x="5" y="18.9140625">20 minutes</tspan></text></g><rect x="0" y="0" width="100" height="31" fill="none" stroke="#ffffff" style="stroke-opacity: 0; stroke-width: 15px;" class="djs-hit"></rect></g></g><g class="djs-group"><g data-element-id="sid-4E820B8B-41A4-47BC-B9BA-F007E2D485A4" class="djs-element djs-shape" transform="matrix(1,0,0,1,366,192)" style="display: block;"><rect fill="none" class="djs-outline" x="-6" y="-6" width="112" height="43"></rect><g class="djs-visual"><rect x="0" y="0" width="100" height="31" rx="0" ry="0" stroke="none" fill="none" style="stroke-width: 2px;"></rect><path d="m 0, 0 m 10,0 l -10,0 l 0,31.000000000000004 l 10,0" fill="none" stroke="#000000" style="stroke-width: 2px;"></path><text class=" djs-label" style="font-family: Arial, sans-serif; font-size: 12px;"><tspan x="5" y="18.9140625">10 minutes</tspan></text></g><rect x="0" y="0" width="100" height="31" fill="none" stroke="#ffffff" style="stroke-opacity: 0; stroke-width: 15px;" class="djs-hit"></rect></g></g><g class="djs-group"><g data-element-id="sid-CFD63D17-AEF8-441B-B612-A50DBA801760" class="djs-element djs-shape" transform="matrix(1,0,0,1,661,360)" style="display: block;"><rect fill="none" class="djs-outline" x="-6" y="-6" width="112" height="43"></rect><g class="djs-visual"><rect x="0" y="0" width="100" height="31" rx="0" ry="0" stroke="none" fill="none" style="stroke-width: 2px;"></rect><path d="m 0, 0 m 10,0 l -10,0 l 0,31.000000000000004 l 10,0" fill="none" stroke="#000000" style="stroke-width: 2px;"></path><text class=" djs-label" style="font-family: Arial, sans-serif; font-size: 12px;"><tspan x="5" y="18.9140625">10 minutes</tspan></text></g><rect x="0" y="0" width="100" height="31" fill="none" stroke="#ffffff" style="stroke-opacity: 0; stroke-width: 15px;" class="djs-hit"></rect></g></g><g class="djs-group"><g data-element-id="sid-A6E3D7E7-B739-4B08-993E-B5CB5F61C69F" class="djs-element djs-shape" transform="matrix(1,0,0,1,226,192)" style="display: block;"><rect fill="none" class="djs-outline" x="-6" y="-6" width="112" height="43"></rect><g class="djs-visual"><rect x="0" y="0" width="100" height="31" rx="0" ry="0" stroke="none" fill="none" style="stroke-width: 2px;"></rect><path d="m 0, 0 m 10,0 l -10,0 l 0,31.000000000000004 l 10,0" fill="none" stroke="#000000" style="stroke-width: 2px;"></path><text class=" djs-label" style="font-family: Arial, sans-serif; font-size: 12px;"><tspan x="5" y="18.9140625">3 minutes</tspan></text></g><rect x="0" y="0" width="100" height="31" fill="none" stroke="#ffffff" style="stroke-opacity: 0; stroke-width: 15px;" class="djs-hit"></rect></g></g><g class="djs-group"><g data-element-id="sid-158140B4-D103-4652-A69B-F15B8A689F9A" class="djs-element djs-shape" transform="matrix(1,0,0,1,670,192)" style="display: block;"><rect fill="none" class="djs-outline" x="-6" y="-6" width="112" height="43"></rect><g class="djs-visual"><rect x="0" y="0" width="100" height="31" rx="0" ry="0" stroke="none" fill="none" style="stroke-width: 2px;"></rect><path d="m 0, 0 m 10,0 l -10,0 l 0,31.000000000000004 l 10,0" fill="none" stroke="#000000" style="stroke-width: 2px;"></path><text class=" djs-label" style="font-family: Arial, sans-serif; font-size: 12px;"><tspan x="5" y="18.9140625">15 minutes</tspan></text></g><rect x="0" y="0" width="100" height="31" fill="none" stroke="#ffffff" style="stroke-opacity: 0; stroke-width: 15px;" class="djs-hit"></rect></g></g><g class="djs-group"><g data-element-id="sid-FFF01EF7-1FEC-4B83-986C-018858D97835" class="djs-element djs-connection" style="display: block;"><rect fill="none" class="djs-outline" x="170" y="109" width="57" height="12"></rect><g class="djs-visual"><path d="m  176,115L221,115 " fill="none" stroke="#000000" style="stroke-width: 2px; stroke-linejoin: round; marker-end: url(#markerSie0yr5c24);"></path></g><polyline points="176,115 221,115 " fill="none" stroke="#ffffff" style="stroke-opacity: 0; stroke-width: 15px;" class="djs-hit"></polyline></g></g><g class="djs-group"><g data-element-id="sid-FFF01EF7-1FEC-4B83-986C-018858D97835_label" class="djs-element djs-shape" transform="matrix(1,0,0,1,154,105)" style="display: none;"><rect fill="none" class="djs-outline" x="-6" y="-6" width="102" height="32"></rect><g class="djs-visual"><text class=" djs-label" style="font-family: Arial, sans-serif; font-size: 11px;"><tspan x="45" y="0"></tspan></text></g><rect x="0" y="0" width="90" height="20" fill="none" stroke="#ffffff" style="stroke-opacity: 0; stroke-width: 15px;" class="djs-hit"></rect></g></g><g class="djs-group"><g data-element-id="sid-5244058D-4A1C-49C7-A975-3D2AF4BFAFE0" class="djs-element djs-connection" style="display: block;"><rect fill="none" class="djs-outline" x="315" y="109" width="57" height="12"></rect><g class="djs-visual"><path d="m  321,115L366,115 " fill="none" stroke="#000000" style="stroke-width: 2px; stroke-linejoin: round; marker-end: url(#markerSie0yr5c24);"></path></g><polyline points="321,115 366,115 " fill="none" stroke="#ffffff" style="stroke-opacity: 0; stroke-width: 15px;" class="djs-hit"></polyline></g></g><g class="djs-group"><g data-element-id="sid-5244058D-4A1C-49C7-A975-3D2AF4BFAFE0_label" class="djs-element djs-shape" transform="matrix(1,0,0,1,299,105)" style="display: none;"><rect fill="none" class="djs-outline" x="-6" y="-6" width="102" height="32"></rect><g class="djs-visual"><text class=" djs-label" style="font-family: Arial, sans-serif; font-size: 11px;"><tspan x="45" y="0"></tspan></text></g><rect x="0" y="0" width="90" height="20" fill="none" stroke="#ffffff" style="stroke-opacity: 0; stroke-width: 15px;" class="djs-hit"></rect></g></g><g class="djs-group"><g data-element-id="sid-1CA5065E-3A33-4024-93CF-B7148AD79095" class="djs-element djs-connection" style="display: block;"><rect fill="none" class="djs-outline" x="460" y="109" width="52" height="12.40723981900453"></rect><g class="djs-visual"><path d="m  466,115L506,115.40723981900453 " fill="none" stroke="#000000" style="stroke-width: 2px; stroke-linejoin: round; marker-end: url(#markerSie0yr5c24);"></path></g><polyline points="466,115 506,115.40723981900453 " fill="none" stroke="#ffffff" style="stroke-opacity: 0; stroke-width: 15px;" class="djs-hit"></polyline></g></g><g class="djs-group"><g data-element-id="sid-1CA5065E-3A33-4024-93CF-B7148AD79095_label" class="djs-element djs-shape" transform="matrix(1,0,0,1,441,105)" style="display: none;"><rect fill="none" class="djs-outline" x="-6" y="-6" width="102" height="32"></rect><g class="djs-visual"><text class=" djs-label" style="font-family: Arial, sans-serif; font-size: 11px;"><tspan x="45" y="0"></tspan></text></g><rect x="0" y="0" width="90" height="20" fill="none" stroke="#ffffff" style="stroke-opacity: 0; stroke-width: 15px;" class="djs-hit"></rect></g></g><g class="djs-group"><g data-element-id="sid-E943A666-80E2-4D38-9AEF-ACD1EFE0D128_label" class="djs-element djs-shape" transform="matrix(1,0,0,1,526,95)" style="display: block;"><rect fill="none" class="djs-outline" x="-6" y="-6" width="102" height="24"></rect><g class="djs-visual"><text class=" djs-label" style="font-family: Arial, sans-serif; font-size: 11px;"><tspan x="31.359375" y="12.734375">pasta</tspan></text></g><rect x="0" y="0" width="90" height="12" fill="none" stroke="#ffffff" style="stroke-opacity: 0; stroke-width: 15px;" class="djs-hit"></rect></g></g><g class="djs-group"><g data-element-id="sid-4C1A6A53-32E3-46D3-BECE-5B3555133586_label" class="djs-element djs-shape" transform="matrix(1,0,0,1,506,173)" style="display: block;"><rect fill="none" class="djs-outline" x="-6" y="-6" width="102" height="24"></rect><g class="djs-visual"><text class=" djs-label" style="font-family: Arial, sans-serif; font-size: 11px;"><tspan x="31.8125" y="12.734375">steak</tspan></text></g><rect x="0" y="0" width="90" height="12" fill="none" stroke="#ffffff" style="stroke-opacity: 0; stroke-width: 15px;" class="djs-hit"></rect></g></g><g class="djs-group"><g data-element-id="sid-E02C3FCE-3C11-4C6B-AFC0-674C5A8B69AF_label" class="djs-element djs-shape" transform="matrix(1,0,0,1,734,105)" style="display: none;"><rect fill="none" class="djs-outline" x="-6" y="-6" width="102" height="32"></rect><g class="djs-visual"><text class=" djs-label" style="font-family: Arial, sans-serif; font-size: 11px;"><tspan x="45" y="0"></tspan></text></g><rect x="0" y="0" width="90" height="20" fill="none" stroke="#ffffff" style="stroke-opacity: 0; stroke-width: 15px;" class="djs-hit"></rect></g></g><g class="djs-group"><g data-element-id="sid-F031AA0F-ABDF-4866-A905-7EF8FF7A899B_label" class="djs-element djs-shape" transform="matrix(1,0,0,1,744,270)" style="display: none;"><rect fill="none" class="djs-outline" x="-6" y="-6" width="102" height="32"></rect><g class="djs-visual"><text class=" djs-label" style="font-family: Arial, sans-serif; font-size: 11px;"><tspan x="45" y="0"></tspan></text></g><rect x="0" y="0" width="90" height="20" fill="none" stroke="#ffffff" style="stroke-opacity: 0; stroke-width: 15px;" class="djs-hit"></rect></g></g><g class="djs-group"><g data-element-id="sid-1BF06A5D-6B3D-4808-B358-69C1E08B1C42_label" class="djs-element djs-shape" transform="matrix(1,0,0,1,824,105)" style="display: none;"><rect fill="none" class="djs-outline" x="-6" y="-6" width="102" height="32"></rect><g class="djs-visual"><text class=" djs-label" style="font-family: Arial, sans-serif; font-size: 11px;"><tspan x="45" y="0"></tspan></text></g><rect x="0" y="0" width="90" height="20" fill="none" stroke="#ffffff" style="stroke-opacity: 0; stroke-width: 15px;" class="djs-hit"></rect></g></g><g class="djs-group"><g data-element-id="sid-A183C0F7-53E8-4A53-B0C1-C626A5459AB5_label" class="djs-element djs-shape" transform="matrix(1,0,0,1,969,105)" style="display: none;"><rect fill="none" class="djs-outline" x="-6" y="-6" width="102" height="32"></rect><g class="djs-visual"><text class=" djs-label" style="font-family: Arial, sans-serif; font-size: 11px;"><tspan x="45" y="0"></tspan></text></g><rect x="0" y="0" width="90" height="20" fill="none" stroke="#ffffff" style="stroke-opacity: 0; stroke-width: 15px;" class="djs-hit"></rect></g></g><g class="djs-group"><g data-element-id="sid-F04D4AF9-B37A-4489-9121-EA6E2398D277" class="djs-element djs-connection" style="display: block;"><rect fill="none" class="djs-outline" x="228.16480630334866" y="149" width="29.835193696651345" height="48.5"></rect><g class="djs-visual"><polyline points="252,155 234.16480630334866,191.5 " fill="none" stroke="#000000" style="stroke-width: 2px; stroke-dasharray: 1px, 6px; stroke-linecap: round; stroke-linejoin: round;"></polyline></g><polyline points="252,155 234.16480630334866,191.5 " fill="none" stroke="#ffffff" style="stroke-opacity: 0; stroke-width: 15px;" class="djs-hit"></polyline></g></g><g class="djs-group"><g data-element-id="sid-18F7ACF2-1B3D-4E25-B7EF-B5080D0E25A4" class="djs-element djs-connection" style="display: block;"><rect fill="none" class="djs-outline" x="369" y="149" width="31" height="49"></rect><g class="djs-visual"><polyline points="394,155 375,192 " fill="none" stroke="#000000" style="stroke-width: 2px; stroke-dasharray: 1px, 6px; stroke-linecap: round; stroke-linejoin: round;"></polyline></g><polyline points="394,155 375,192 " fill="none" stroke="#ffffff" style="stroke-opacity: 0; stroke-width: 15px;" class="djs-hit"></polyline></g></g><g class="djs-group"><g data-element-id="UserTask_1a8i191" class="djs-element djs-shape" transform="matrix(1,0,0,1,221,75)" style="display: block;"><rect fill="none" class="djs-outline" x="-6" y="-6" width="112" height="92"></rect><g class="djs-visual"><rect x="0" y="0" width="100" height="80" rx="10" ry="10" stroke="#000000" fill="#ffffff" style="stroke-width: 2px;"></rect><text class=" djs-label" style="font-family: Arial, sans-serif; font-size: 12px;"><tspan x="13.1796875" y="43.4140625">choose recipe</tspan></text><path d="m 15,12 c 0.909,-0.845 1.594,-2.049 1.594,-3.385 0,-2.554 -1.805,-4.62199999 -4.357,-4.62199999 -2.55199998,0 -4.28799998,2.06799999 -4.28799998,4.62199999 0,1.348 0.974,2.562 1.89599998,3.405 -0.52899998,0.187 -5.669,2.097 -5.794,4.7560005 v 6.718 h 17 v -6.718 c 0,-2.2980005 -5.5279996,-4.5950005 -6.0509996,-4.7760005 zm -8,6 l 0,5.5 m 11,0 l 0,-5" fill="none" stroke="#000000" style="stroke-width: 0.5px;"></path><path d="m 15,12 m 2.162,1.009 c 0,2.4470005 -2.158,4.4310005 -4.821,4.4310005 -2.66499998,0 -4.822,-1.981 -4.822,-4.4310005 " fill="none" stroke="#000000" style="stroke-width: 0.5px;"></path><path d="m 15,12 m -6.9,-3.80 c 0,0 2.25099998,-2.358 4.27399998,-1.177 2.024,1.181 4.221,1.537 4.124,0.965 -0.098,-0.57 -0.117,-3.79099999 -4.191,-4.13599999 -3.57499998,0.001 -4.20799998,3.36699999 -4.20699998,4.34799999 z" fill="#000000" stroke="#000000" style="stroke-width: 0.5px;"></path></g><rect x="0" y="0" width="100" height="80" fill="none" stroke="#ffffff" style="stroke-opacity: 0; stroke-width: 15px;" class="djs-hit"></rect></g></g><g class="djs-group"><g data-element-id="UserTask_1llznb6" class="djs-element djs-shape" transform="matrix(1,0,0,1,366,75)" style="display: block;"><rect fill="none" class="djs-outline" x="-6" y="-6" width="112" height="92"></rect><g class="djs-visual"><rect x="0" y="0" width="100" height="80" rx="10" ry="10" stroke="#000000" fill="#ffffff" style="stroke-width: 2px;"></rect><text class=" djs-label" style="font-family: Arial, sans-serif; font-size: 12px;"><tspan x="14.5390625" y="43.4140625">prepare salad</tspan></text><path d="m 15,12 c 0.909,-0.845 1.594,-2.049 1.594,-3.385 0,-2.554 -1.805,-4.62199999 -4.357,-4.62199999 -2.55199998,0 -4.28799998,2.06799999 -4.28799998,4.62199999 0,1.348 0.974,2.562 1.89599998,3.405 -0.52899998,0.187 -5.669,2.097 -5.794,4.7560005 v 6.718 h 17 v -6.718 c 0,-2.2980005 -5.5279996,-4.5950005 -6.0509996,-4.7760005 zm -8,6 l 0,5.5 m 11,0 l 0,-5" fill="none" stroke="#000000" style="stroke-width: 0.5px;"></path><path d="m 15,12 m 2.162,1.009 c 0,2.4470005 -2.158,4.4310005 -4.821,4.4310005 -2.66499998,0 -4.822,-1.981 -4.822,-4.4310005 " fill="none" stroke="#000000" style="stroke-width: 0.5px;"></path><path d="m 15,12 m -6.9,-3.80 c 0,0 2.25099998,-2.358 4.27399998,-1.177 2.024,1.181 4.221,1.537 4.124,0.965 -0.098,-0.57 -0.117,-3.79099999 -4.191,-4.13599999 -3.57499998,0.001 -4.20799998,3.36699999 -4.20699998,4.34799999 z" fill="#000000" stroke="#000000" style="stroke-width: 0.5px;"></path></g><rect x="0" y="0" width="100" height="80" fill="none" stroke="#ffffff" style="stroke-opacity: 0; stroke-width: 15px;" class="djs-hit"></rect></g></g><g class="djs-group"><g data-element-id="UserTask_07iqy0c" class="djs-element djs-shape" transform="matrix(1,0,0,1,608,75)" style="display: block;"><rect fill="none" class="djs-outline" x="-6" y="-6" width="112" height="92"></rect><g class="djs-visual"><rect x="0" y="0" width="100" height="80" rx="10" ry="10" stroke="#000000" fill="#ffffff" style="stroke-width: 2px;"></rect><text class=" djs-label" style="font-family: Arial, sans-serif; font-size: 12px;"><tspan x="20.90625" y="43.4140625">cook pasta</tspan></text><path d="m 15,12 c 0.909,-0.845 1.594,-2.049 1.594,-3.385 0,-2.554 -1.805,-4.62199999 -4.357,-4.62199999 -2.55199998,0 -4.28799998,2.06799999 -4.28799998,4.62199999 0,1.348 0.974,2.562 1.89599998,3.405 -0.52899998,0.187 -5.669,2.097 -5.794,4.7560005 v 6.718 h 17 v -6.718 c 0,-2.2980005 -5.5279996,-4.5950005 -6.0509996,-4.7760005 zm -8,6 l 0,5.5 m 11,0 l 0,-5" fill="none" stroke="#000000" style="stroke-width: 0.5px;"></path><path d="m 15,12 m 2.162,1.009 c 0,2.4470005 -2.158,4.4310005 -4.821,4.4310005 -2.66499998,0 -4.822,-1.981 -4.822,-4.4310005 " fill="none" stroke="#000000" style="stroke-width: 0.5px;"></path><path d="m 15,12 m -6.9,-3.80 c 0,0 2.25099998,-2.358 4.27399998,-1.177 2.024,1.181 4.221,1.537 4.124,0.965 -0.098,-0.57 -0.117,-3.79099999 -4.191,-4.13599999 -3.57499998,0.001 -4.20799998,3.36699999 -4.20699998,4.34799999 z" fill="#000000" stroke="#000000" style="stroke-width: 0.5px;"></path></g><rect x="0" y="0" width="100" height="80" fill="none" stroke="#ffffff" style="stroke-opacity: 0; stroke-width: 15px;" class="djs-hit"></rect></g></g><g class="djs-group"><g data-element-id="sid-BC2439FA-B8F5-4ED6-B5BA-CF57F99FA435" class="djs-element djs-connection" style="display: block;"><rect fill="none" class="djs-outline" x="631" y="149" width="54" height="49"></rect><g class="djs-visual"><polyline points="637,155 679,192 " fill="none" stroke="#000000" style="stroke-width: 2px; stroke-dasharray: 1px, 6px; stroke-linecap: round; stroke-linejoin: round;"></polyline></g><polyline points="637,155 679,192 " fill="none" stroke="#ffffff" style="stroke-opacity: 0; stroke-width: 15px;" class="djs-hit"></polyline></g></g><g class="djs-group"><g data-element-id="sid-E02C3FCE-3C11-4C6B-AFC0-674C5A8B69AF" class="djs-element djs-connection" style="display: block;"><rect fill="none" class="djs-outline" x="702" y="109" width="64" height="12.418326693227101"></rect><g class="djs-visual"><path d="m  708,115L734,115.19920318725099 L734,115.4183266932271 L760,115.4183266932271 " fill="none" stroke="#000000" style="stroke-width: 2px; stroke-linejoin: round; marker-end: url(#markerSie0yr5c24);"></path></g><polyline points="708,115 734,115.19920318725099 734,115.4183266932271 760,115.4183266932271 " fill="none" stroke="#ffffff" style="stroke-opacity: 0; stroke-width: 15px;" class="djs-hit"></polyline></g></g><g class="djs-group"><g data-element-id="sid-E943A666-80E2-4D38-9AEF-ACD1EFE0D128" class="djs-element djs-connection" style="display: block;"><rect fill="none" class="djs-outline" x="540" y="109.14326647564471" width="74" height="12.300859598853862"></rect><g class="djs-visual"><path d="m  546,115.44412607449857L577,115.44412607449857 L577,115.14326647564471 L608,115.14326647564471 " fill="none" stroke="#000000" style="stroke-width: 2px; stroke-linejoin: round; marker-end: url(#markerSie0yr5c24);"></path></g><polyline points="546,115.44412607449857 577,115.44412607449857 577,115.14326647564471 608,115.14326647564471 " fill="none" stroke="#ffffff" style="stroke-opacity: 0; stroke-width: 15px;" class="djs-hit"></polyline></g></g><g class="djs-group"><g data-element-id="UserTask_0imlyu7" class="djs-element djs-shape" transform="matrix(1,0,0,1,826,75)" style="display: block;"><rect fill="none" class="djs-outline" x="-6" y="-6" width="112" height="92"></rect><g class="djs-visual"><rect x="0" y="0" width="100" height="80" rx="10" ry="10" stroke="#000000" fill="#ffffff" style="stroke-width: 2px;"></rect><text class=" djs-label" style="font-family: Arial, sans-serif; font-size: 12px;"><tspan x="27.265625" y="43.4140625">eat meal</tspan></text><path d="m 15,12 c 0.909,-0.845 1.594,-2.049 1.594,-3.385 0,-2.554 -1.805,-4.62199999 -4.357,-4.62199999 -2.55199998,0 -4.28799998,2.06799999 -4.28799998,4.62199999 0,1.348 0.974,2.562 1.89599998,3.405 -0.52899998,0.187 -5.669,2.097 -5.794,4.7560005 v 6.718 h 17 v -6.718 c 0,-2.2980005 -5.5279996,-4.5950005 -6.0509996,-4.7760005 zm -8,6 l 0,5.5 m 11,0 l 0,-5" fill="none" stroke="#000000" style="stroke-width: 0.5px;"></path><path d="m 15,12 m 2.162,1.009 c 0,2.4470005 -2.158,4.4310005 -4.821,4.4310005 -2.66499998,0 -4.822,-1.981 -4.822,-4.4310005 " fill="none" stroke="#000000" style="stroke-width: 0.5px;"></path><path d="m 15,12 m -6.9,-3.80 c 0,0 2.25099998,-2.358 4.27399998,-1.177 2.024,1.181 4.221,1.537 4.124,0.965 -0.098,-0.57 -0.117,-3.79099999 -4.191,-4.13599999 -3.57499998,0.001 -4.20799998,3.36699999 -4.20699998,4.34799999 z" fill="#000000" stroke="#000000" style="stroke-width: 0.5px;"></path></g><rect x="0" y="0" width="100" height="80" fill="none" stroke="#ffffff" style="stroke-opacity: 0; stroke-width: 15px;" class="djs-hit"></rect></g></g><g class="djs-group"><g data-element-id="sid-37413548-ADAD-45C5-9306-650FE331BC24" class="djs-element djs-connection" style="display: block;"><rect fill="none" class="djs-outline" x="849" y="149" width="88.97898883782011" height="48.5"></rect><g class="djs-visual"><polyline points="855,155 931.9789888378201,191.5 " fill="none" stroke="#000000" style="stroke-width: 2px; stroke-dasharray: 1px, 6px; stroke-linecap: round; stroke-linejoin: round;"></polyline></g><polyline points="855,155 931.9789888378201,191.5 " fill="none" stroke="#ffffff" style="stroke-opacity: 0; stroke-width: 15px;" class="djs-hit"></polyline></g></g><g class="djs-group"><g data-element-id="sid-A183C0F7-53E8-4A53-B0C1-C626A5459AB5" class="djs-element djs-connection" style="display: block;"><rect fill="none" class="djs-outline" x="920" y="109" width="45" height="12"></rect><g class="djs-visual"><path d="m  926,115L959,115 " fill="none" stroke="#000000" style="stroke-width: 2px; stroke-linejoin: round; marker-end: url(#markerSie0yr5c24);"></path></g><polyline points="926,115 959,115 " fill="none" stroke="#ffffff" style="stroke-opacity: 0; stroke-width: 15px;" class="djs-hit"></polyline></g></g><g class="djs-group"><g data-element-id="sid-1BF06A5D-6B3D-4808-B358-69C1E08B1C42" class="djs-element djs-connection" style="display: block;"><rect fill="none" class="djs-outline" x="794" y="109" width="38" height="12.414847161572055"></rect><g class="djs-visual"><path d="m  800,115.41484716157206L813,115.41484716157206 L813,115.21834061135371 L826,115 " fill="none" stroke="#000000" style="stroke-width: 2px; stroke-linejoin: round; marker-end: url(#markerSie0yr5c24);"></path></g><polyline points="800,115.41484716157206 813,115.41484716157206 813,115.21834061135371 826,115 " fill="none" stroke="#ffffff" style="stroke-opacity: 0; stroke-width: 15px;" class="djs-hit"></polyline></g></g><g class="djs-group"><g data-element-id="UserTask_1i66bqg" class="djs-element djs-shape" transform="matrix(1,0,0,1,622,242)" style="display: block;"><rect fill="none" class="djs-outline" x="-6" y="-6" width="112" height="92"></rect><g class="djs-visual"><rect x="0" y="0" width="100" height="80" rx="10" ry="10" stroke="#000000" fill="#ffffff" style="stroke-width: 2px;"></rect><text class=" djs-label" style="font-family: Arial, sans-serif; font-size: 12px;"><tspan x="20.90625" y="43.4140625">cook steak</tspan></text><path d="m 15,12 c 0.909,-0.845 1.594,-2.049 1.594,-3.385 0,-2.554 -1.805,-4.62199999 -4.357,-4.62199999 -2.55199998,0 -4.28799998,2.06799999 -4.28799998,4.62199999 0,1.348 0.974,2.562 1.89599998,3.405 -0.52899998,0.187 -5.669,2.097 -5.794,4.7560005 v 6.718 h 17 v -6.718 c 0,-2.2980005 -5.5279996,-4.5950005 -6.0509996,-4.7760005 zm -8,6 l 0,5.5 m 11,0 l 0,-5" fill="none" stroke="#000000" style="stroke-width: 0.5px;"></path><path d="m 15,12 m 2.162,1.009 c 0,2.4470005 -2.158,4.4310005 -4.821,4.4310005 -2.66499998,0 -4.822,-1.981 -4.822,-4.4310005 " fill="none" stroke="#000000" style="stroke-width: 0.5px;"></path><path d="m 15,12 m -6.9,-3.80 c 0,0 2.25099998,-2.358 4.27399998,-1.177 2.024,1.181 4.221,1.537 4.124,0.965 -0.098,-0.57 -0.117,-3.79099999 -4.191,-4.13599999 -3.57499998,0.001 -4.20799998,3.36699999 -4.20699998,4.34799999 z" fill="#000000" stroke="#000000" style="stroke-width: 0.5px;"></path></g><rect x="0" y="0" width="100" height="80" fill="none" stroke="#ffffff" style="stroke-opacity: 0; stroke-width: 15px;" class="djs-hit"></rect></g></g><g class="djs-group"><g data-element-id="sid-62F4C2FE-901D-44BB-83F4-3A606EACD2EA" class="djs-element djs-connection" style="display: block;"><rect fill="none" class="djs-outline" x="650" y="316" width="24.116357504215898" height="50"></rect><g class="djs-visual"><polyline points="656,322 668.1163575042159,360 " fill="none" stroke="#000000" style="stroke-width: 2px; stroke-dasharray: 1px, 6px; stroke-linecap: round; stroke-linejoin: round;"></polyline></g><polyline points="656,322 668.1163575042159,360 " fill="none" stroke="#ffffff" style="stroke-opacity: 0; stroke-width: 15px;" class="djs-hit"></polyline></g></g><g class="djs-group"><g data-element-id="sid-F031AA0F-ABDF-4866-A905-7EF8FF7A899B" class="djs-element djs-connection" style="display: block;"><rect fill="none" class="djs-outline" x="716" y="129" width="70.5" height="159"></rect><g class="djs-visual"><path d="m  722,282L780.5,282 L780.5,135 " fill="none" stroke="#000000" style="stroke-width: 2px; stroke-linejoin: round; marker-end: url(#markerSie0yr5c24);"></path></g><polyline points="722,282 780.5,282 780.5,135 " fill="none" stroke="#ffffff" style="stroke-opacity: 0; stroke-width: 15px;" class="djs-hit"></polyline></g></g><g class="djs-group"><g data-element-id="sid-4C1A6A53-32E3-46D3-BECE-5B3555133586" class="djs-element djs-connection" style="display: block;"><rect fill="none" class="djs-outline" x="520.5" y="129" width="107.5" height="159"></rect><g class="djs-visual"><path d="m  526.5,135L526.5,282 L622,282 " fill="none" stroke="#000000" style="stroke-width: 2px; stroke-linejoin: round; marker-end: url(#markerSie0yr5c24);"></path></g><polyline points="526.5,135 526.5,282 622,282 " fill="none" stroke="#ffffff" style="stroke-opacity: 0; stroke-width: 15px;" class="djs-hit"></polyline></g></g></g></g></svg>