<?xml version="1.0" encoding="utf-8"?>
<!-- created with bpmn-js / http://bpmn.io -->
<!DOCTYPE svg PUBLIC "-//W3C//DTD SVG 1.1//EN" "http://www.w3.org/Graphics/SVG/1.1/DTD/svg11.dtd">
<svg xmlns="http://www.w3.org/2000/svg" xmlns:xlink="http://www.w3.org/1999/xlink" width="1000" height="368" viewBox="90 49 1000 368" version="1.1"><defs><marker viewBox="0 0 20 20" markerWidth="10" markerHeight="10" orient="auto" refX="11" refY="10" id="markerSich866ps4"><path d="M 1 5 L 11 10 L 1 15 Z" fill="#000000" style="stroke-width: 1px; stroke-linecap: round; stroke-dasharray: 10000px, 1px;"/></marker><marker viewBox="0 0 20 20" markerWidth="20" markerHeight="20" orient="auto" refX="6" refY="6" id="markerSich866ps6"><circle cx="6" cy="6" r="3.5" style="stroke-width: 1px; stroke-linecap: round; stroke-dasharray: 10000px, 1px;" fill="#ffffff" stroke="#000000"/></marker><marker viewBox="0 0 20 20" markerWidth="20" markerHeight="20" orient="auto" refX="8.5" refY="5" id="markerSich866ps8"><path d="m 1 5 l 0 -3 l 7 3 l -7 3 z" fill="#ffffff" stroke="#000000" style="stroke-width: 1px; stroke-linecap: butt; stroke-dasharray: 10000px, 1px;"/></marker><marker viewBox="0 0 20 20" markerWidth="10" markerHeight="10" orient="auto" refX="11" refY="10" id="markerSich866psa"><path d="M 1 5 L 11 10 L 1 15" fill="#ffffff" stroke="#000000" style="stroke-width: 1px; stroke-linecap: round; stroke-dasharray: 10000px, 1px;"/></marker><marker viewBox="0 0 20 20" markerWidth="10" markerHeight="10" orient="auto" refX="-1" refY="10" id="markerSich866psc"><path d="M 0 10 L 8 6 L 16 10 L 8 14 Z" fill="#ffffff" stroke="#000000" style="stroke-width: 1px; stroke-linecap: round; stroke-dasharray: 10000px, 1px;"/></marker><marker viewBox="0 0 20 20" markerWidth="10" markerHeight="10" orient="auto" refX="-5" refY="10" id="markerSich866pse"><path d="M 1 4 L 5 16" fill="#000000" stroke="#000000" style="stroke-width: 1px; stroke-linecap: round; stroke-dasharray: 10000px, 1px;"/></marker></defs><g class="djs-group" xmlns="http://www.w3.org/2000/svg"><g data-element-id="Participant_0yxylks" class="djs-element djs-shape hover" transform="matrix(1,0,0,1,96,55)" style="display: block;"><rect fill="none" class="djs-outline" x="-6" y="-6" width="1000" height="368"></rect><g class="djs-visual"><rect x="0" y="0" width="988" height="356" rx="0" ry="0" stroke="#000000" fill="#ffffff" style="stroke-width: 2px;"></rect><polyline points="30,0 30,356 " fill="none" stroke="#000000" style="stroke-width: 2px;"></polyline><text class=" djs-label" transform="matrix(0,-1,1,0,0,356)" style="font-family: Arial, sans-serif; font-size: 12px;"><tspan x="158" y="18.5">Hungry</tspan></text></g><rect x="0" y="0" width="988" height="356" fill="none" stroke="#ffffff" style="stroke-opacity: 0; stroke-width: 15px;" class="djs-hit"></rect></g><g class="djs-children"><g class="djs-group"><g data-element-id="sid-D0BED8B1-BB93-411E-8E26-49C51C4AAF75" transform="matrix(1,0,0,1,146,100)" class="djs-element djs-shape" style="display: block;"><rect fill="none" class="djs-outline" x="-6" y="-6" width="42" height="42"></rect><g class="djs-visual"><circle cx="15" cy="15" r="15" stroke="#000000" fill="#ffffff" style="stroke-width: 2px;"></circle></g><rect x="0" y="0" width="30" height="30" fill="none" stroke="#ffffff" style="stroke-opacity: 0; stroke-width: 15px;" class="djs-hit"></rect></g></g><g class="djs-group"><g data-element-id="sid-D0BED8B1-BB93-411E-8E26-49C51C4AAF75_label" class="djs-element djs-shape" transform="matrix(1,0,0,1,116,132)" style="display: block;"><rect fill="none" class="djs-outline" x="-6" y="-6" width="102" height="34"></rect><g class="djs-visual"><text class=" djs-label" style="font-family: Arial, sans-serif; font-size: 11px;"><tspan x="28" y="12">hunger</tspan><tspan x="27.5" y="24">noticed</tspan></text></g><rect x="0" y="0" width="90" height="22" fill="none" stroke="#ffffff" style="stroke-opacity: 0; stroke-width: 15px;" class="djs-hit"></rect></g></g><g class="djs-group"><g data-element-id="sid-8F82DC6C-AE16-41F6-9271-229FC57C00F4" class="djs-element djs-shape" transform="matrix(1,0,0,1,221,75)" style="display: block;"><rect fill="none" class="djs-outline" x="-6" y="-6" width="112" height="92"></rect><g class="djs-visual"><rect x="0" y="0" width="100" height="80" rx="10" ry="10" stroke="#000000" fill="#ffffff" style="stroke-width: 2px;"></rect><text class=" djs-label" style="font-family: Arial, sans-serif; font-size: 12px;"><tspan x="11.5" y="43.5">choose recipe</tspan></text></g><rect x="0" y="0" width="100" height="80" fill="none" stroke="#ffffff" style="stroke-opacity: 0; stroke-width: 15px;" class="djs-hit"></rect></g></g><g class="djs-group"><g data-element-id="sid-433EEF5E-4740-4E48-9503-61C492767C56" transform="matrix(1,0,0,1,506,95)" class="djs-element djs-shape" style="display: block;"><rect fill="none" class="djs-outline" x="-6" y="-6" width="52" height="52"></rect><g class="djs-visual"><polygon points="20,0,40,20,20,40,0,20" stroke="#000000" fill="#ffffff" style="stroke-width: 2px;"></polygon><path d="m 12.8,12 5.942857142857143,7.771428571428571 -5.942857142857143,7.771428571428571 2.742857142857143,0 4.571428571428571,-5.971382857142857 4.571428571428571,5.971382857142857 2.742857142857143,0 -5.942857142857143,-7.771428571428571 5.942857142857143,-7.771428571428571 -2.742857142857143,0 -4.571428571428571,5.971382857142857 -4.571428571428571,-5.971382857142857 -2.742857142857143,0 z" fill="#000000" stroke="#000000" style="stroke-width: 1px;"></path></g><rect x="0" y="0" width="40" height="40" fill="none" stroke="#ffffff" style="stroke-opacity: 0; stroke-width: 15px;" class="djs-hit"></rect></g></g><g class="djs-group"><g data-element-id="sid-433EEF5E-4740-4E48-9503-61C492767C56_label" class="djs-element djs-shape" transform="matrix(1,0,0,1,482,63)" style="display: block;"><rect fill="none" class="djs-outline" x="-6" y="-6" width="102" height="36"></rect><g class="djs-visual"><text class=" djs-label" style="font-family: Arial, sans-serif; font-size: 11px;"><tspan x="27" y="12">desired </tspan><tspan x="32" y="24">dish?</tspan></text></g><rect x="0" y="0" width="90" height="24" fill="none" stroke="#ffffff" style="stroke-opacity: 0; stroke-width: 15px;" class="djs-hit"></rect></g></g><g class="djs-group"><g data-element-id="sid-91F38206-6869-44E3-8930-0A83748450BF" class="djs-element djs-shape" transform="matrix(1,0,0,1,651,75)" style="display: block;"><rect fill="none" class="djs-outline" x="-6" y="-6" width="112" height="92"></rect><g class="djs-visual"><rect x="0" y="0" width="100" height="80" rx="10" ry="10" stroke="#000000" fill="#ffffff" style="stroke-width: 2px;"></rect><text class=" djs-label" style="font-family: Arial, sans-serif; font-size: 12px;"><tspan x="20.5" y="43.5">cook pasta</tspan></text></g><rect x="0" y="0" width="100" height="80" fill="none" stroke="#ffffff" style="stroke-opacity: 0; stroke-width: 15px;" class="djs-hit"></rect></g></g><g class="djs-group"><g data-element-id="sid-9995AE6B-11A6-420E-9F08-19E38191A77A" class="djs-element djs-shape" transform="matrix(1,0,0,1,651,240)" style="display: block;"><rect fill="none" class="djs-outline" x="-6" y="-6" width="112" height="92"></rect><g class="djs-visual"><rect x="0" y="0" width="100" height="80" rx="10" ry="10" stroke="#000000" fill="#ffffff" style="stroke-width: 2px;"></rect><text class=" djs-label" style="font-family: Arial, sans-serif; font-size: 12px;"><tspan x="21" y="43.5">cook steak</tspan></text></g><rect x="0" y="0" width="100" height="80" fill="none" stroke="#ffffff" style="stroke-opacity: 0; stroke-width: 15px;" class="djs-hit"></rect></g></g><g class="djs-group"><g data-element-id="sid-5144EF42-AEA7-4985-84F9-C082122C7107" class="djs-element djs-shape" transform="matrix(1,0,0,1,366,75)" style="display: block;"><rect fill="none" class="djs-outline" x="-6" y="-6" width="112" height="92"></rect><g class="djs-visual"><rect x="0" y="0" width="100" height="80" rx="10" ry="10" stroke="#000000" fill="#ffffff" style="stroke-width: 2px;"></rect><text class=" djs-label" style="font-family: Arial, sans-serif; font-size: 12px;"><tspan x="12" y="43.5">prepare salad</tspan></text></g><rect x="0" y="0" width="100" height="80" fill="none" stroke="#ffffff" style="stroke-opacity: 0; stroke-width: 15px;" class="djs-hit"></rect></g></g><g class="djs-group"><g data-element-id="sid-47D7385A-388F-40C4-892E-F814C0659C54" transform="matrix(1,0,0,1,806,95)" class="djs-element djs-shape" style="display: block;"><rect fill="none" class="djs-outline" x="-6" y="-6" width="52" height="52"></rect><g class="djs-visual"><polygon points="20,0,40,20,20,40,0,20" stroke="#000000" fill="#ffffff" style="stroke-width: 2px;"></polygon><path d="m 12.8,12 5.942857142857143,7.771428571428571 -5.942857142857143,7.771428571428571 2.742857142857143,0 4.571428571428571,-5.971382857142857 4.571428571428571,5.971382857142857 2.742857142857143,0 -5.942857142857143,-7.771428571428571 5.942857142857143,-7.771428571428571 -2.742857142857143,0 -4.571428571428571,5.971382857142857 -4.571428571428571,-5.971382857142857 -2.742857142857143,0 z" fill="#000000" stroke="#000000" style="stroke-width: 1px;"></path></g><rect x="0" y="0" width="40" height="40" fill="none" stroke="#ffffff" style="stroke-opacity: 0; stroke-width: 15px;" class="djs-hit"></rect></g></g><g class="djs-group"><g data-element-id="sid-47D7385A-388F-40C4-892E-F814C0659C54_label" class="djs-element djs-shape" transform="matrix(1,0,0,1,781,135)" style="display: none;"><rect fill="none" class="djs-outline" x="-6" y="-6" width="102" height="32"></rect><g class="djs-visual"><text class=" djs-label" style="font-family: Arial, sans-serif; font-size: 11px;"><tspan x="45" y="0"></tspan></text></g><rect x="0" y="0" width="90" height="20" fill="none" stroke="#ffffff" style="stroke-opacity: 0; stroke-width: 15px;" class="djs-hit"></rect></g></g><g class="djs-group"><g data-element-id="sid-AAEB396B-8B49-4A20-ADC8-8F956C1B5256" class="djs-element djs-shape" transform="matrix(1,0,0,1,891,75)" style="display: block;"><rect fill="none" class="djs-outline" x="-6" y="-6" width="112" height="92"></rect><g class="djs-visual"><rect x="0" y="0" width="100" height="80" rx="10" ry="10" stroke="#000000" fill="#ffffff" style="stroke-width: 2px;"></rect><text class=" djs-label" style="font-family: Arial, sans-serif; font-size: 12px;"><tspan x="26.5" y="43.5">eat meal</tspan></text></g><rect x="0" y="0" width="100" height="80" fill="none" stroke="#ffffff" style="stroke-opacity: 0; stroke-width: 15px;" class="djs-hit"></rect></g></g><g class="djs-group"><g data-element-id="sid-283C754D-1AA2-4EC9-982F-382C51F2C9B9" transform="matrix(1,0,0,1,1036,101)" class="djs-element djs-shape" style="display: block;"><rect fill="none" class="djs-outline" x="-6" y="-6" width="40" height="40"></rect><g class="djs-visual"><circle cx="14" cy="14" r="14" stroke="#000000" fill="#ffffff" style="stroke-width: 4px;"></circle></g><rect x="0" y="0" width="28" height="28" fill="none" stroke="#ffffff" style="stroke-opacity: 0; stroke-width: 15px;" class="djs-hit"></rect></g></g><g class="djs-group"><g data-element-id="sid-283C754D-1AA2-4EC9-982F-382C51F2C9B9_label" class="djs-element djs-shape" transform="matrix(1,0,0,1,1005,129)" style="display: none;"><rect fill="none" class="djs-outline" x="-6" y="-6" width="102" height="32"></rect><g class="djs-visual"><text class=" djs-label" style="font-family: Arial, sans-serif; font-size: 11px;"><tspan x="45" y="0"></tspan></text></g><rect x="0" y="0" width="90" height="20" fill="none" stroke="#ffffff" style="stroke-opacity: 0; stroke-width: 15px;" class="djs-hit"></rect></g></g><g class="djs-group"><g data-element-id="sid-BF48915E-9493-4461-A096-7B52E6FD0B70" class="djs-element djs-shape" transform="matrix(1,0,0,1,923,192)" style="display: block;"><rect fill="none" class="djs-outline" x="-6" y="-6" width="112" height="43"></rect><g class="djs-visual"><rect x="0" y="0" width="100" height="31" rx="0" ry="0" stroke="none" fill="none" style="stroke-width: 2px;"></rect><path d="m 0, 0 m 10,0 l -10,0 l 0,31.000000000000004 l 10,0" fill="none" stroke="#000000" style="stroke-width: 2px;"></path><text class=" djs-label" style="font-family: Arial, sans-serif; font-size: 12px;"><tspan x="5" y="19">20 minutes</tspan></text></g><rect x="0" y="0" width="100" height="31" fill="none" stroke="#ffffff" style="stroke-opacity: 0; stroke-width: 15px;" class="djs-hit"></rect></g></g><g class="djs-group"><g data-element-id="sid-4E820B8B-41A4-47BC-B9BA-F007E2D485A4" class="djs-element djs-shape" transform="matrix(1,0,0,1,366,192)" style="display: block;"><rect fill="none" class="djs-outline" x="-6" y="-6" width="112" height="43"></rect><g class="djs-visual"><rect x="0" y="0" width="100" height="31" rx="0" ry="0" stroke="none" fill="none" style="stroke-width: 2px;"></rect><path d="m 0, 0 m 10,0 l -10,0 l 0,31.000000000000004 l 10,0" fill="none" stroke="#000000" style="stroke-width: 2px;"></path><text class=" djs-label" style="font-family: Arial, sans-serif; font-size: 12px;"><tspan x="5" y="19">10 minutes</tspan></text></g><rect x="0" y="0" width="100" height="31" fill="none" stroke="#ffffff" style="stroke-opacity: 0; stroke-width: 15px;" class="djs-hit"></rect></g></g><g class="djs-group"><g data-element-id="sid-CFD63D17-AEF8-441B-B612-A50DBA801760" class="djs-element djs-shape" transform="matrix(1,0,0,1,661,360)" style="display: block;"><rect fill="none" class="djs-outline" x="-6" y="-6" width="112" height="43"></rect><g class="djs-visual"><rect x="0" y="0" width="100" height="31" rx="0" ry="0" stroke="none" fill="none" style="stroke-width: 2px;"></rect><path d="m 0, 0 m 10,0 l -10,0 l 0,31.000000000000004 l 10,0" fill="none" stroke="#000000" style="stroke-width: 2px;"></path><text class=" djs-label" style="font-family: Arial, sans-serif; font-size: 12px;"><tspan x="5" y="19">10 minutes</tspan></text></g><rect x="0" y="0" width="100" height="31" fill="none" stroke="#ffffff" style="stroke-opacity: 0; stroke-width: 15px;" class="djs-hit"></rect></g></g><g class="djs-group"><g data-element-id="sid-A6E3D7E7-B739-4B08-993E-B5CB5F61C69F" class="djs-element djs-shape" transform="matrix(1,0,0,1,226,192)" style="display: block;"><rect fill="none" class="djs-outline" x="-6" y="-6" width="112" height="43"></rect><g class="djs-visual"><rect x="0" y="0" width="100" height="31" rx="0" ry="0" stroke="none" fill="none" style="stroke-width: 2px;"></rect><path d="m 0, 0 m 10,0 l -10,0 l 0,31.000000000000004 l 10,0" fill="none" stroke="#000000" style="stroke-width: 2px;"></path><text class=" djs-label" style="font-family: Arial, sans-serif; font-size: 12px;"><tspan x="5" y="19">3 minutes</tspan></text></g><rect x="0" y="0" width="100" height="31" fill="none" stroke="#ffffff" style="stroke-opacity: 0; stroke-width: 15px;" class="djs-hit"></rect></g></g><g class="djs-group"><g data-element-id="sid-158140B4-D103-4652-A69B-F15B8A689F9A" class="djs-element djs-shape" transform="matrix(1,0,0,1,670,192)" style="display: block;"><rect fill="none" class="djs-outline" x="-6" y="-6" width="112" height="43"></rect><g class="djs-visual"><rect x="0" y="0" width="100" height="31" rx="0" ry="0" stroke="none" fill="none" style="stroke-width: 2px;"></rect><path d="m 0, 0 m 10,0 l -10,0 l 0,31.000000000000004 l 10,0" fill="none" stroke="#000000" style="stroke-width: 2px;"></path><text class=" djs-label" style="font-family: Arial, sans-serif; font-size: 12px;"><tspan x="5" y="19">15 minutes</tspan></text></g><rect x="0" y="0" width="100" height="31" fill="none" stroke="#ffffff" style="stroke-opacity: 0; stroke-width: 15px;" class="djs-hit"></rect></g></g><g class="djs-group"><g data-element-id="sid-FFF01EF7-1FEC-4B83-986C-018858D97835" class="djs-element djs-connection" style="display: block;"><rect fill="none" class="djs-outline" x="170" y="109" width="57" height="12"></rect><g class="djs-visual"><path d="m  176,115L221,115 " fill="none" stroke="#000000" style="stroke-width: 2px; stroke-linejoin: round; marker-end: url(#markerSich866ps4);"></path></g><polyline points="176,115 221,115 " fill="none" stroke="#ffffff" style="stroke-opacity: 0; stroke-width: 15px;" class="djs-hit"></polyline></g></g><g class="djs-group"><g data-element-id="sid-FFF01EF7-1FEC-4B83-986C-018858D97835_label" class="djs-element djs-shape" transform="matrix(1,0,0,1,154,105)" style="display: none;"><rect fill="none" class="djs-outline" x="-6" y="-6" width="102" height="32"></rect><g class="djs-visual"><text class=" djs-label" style="font-family: Arial, sans-serif; font-size: 11px;"><tspan x="45" y="0"></tspan></text></g><rect x="0" y="0" width="90" height="20" fill="none" stroke="#ffffff" style="stroke-opacity: 0; stroke-width: 15px;" class="djs-hit"></rect></g></g><g class="djs-group"><g data-element-id="sid-5244058D-4A1C-49C7-A975-3D2AF4BFAFE0" class="djs-element djs-connection" style="display: block;"><rect fill="none" class="djs-outline" x="315" y="109" width="57" height="12"></rect><g class="djs-visual"><path d="m  321,115L366,115 " fill="none" stroke="#000000" style="stroke-width: 2px; stroke-linejoin: round; marker-end: url(#markerSich866ps4);"></path></g><polyline points="321,115 366,115 " fill="none" stroke="#ffffff" style="stroke-opacity: 0; stroke-width: 15px;" class="djs-hit"></polyline></g></g><g class="djs-group"><g data-element-id="sid-5244058D-4A1C-49C7-A975-3D2AF4BFAFE0_label" class="djs-element djs-shape" transform="matrix(1,0,0,1,299,105)" style="display: none;"><rect fill="none" class="djs-outline" x="-6" y="-6" width="102" height="32"></rect><g class="djs-visual"><text class=" djs-label" style="font-family: Arial, sans-serif; font-size: 11px;"><tspan x="45" y="0"></tspan></text></g><rect x="0" y="0" width="90" height="20" fill="none" stroke="#ffffff" style="stroke-opacity: 0; stroke-width: 15px;" class="djs-hit"></rect></g></g><g class="djs-group"><g data-element-id="sid-1CA5065E-3A33-4024-93CF-B7148AD79095" class="djs-element djs-connection" style="display: block;"><rect fill="none" class="djs-outline" x="460" y="109.22624434389141" width="52" height="12.180995475113122"></rect><g class="djs-visual"><path d="m  466,115.22624434389141L506,115.40723981900453 " fill="none" stroke="#000000" style="stroke-width: 2px; stroke-linejoin: round; marker-end: url(#markerSich866ps4);"></path></g><polyline points="466,115.22624434389141 506,115.40723981900453 " fill="none" stroke="#ffffff" style="stroke-opacity: 0; stroke-width: 15px;" class="djs-hit"></polyline></g></g><g class="djs-group"><g data-element-id="sid-1CA5065E-3A33-4024-93CF-B7148AD79095_label" class="djs-element djs-shape" transform="matrix(1,0,0,1,441,105)" style="display: none;"><rect fill="none" class="djs-outline" x="-6" y="-6" width="102" height="32"></rect><g class="djs-visual"><text class=" djs-label" style="font-family: Arial, sans-serif; font-size: 11px;"><tspan x="45" y="0"></tspan></text></g><rect x="0" y="0" width="90" height="20" fill="none" stroke="#ffffff" style="stroke-opacity: 0; stroke-width: 15px;" class="djs-hit"></rect></g></g><g class="djs-group"><g data-element-id="sid-E943A666-80E2-4D38-9AEF-ACD1EFE0D128" class="djs-element djs-connection" style="display: block;"><rect fill="none" class="djs-outline" x="540" y="109.14326647564471" width="117" height="12.300859598853862"></rect><g class="djs-visual"><path d="m  546,115.44412607449857L651,115.14326647564471 " fill="none" stroke="#000000" style="stroke-width: 2px; stroke-linejoin: round; marker-end: url(#markerSich866ps4);"></path></g><polyline points="546,115.44412607449857 651,115.14326647564471 " fill="none" stroke="#ffffff" style="stroke-opacity: 0; stroke-width: 15px;" class="djs-hit"></polyline></g></g><g class="djs-group"><g data-element-id="sid-E943A666-80E2-4D38-9AEF-ACD1EFE0D128_label" class="djs-element djs-shape" transform="matrix(1,0,0,1,526,95)" style="display: block;"><rect fill="none" class="djs-outline" x="-6" y="-6" width="102" height="24"></rect><g class="djs-visual"><text class=" djs-label" style="font-family: Arial, sans-serif; font-size: 11px;"><tspan x="31.5" y="12">pasta</tspan></text></g><rect x="0" y="0" width="90" height="12" fill="none" stroke="#ffffff" style="stroke-opacity: 0; stroke-width: 15px;" class="djs-hit"></rect></g></g><g class="djs-group"><g data-element-id="sid-4C1A6A53-32E3-46D3-BECE-5B3555133586" class="djs-element djs-connection" style="display: block;"><rect fill="none" class="djs-outline" x="520.5" y="129" width="136.5" height="157"></rect><g class="djs-visual"><path d="m  526.5,135L526.5,280 L651,280 " fill="none" stroke="#000000" style="stroke-width: 2px; stroke-linejoin: round; marker-end: url(#markerSich866ps4);"></path></g><polyline points="526.5,135 526.5,280 651,280 " fill="none" stroke="#ffffff" style="stroke-opacity: 0; stroke-width: 15px;" class="djs-hit"></polyline></g></g><g class="djs-group"><g data-element-id="sid-4C1A6A53-32E3-46D3-BECE-5B3555133586_label" class="djs-element djs-shape" transform="matrix(1,0,0,1,506,173)" style="display: block;"><rect fill="none" class="djs-outline" x="-6" y="-6" width="102" height="24"></rect><g class="djs-visual"><text class=" djs-label" style="font-family: Arial, sans-serif; font-size: 11px;"><tspan x="31.5" y="12">steak</tspan></text></g><rect x="0" y="0" width="90" height="12" fill="none" stroke="#ffffff" style="stroke-opacity: 0; stroke-width: 15px;" class="djs-hit"></rect></g></g><g class="djs-group"><g data-element-id="sid-E02C3FCE-3C11-4C6B-AFC0-674C5A8B69AF" class="djs-element djs-connection" style="display: block;"><rect fill="none" class="djs-outline" x="745" y="109.19920318725099" width="67" height="12.219123505976114"></rect><g class="djs-visual"><path d="m  751,115.19920318725099L806,115.4183266932271 " fill="none" stroke="#000000" style="stroke-width: 2px; stroke-linejoin: round; marker-end: url(#markerSich866ps4);"></path></g><polyline points="751,115.19920318725099 806,115.4183266932271 " fill="none" stroke="#ffffff" style="stroke-opacity: 0; stroke-width: 15px;" class="djs-hit"></polyline></g></g><g class="djs-group"><g data-element-id="sid-E02C3FCE-3C11-4C6B-AFC0-674C5A8B69AF_label" class="djs-element djs-shape" transform="matrix(1,0,0,1,734,105)" style="display: none;"><rect fill="none" class="djs-outline" x="-6" y="-6" width="102" height="32"></rect><g class="djs-visual"><text class=" djs-label" style="font-family: Arial, sans-serif; font-size: 11px;"><tspan x="45" y="0"></tspan></text></g><rect x="0" y="0" width="90" height="20" fill="none" stroke="#ffffff" style="stroke-opacity: 0; stroke-width: 15px;" class="djs-hit"></rect></g></g><g class="djs-group"><g data-element-id="sid-F031AA0F-ABDF-4866-A905-7EF8FF7A899B" class="djs-element djs-connection" style="display: block;"><rect fill="none" class="djs-outline" x="745" y="129" width="87.5" height="157"></rect><g class="djs-visual"><path d="m  751,280L826.5,280 L826.5,135 " fill="none" stroke="#000000" style="stroke-width: 2px; stroke-linejoin: round; marker-end: url(#markerSich866ps4);"></path></g><polyline points="751,280 826.5,280 826.5,135 " fill="none" stroke="#ffffff" style="stroke-opacity: 0; stroke-width: 15px;" class="djs-hit"></polyline></g></g><g class="djs-group"><g data-element-id="sid-F031AA0F-ABDF-4866-A905-7EF8FF7A899B_label" class="djs-element djs-shape" transform="matrix(1,0,0,1,744,270)" style="display: none;"><rect fill="none" class="djs-outline" x="-6" y="-6" width="102" height="32"></rect><g class="djs-visual"><text class=" djs-label" style="font-family: Arial, sans-serif; font-size: 11px;"><tspan x="45" y="0"></tspan></text></g><rect x="0" y="0" width="90" height="20" fill="none" stroke="#ffffff" style="stroke-opacity: 0; stroke-width: 15px;" class="djs-hit"></rect></g></g><g class="djs-group"><g data-element-id="sid-1BF06A5D-6B3D-4808-B358-69C1E08B1C42" class="djs-element djs-connection" style="display: block;"><rect fill="none" class="djs-outline" x="840" y="109.21834061135371" width="57" height="12.196506550218345"></rect><g class="djs-visual"><path d="m  846,115.41484716157206L891,115.21834061135371 " fill="none" stroke="#000000" style="stroke-width: 2px; stroke-linejoin: round; marker-end: url(#markerSich866ps4);"></path></g><polyline points="846,115.41484716157206 891,115.21834061135371 " fill="none" stroke="#ffffff" style="stroke-opacity: 0; stroke-width: 15px;" class="djs-hit"></polyline></g></g><g class="djs-group"><g data-element-id="sid-1BF06A5D-6B3D-4808-B358-69C1E08B1C42_label" class="djs-element djs-shape" transform="matrix(1,0,0,1,824,105)" style="display: none;"><rect fill="none" class="djs-outline" x="-6" y="-6" width="102" height="32"></rect><g class="djs-visual"><text class=" djs-label" style="font-family: Arial, sans-serif; font-size: 11px;"><tspan x="45" y="0"></tspan></text></g><rect x="0" y="0" width="90" height="20" fill="none" stroke="#ffffff" style="stroke-opacity: 0; stroke-width: 15px;" class="djs-hit"></rect></g></g><g class="djs-group"><g data-element-id="sid-A183C0F7-53E8-4A53-B0C1-C626A5459AB5" class="djs-element djs-connection" style="display: block;"><rect fill="none" class="djs-outline" x="985" y="109" width="57" height="12"></rect><g class="djs-visual"><path d="m  991,115L1036,115 " fill="none" stroke="#000000" style="stroke-width: 2px; stroke-linejoin: round; marker-end: url(#markerSich866ps4);"></path></g><polyline points="991,115 1036,115 " fill="none" stroke="#ffffff" style="stroke-opacity: 0; stroke-width: 15px;" class="djs-hit"></polyline></g></g><g class="djs-group"><g data-element-id="sid-A183C0F7-53E8-4A53-B0C1-C626A5459AB5_label" class="djs-element djs-shape" transform="matrix(1,0,0,1,969,105)" style="display: none;"><rect fill="none" class="djs-outline" x="-6" y="-6" width="102" height="32"></rect><g class="djs-visual"><text class=" djs-label" style="font-family: Arial, sans-serif; font-size: 11px;"><tspan x="45" y="0"></tspan></text></g><rect x="0" y="0" width="90" height="20" fill="none" stroke="#ffffff" style="stroke-opacity: 0; stroke-width: 15px;" class="djs-hit"></rect></g></g><g class="djs-group"><g data-element-id="sid-F04D4AF9-B37A-4489-9121-EA6E2398D277" class="djs-element djs-connection" style="display: block;"><rect fill="none" class="djs-outline" x="228.16480630334866" y="149" width="29.574961698402262" height="48.5"></rect><g class="djs-visual"><polyline points="251.73976800175092,155 234.16480630334866,191.5 " fill="none" stroke="#000000" style="stroke-width: 2px; stroke-dasharray: 1px, 6px; stroke-linecap: round; stroke-linejoin: round;"></polyline></g><polyline points="251.73976800175092,155 234.16480630334866,191.5 " fill="none" stroke="#ffffff" style="stroke-opacity: 0; stroke-width: 15px;" class="djs-hit"></polyline></g></g><g class="djs-group"><g data-element-id="sid-BC2439FA-B8F5-4ED6-B5BA-CF57F99FA435" class="djs-element djs-connection" style="display: block;"><rect fill="none" class="djs-outline" x="673" y="149" width="13" height="49"></rect><g class="djs-visual"><polyline points="680,155 679,192 " fill="none" stroke="#000000" style="stroke-width: 2px; stroke-dasharray: 1px, 6px; stroke-linecap: round; stroke-linejoin: round;"></polyline></g><polyline points="680,155 679,192 " fill="none" stroke="#ffffff" style="stroke-opacity: 0; stroke-width: 15px;" class="djs-hit"></polyline></g></g><g class="djs-group"><g data-element-id="sid-62F4C2FE-901D-44BB-83F4-3A606EACD2EA" class="djs-element djs-connection" style="display: block;"><rect fill="none" class="djs-outline" x="662.1163575042159" y="314" width="28.441821247891994" height="52"></rect><g class="djs-visual"><polyline points="684.5581787521079,320 668.1163575042159,360 " fill="none" stroke="#000000" style="stroke-width: 2px; stroke-dasharray: 1px, 6px; stroke-linecap: round; stroke-linejoin: round;"></polyline></g><polyline points="684.5581787521079,320 668.1163575042159,360 " fill="none" stroke="#ffffff" style="stroke-opacity: 0; stroke-width: 15px;" class="djs-hit"></polyline></g></g><g class="djs-group"><g data-element-id="sid-18F7ACF2-1B3D-4E25-B7EF-B5080D0E25A4" class="djs-element djs-connection" style="display: block;"><rect fill="none" class="djs-outline" x="369" y="149" width="31" height="49"></rect><g class="djs-visual"><polyline points="394,155 375,192 " fill="none" stroke="#000000" style="stroke-width: 2px; stroke-dasharray: 1px, 6px; stroke-linecap: round; stroke-linejoin: round;"></polyline></g><polyline points="394,155 375,192 " fill="none" stroke="#ffffff" style="stroke-opacity: 0; stroke-width: 15px;" class="djs-hit"></polyline></g></g><g class="djs-group"><g data-element-id="sid-37413548-ADAD-45C5-9306-650FE331BC24" class="djs-element djs-connection" style="display: block;"><rect fill="none" class="djs-outline" x="914" y="149" width="23.97898883782011" height="48.5"></rect><g class="djs-visual"><polyline points="920,155 931.9789888378201,191.5 " fill="none" stroke="#000000" style="stroke-width: 2px; stroke-dasharray: 1px, 6px; stroke-linecap: round; stroke-linejoin: round;"></polyline></g><polyline points="920,155 931.9789888378201,191.5 " fill="none" stroke="#ffffff" style="stroke-opacity: 0; stroke-width: 15px;" class="djs-hit"></polyline></g></g></g></g></svg>