<?xml version="1.0" encoding="utf-8"?>
<!-- created with bpmn-js / http://bpmn.io -->
<!DOCTYPE svg PUBLIC "-//W3C//DTD SVG 1.1//EN" "http://www.w3.org/Graphics/SVG/1.1/DTD/svg11.dtd">
<svg xmlns="http://www.w3.org/2000/svg" xmlns:xlink="http://www.w3.org/1999/xlink" width="995" height="420" viewBox="90 58 995 420" version="1.1"><defs><marker viewBox="0 0 20 20" markerWidth="10" markerHeight="10" orient="auto" refX="11" refY="10" id="markerSich0m9l44"><path d="M 1 5 L 11 10 L 1 15 Z" fill="#000000" style="stroke-width: 1px; stroke-linecap: round; stroke-dasharray: 10000px, 1px;"/></marker><marker viewBox="0 0 20 20" markerWidth="20" markerHeight="20" orient="auto" refX="6" refY="6" id="markerSich0m9l46"><circle cx="6" cy="6" r="3.5" style="stroke-width: 1px; stroke-linecap: round; stroke-dasharray: 10000px, 1px;" fill="#ffffff" stroke="#000000"/></marker><marker viewBox="0 0 20 20" markerWidth="20" markerHeight="20" orient="auto" refX="8.5" refY="5" id="markerSich0m9l48"><path d="m 1 5 l 0 -3 l 7 3 l -7 3 z" fill="#ffffff" stroke="#000000" style="stroke-width: 1px; stroke-linecap: butt; stroke-dasharray: 10000px, 1px;"/></marker><marker viewBox="0 0 20 20" markerWidth="10" markerHeight="10" orient="auto" refX="11" refY="10" id="markerSich0m9l4a"><path d="M 1 5 L 11 10 L 1 15" fill="#ffffff" stroke="#000000" style="stroke-width: 1px; stroke-linecap: round; stroke-dasharray: 10000px, 1px;"/></marker><marker viewBox="0 0 20 20" markerWidth="10" markerHeight="10" orient="auto" refX="-1" refY="10" id="markerSich0m9l4c"><path d="M 0 10 L 8 6 L 16 10 L 8 14 Z" fill="#ffffff" stroke="#000000" style="stroke-width: 1px; stroke-linecap: round; stroke-dasharray: 10000px, 1px;"/></marker><marker viewBox="0 0 20 20" markerWidth="10" markerHeight="10" orient="auto" refX="-5" refY="10" id="markerSich0m9l4e"><path d="M 1 4 L 5 16" fill="#000000" stroke="#000000" style="stroke-width: 1px; stroke-linecap: round; stroke-dasharray: 10000px, 1px;"/></marker></defs><g class="djs-group" xmlns="http://www.w3.org/2000/svg"><g data-element-id="StartEvent_1" transform="matrix(1,0,0,1,123,255)" class="djs-element djs-shape" style="display: block;"><rect fill="none" class="djs-outline" x="-6" y="-6" width="48" height="48"></rect><g class="djs-visual"><circle cx="18" cy="18" r="18" stroke="#000000" fill="#ffffff" style="stroke-width: 2px;"></circle></g><rect x="0" y="0" width="36" height="36" fill="none" stroke="#ffffff" style="stroke-opacity: 0; stroke-width: 15px;" class="djs-hit"></rect></g></g><g class="djs-group" xmlns="http://www.w3.org/2000/svg"><g data-element-id="StartEvent_1_label" class="djs-element djs-shape" transform="matrix(1,0,0,1,96,291)" style="display: block;"><rect fill="none" class="djs-outline" x="-6" y="-6" width="102" height="32"></rect><g class="djs-visual"><text class=" djs-label" style="font-family: Arial, sans-serif; font-size: 11px;"><tspan x="25" y="12">Execute</tspan></text></g><rect x="0" y="0" width="90" height="20" fill="none" stroke="#ffffff" style="stroke-opacity: 0; stroke-width: 15px;" class="djs-hit"></rect></g></g><g class="djs-group" xmlns="http://www.w3.org/2000/svg"><g data-element-id="Task_0zyuoo8" class="djs-element djs-shape" transform="matrix(1,0,0,1,211,233)" style="display: block;"><rect fill="none" class="djs-outline" x="-6" y="-6" width="112" height="92"></rect><g class="djs-visual"><rect x="0" y="0" width="100" height="80" rx="10" ry="10" stroke="#000000" fill="#ffffff" style="stroke-width: 2px;"></rect><text class=" djs-label" style="font-family: Arial, sans-serif; font-size: 12px;"><tspan x="37.5" y="43.5">Start</tspan></text></g><rect x="0" y="0" width="100" height="80" fill="none" stroke="#ffffff" style="stroke-opacity: 0; stroke-width: 15px;" class="djs-hit"></rect></g></g><g class="djs-group" xmlns="http://www.w3.org/2000/svg"><g data-element-id="Task_1kwra7c" class="djs-element djs-shape" transform="matrix(1,0,0,1,369,233)" style="display: block;"><rect fill="none" class="djs-outline" x="-6" y="-6" width="112" height="92"></rect><g class="djs-visual"><rect x="0" y="0" width="100" height="80" rx="10" ry="10" stroke="#000000" fill="#ffffff" style="stroke-width: 2px;"></rect><text class=" djs-label" style="font-family: Arial, sans-serif; font-size: 12px;"><tspan x="19" y="43.5">Check Wait</tspan></text></g><rect x="0" y="0" width="100" height="80" fill="none" stroke="#ffffff" style="stroke-opacity: 0; stroke-width: 15px;" class="djs-hit"></rect></g></g><g class="djs-group" xmlns="http://www.w3.org/2000/svg"><g data-element-id="Task_1douonv" class="djs-element djs-shape" transform="matrix(1,0,0,1,688,233)" style="display: block;"><rect fill="none" class="djs-outline" x="-6" y="-6" width="112" height="92"></rect><g class="djs-visual"><rect x="0" y="0" width="100" height="80" rx="10" ry="10" stroke="#000000" fill="#ffffff" style="stroke-width: 2px;"></rect><text class=" djs-label" style="font-family: Arial, sans-serif; font-size: 12px;"><tspan x="38.5" y="43.5">Run</tspan></text></g><rect x="0" y="0" width="100" height="80" fill="none" stroke="#ffffff" style="stroke-opacity: 0; stroke-width: 15px;" class="djs-hit"></rect></g></g><g class="djs-group" xmlns="http://www.w3.org/2000/svg"><g data-element-id="ExclusiveGateway_02mt9fx" transform="matrix(1,0,0,1,527,248)" class="djs-element djs-shape" style="display: block;"><rect fill="none" class="djs-outline" x="-6" y="-6" width="62" height="62"></rect><g class="djs-visual"><polygon points="25,0,50,25,25,50,0,25" stroke="#000000" fill="#ffffff" style="stroke-width: 2px;"></polygon><path d="m 16,15 7.42857142857143,9.714285714285715 -7.42857142857143,9.714285714285715 3.428571428571429,0 5.714285714285715,-7.464228571428572 5.714285714285715,7.464228571428572 3.428571428571429,0 -7.42857142857143,-9.714285714285715 7.42857142857143,-9.714285714285715 -3.428571428571429,0 -5.714285714285715,7.464228571428572 -5.714285714285715,-7.464228571428572 -3.428571428571429,0 z" fill="#000000" stroke="#000000" style="stroke-width: 1px;"></path></g><rect x="0" y="0" width="50" height="50" fill="none" stroke="#ffffff" style="stroke-opacity: 0; stroke-width: 15px;" class="djs-hit"></rect></g></g><g class="djs-group" xmlns="http://www.w3.org/2000/svg"><g data-element-id="ExclusiveGateway_02mt9fx_label" class="djs-element djs-shape" transform="matrix(1,0,0,1,507,298)" style="display: block;"><rect fill="none" class="djs-outline" x="-6" y="-6" width="102" height="32"></rect><g class="djs-visual"><text class=" djs-label" style="font-family: Arial, sans-serif; font-size: 11px;"><tspan x="31.5" y="12">Wait?</tspan></text></g><rect x="0" y="0" width="90" height="20" fill="none" stroke="#ffffff" style="stroke-opacity: 0; stroke-width: 15px;" class="djs-hit"></rect></g></g><g class="djs-group" xmlns="http://www.w3.org/2000/svg"><g data-element-id="Task_1q3wdik" class="djs-element djs-shape" transform="matrix(1,0,0,1,846,233)" style="display: block;"><rect fill="none" class="djs-outline" x="-6" y="-6" width="112" height="92"></rect><g class="djs-visual"><rect x="0" y="0" width="100" height="80" rx="10" ry="10" stroke="#000000" fill="#ffffff" style="stroke-width: 2px;"></rect><text class=" djs-label" style="font-family: Arial, sans-serif; font-size: 12px;"><tspan x="33.5" y="43.5">Finish</tspan></text></g><rect x="0" y="0" width="100" height="80" fill="none" stroke="#ffffff" style="stroke-opacity: 0; stroke-width: 15px;" class="djs-hit"></rect></g></g><g class="djs-group" xmlns="http://www.w3.org/2000/svg"><g data-element-id="IntermediateCatchEvent_0ok3f01" transform="matrix(1,0,0,1,720,400)" class="djs-element djs-shape selected" style="display: block;"><rect fill="none" class="djs-outline" x="-6" y="-6" width="48" height="48"></rect><g class="djs-visual"><circle cx="18" cy="18" r="18" stroke="#000000" fill="#ffffff" style="stroke-width: 1px;"></circle><circle cx="18" cy="18" r="15" stroke="#000000" fill="none" style="stroke-width: 1px;"></circle><path d="m 8.459999999999999,11.34 l 0,12.6 l 18.900000000000002,0 l 0,-12.6 z l 9.450000000000001,5.4 l 9.450000000000001,-5.4" fill="#ffffff" stroke="#000000" style="stroke-width: 1px;"></path></g><rect x="0" y="0" width="36" height="36" fill="none" stroke="#ffffff" style="stroke-opacity: 0; stroke-width: 15px;" class="djs-hit"></rect></g><g class="djs-children"></g></g><g class="djs-group" xmlns="http://www.w3.org/2000/svg"><g data-element-id="Task_1gnpggg" class="djs-element djs-shape" transform="matrix(1,0,0,1,678,80)" style="display: block;"><rect fill="none" class="djs-outline" x="-6" y="-6" width="112" height="92"></rect><g class="djs-visual"><rect x="0" y="0" width="100" height="80" rx="10" ry="10" stroke="#000000" fill="#ffffff" style="stroke-width: 2px;"></rect><text class=" djs-label" style="font-family: Arial, sans-serif; font-size: 12px;"><tspan x="36" y="43.5">Save</tspan></text></g><rect x="0" y="0" width="100" height="80" fill="none" stroke="#ffffff" style="stroke-opacity: 0; stroke-width: 15px;" class="djs-hit"></rect></g></g><g class="djs-group" xmlns="http://www.w3.org/2000/svg"><g data-element-id="Task_0k6cxeh" class="djs-element djs-shape" transform="matrix(1,0,0,1,502,80)" style="display: block;"><rect fill="none" class="djs-outline" x="-6" y="-6" width="112" height="92"></rect><g class="djs-visual"><rect x="0" y="0" width="100" height="80" rx="10" ry="10" stroke="#000000" fill="#ffffff" style="stroke-width: 2px;"></rect><text class=" djs-label" style="font-family: Arial, sans-serif; font-size: 12px;"><tspan x="22.5" y="43.5">Subscribe</tspan></text></g><rect x="0" y="0" width="100" height="80" fill="none" stroke="#ffffff" style="stroke-opacity: 0; stroke-width: 15px;" class="djs-hit"></rect></g></g><g class="djs-group" xmlns="http://www.w3.org/2000/svg"><g data-element-id="Task_0343ocy" class="djs-element djs-shape" transform="matrix(1,0,0,1,979,246)" style="display: block;"><rect fill="none" class="djs-outline" x="-6" y="-6" width="112" height="92"></rect><g class="djs-visual"><rect x="0" y="0" width="100" height="80" rx="10" ry="10" stroke="#000000" fill="#ffffff" style="stroke-width: 2px;"></rect><text class=" djs-label" style="font-family: Arial, sans-serif; font-size: 12px;"><tspan x="36" y="43.5">Save</tspan></text></g><rect x="0" y="0" width="100" height="80" fill="none" stroke="#ffffff" style="stroke-opacity: 0; stroke-width: 15px;" class="djs-hit"></rect></g></g><g class="djs-group" xmlns="http://www.w3.org/2000/svg"><g data-element-id="EndEvent_0ez1uiz" transform="matrix(1,0,0,1,1011,424)" class="djs-element djs-shape" style="display: block;"><rect fill="none" class="djs-outline" x="-6" y="-6" width="48" height="48"></rect><g class="djs-visual"><circle cx="18" cy="18" r="18" stroke="#000000" fill="#ffffff" style="stroke-width: 4px;"></circle></g><rect x="0" y="0" width="36" height="36" fill="none" stroke="#ffffff" style="stroke-opacity: 0; stroke-width: 15px;" class="djs-hit"></rect></g></g><g class="djs-group" xmlns="http://www.w3.org/2000/svg"><g data-element-id="EndEvent_0ez1uiz_label" class="djs-element djs-shape" transform="matrix(1,0,0,1,984,460)" style="display: none;"><rect fill="none" class="djs-outline" x="-6" y="-6" width="102" height="32"></rect><g class="djs-visual"><text class=" djs-label" style="font-family: Arial, sans-serif; font-size: 11px;"><tspan x="45" y="0"></tspan></text></g><rect x="0" y="0" width="90" height="20" fill="none" stroke="#ffffff" style="stroke-opacity: 0; stroke-width: 15px;" class="djs-hit"></rect></g></g><g class="djs-group" xmlns="http://www.w3.org/2000/svg"><g data-element-id="TextAnnotation_0lxzaet" class="djs-element djs-shape" transform="matrix(1,0,0,1,203,377)" style="display: block;"><rect fill="none" class="djs-outline" x="-6" y="-6" width="152" height="93"></rect><g class="djs-visual"><rect x="0" y="0" width="140" height="81" rx="0" ry="0" stroke="none" fill="none" style="stroke-width: 2px;"></rect><path d="m 0, 0 m 10,0 l -10,0 l 0,81 l 10,0" fill="none" stroke="#000000" style="stroke-width: 2px;"></path><text class=" djs-label" style="font-family: Arial, sans-serif; font-size: 12px;"><tspan x="5" y="44">Create CaseItem</tspan></text></g><rect x="0" y="0" width="140" height="81" fill="none" stroke="#ffffff" style="stroke-opacity: 0; stroke-width: 15px;" class="djs-hit"></rect></g></g><g class="djs-group" xmlns="http://www.w3.org/2000/svg"><g data-element-id="TextAnnotation_0sxc5nc" class="djs-element djs-shape" transform="matrix(1,0,0,1,520,363)" style="display: block;"><rect fill="none" class="djs-outline" x="-6" y="-6" width="139" height="121"></rect><g class="djs-visual"><rect x="0" y="0" width="127" height="109" rx="0" ry="0" stroke="none" fill="none" style="stroke-width: 2px;"></rect><path d="m 0, 0 m 10,0 l -10,0 l 0,109 l 10,0" fill="none" stroke="#000000" style="stroke-width: 2px;"></path><text class=" djs-label" style="font-family: Arial, sans-serif; font-size: 12px;"><tspan x="5" y="44">Wait for Timer, </tspan><tspan x="5" y="58">Message, Signal </tspan><tspan x="5" y="72">wait for user Input</tspan></text></g><rect x="0" y="0" width="127" height="109" fill="none" stroke="#ffffff" style="stroke-opacity: 0; stroke-width: 15px;" class="djs-hit"></rect></g></g><g class="djs-group" xmlns="http://www.w3.org/2000/svg"><g data-element-id="TextAnnotation_1sg26or" class="djs-element djs-shape" transform="matrix(1,0,0,1,843,388)" style="display: block;"><rect fill="none" class="djs-outline" x="-6" y="-6" width="112" height="92"></rect><g class="djs-visual"><rect x="0" y="0" width="100" height="80" rx="0" ry="0" stroke="none" fill="none" style="stroke-width: 2px;"></rect><path d="m 0, 0 m 10,0 l -10,0 l 0,80 l 10,0" fill="none" stroke="#000000" style="stroke-width: 2px;"></path><text class=" djs-label" style="font-family: Arial, sans-serif; font-size: 12px;"><tspan x="5" y="36.5">Determine Next</tspan><tspan x="5" y="50.5">Flows </tspan></text></g><rect x="0" y="0" width="100" height="80" fill="none" stroke="#ffffff" style="stroke-opacity: 0; stroke-width: 15px;" class="djs-hit"></rect></g></g><g class="djs-group" xmlns="http://www.w3.org/2000/svg"><g data-element-id="TextAnnotation_1evrw49" class="djs-element djs-shape" transform="matrix(1,0,0,1,885,64)" style="display: block;"><rect fill="none" class="djs-outline" x="-6" y="-6" width="150" height="87"></rect><g class="djs-visual"><rect x="0" y="0" width="138" height="75" rx="0" ry="0" stroke="none" fill="none" style="stroke-width: 2px;"></rect><path d="m 0, 0 m 10,0 l -10,0 l 0,75 l 10,0" fill="none" stroke="#000000" style="stroke-width: 2px;"></path><text class=" djs-label" style="font-family: Arial, sans-serif; font-size: 12px;"><tspan x="5" y="27">Save Next Queue</tspan><tspan x="5" y="41">Save Item </tspan><tspan x="5" y="55">Save Case Status</tspan></text></g><rect x="0" y="0" width="138" height="75" fill="none" stroke="#ffffff" style="stroke-opacity: 0; stroke-width: 15px;" class="djs-hit"></rect></g></g><g class="djs-group" xmlns="http://www.w3.org/2000/svg"><g data-element-id="SequenceFlow_0mn6bjj" class="djs-element djs-connection" style="display: block;"><rect fill="none" class="djs-outline" x="153" y="267" width="64" height="12"></rect><g class="djs-visual"><path d="m  159,273L211,273 " fill="none" stroke="#000000" style="stroke-width: 2px; stroke-linejoin: round; marker-end: url(#markerSich0m9l44);"></path></g><polyline points="159,273 211,273 " fill="none" stroke="#ffffff" style="stroke-opacity: 0; stroke-width: 15px;" class="djs-hit"></polyline></g></g><g class="djs-group" xmlns="http://www.w3.org/2000/svg"><g data-element-id="SequenceFlow_0mn6bjj_label" class="djs-element djs-shape" transform="matrix(1,0,0,1,172,255)" style="display: none;"><rect fill="none" class="djs-outline" x="-6" y="-6" width="102" height="32"></rect><g class="djs-visual"><text class=" djs-label" style="font-family: Arial, sans-serif; font-size: 11px;"><tspan x="45" y="0"></tspan></text></g><rect x="0" y="0" width="90" height="20" fill="none" stroke="#ffffff" style="stroke-opacity: 0; stroke-width: 15px;" class="djs-hit"></rect></g></g><g class="djs-group" xmlns="http://www.w3.org/2000/svg"><g data-element-id="SequenceFlow_0a78ulp" class="djs-element djs-connection" style="display: block;"><rect fill="none" class="djs-outline" x="305" y="267" width="70" height="12"></rect><g class="djs-visual"><path d="m  311,273L369,273 " fill="none" stroke="#000000" style="stroke-width: 2px; stroke-linejoin: round; marker-end: url(#markerSich0m9l44);"></path></g><polyline points="311,273 369,273 " fill="none" stroke="#ffffff" style="stroke-opacity: 0; stroke-width: 15px;" class="djs-hit"></polyline></g></g><g class="djs-group" xmlns="http://www.w3.org/2000/svg"><g data-element-id="SequenceFlow_0a78ulp_label" class="djs-element djs-shape" transform="matrix(1,0,0,1,334,255)" style="display: none;"><rect fill="none" class="djs-outline" x="-6" y="-6" width="102" height="32"></rect><g class="djs-visual"><text class=" djs-label" style="font-family: Arial, sans-serif; font-size: 11px;"><tspan x="45" y="0"></tspan></text></g><rect x="0" y="0" width="90" height="20" fill="none" stroke="#ffffff" style="stroke-opacity: 0; stroke-width: 15px;" class="djs-hit"></rect></g></g><g class="djs-group" xmlns="http://www.w3.org/2000/svg"><g data-element-id="SequenceFlow_0uwvizh" class="djs-element djs-connection" style="display: block;"><rect fill="none" class="djs-outline" x="463" y="267" width="70" height="12"></rect><g class="djs-visual"><path d="m  469,273L527,273 " fill="none" stroke="#000000" style="stroke-width: 2px; stroke-linejoin: round; marker-end: url(#markerSich0m9l44);"></path></g><polyline points="469,273 527,273 " fill="none" stroke="#ffffff" style="stroke-opacity: 0; stroke-width: 15px;" class="djs-hit"></polyline></g></g><g class="djs-group" xmlns="http://www.w3.org/2000/svg"><g data-element-id="SequenceFlow_0uwvizh_label" class="djs-element djs-shape" transform="matrix(1,0,0,1,486,259)" style="display: none;"><rect fill="none" class="djs-outline" x="-6" y="-6" width="102" height="32"></rect><g class="djs-visual"><text class=" djs-label" style="font-family: Arial, sans-serif; font-size: 11px;"><tspan x="45" y="0"></tspan></text></g><rect x="0" y="0" width="90" height="20" fill="none" stroke="#ffffff" style="stroke-opacity: 0; stroke-width: 15px;" class="djs-hit"></rect></g></g><g class="djs-group" xmlns="http://www.w3.org/2000/svg"><g data-element-id="SequenceFlow_0k4wwbi" class="djs-element djs-connection" style="display: block;"><rect fill="none" class="djs-outline" x="571" y="267" width="123" height="12"></rect><g class="djs-visual"><path d="m  577,273L688,273 " fill="none" stroke="#000000" style="stroke-width: 2px; stroke-linejoin: round; marker-end: url(#markerSich0m9l44);"></path></g><polyline points="577,273 688,273 " fill="none" stroke="#ffffff" style="stroke-opacity: 0; stroke-width: 15px;" class="djs-hit"></polyline></g></g><g class="djs-group" xmlns="http://www.w3.org/2000/svg"><g data-element-id="SequenceFlow_0k4wwbi_label" class="djs-element djs-shape" transform="matrix(1,0,0,1,595,247)" style="display: block;"><rect fill="none" class="djs-outline" x="-6" y="-6" width="102" height="32"></rect><g class="djs-visual"><text class=" djs-label" style="font-family: Arial, sans-serif; font-size: 11px;"><tspan x="38" y="12">No</tspan></text></g><rect x="0" y="0" width="90" height="20" fill="none" stroke="#ffffff" style="stroke-opacity: 0; stroke-width: 15px;" class="djs-hit"></rect></g></g><g class="djs-group" xmlns="http://www.w3.org/2000/svg"><g data-element-id="SequenceFlow_03u5mjg" class="djs-element djs-connection" style="display: block;"><rect fill="none" class="djs-outline" x="782" y="267" width="70" height="12"></rect><g class="djs-visual"><path d="m  788,273L846,273 " fill="none" stroke="#000000" style="stroke-width: 2px; stroke-linejoin: round; marker-end: url(#markerSich0m9l44);"></path></g><polyline points="788,273 846,273 " fill="none" stroke="#ffffff" style="stroke-opacity: 0; stroke-width: 15px;" class="djs-hit"></polyline></g></g><g class="djs-group" xmlns="http://www.w3.org/2000/svg"><g data-element-id="SequenceFlow_03u5mjg_label" class="djs-element djs-shape" transform="matrix(1,0,0,1,776,263)" style="display: none;"><rect fill="none" class="djs-outline" x="-6" y="-6" width="102" height="32"></rect><g class="djs-visual"><text class=" djs-label" style="font-family: Arial, sans-serif; font-size: 11px;"><tspan x="45" y="0"></tspan></text></g><rect x="0" y="0" width="90" height="20" fill="none" stroke="#ffffff" style="stroke-opacity: 0; stroke-width: 15px;" class="djs-hit"></rect></g></g><g class="djs-group" xmlns="http://www.w3.org/2000/svg"><g data-element-id="SequenceFlow_1oqm12u" class="djs-element djs-connection" style="display: block;"><rect fill="none" class="djs-outline" x="732" y="307" width="12" height="99"></rect><g class="djs-visual"><path d="m  738,400L738,313 " fill="none" stroke="#000000" style="stroke-width: 2px; stroke-linejoin: round; marker-end: url(#markerSich0m9l44);"></path></g><polyline points="738,400 738,313 " fill="none" stroke="#ffffff" style="stroke-opacity: 0; stroke-width: 15px;" class="djs-hit"></polyline></g></g><g class="djs-group" xmlns="http://www.w3.org/2000/svg"><g data-element-id="SequenceFlow_1oqm12u_label" class="djs-element djs-shape" transform="matrix(1,0,0,1,594,194)" style="display: none;"><rect fill="none" class="djs-outline" x="-6" y="-6" width="102" height="32"></rect><g class="djs-visual"><text class=" djs-label" style="font-family: Arial, sans-serif; font-size: 11px;"><tspan x="45" y="0"></tspan></text></g><rect x="0" y="0" width="90" height="20" fill="none" stroke="#ffffff" style="stroke-opacity: 0; stroke-width: 15px;" class="djs-hit"></rect></g></g><g class="djs-group" xmlns="http://www.w3.org/2000/svg"><g data-element-id="SequenceFlow_1ymirr2" class="djs-element djs-connection" style="display: block;"><rect fill="none" class="djs-outline" x="546" y="154" width="12" height="100"></rect><g class="djs-visual"><path d="m  552,248L552,160 " fill="none" stroke="#000000" style="stroke-width: 2px; stroke-linejoin: round; marker-end: url(#markerSich0m9l44);"></path></g><polyline points="552,248 552,160 " fill="none" stroke="#ffffff" style="stroke-opacity: 0; stroke-width: 15px;" class="djs-hit"></polyline></g></g><g class="djs-group" xmlns="http://www.w3.org/2000/svg"><g data-element-id="SequenceFlow_1ymirr2_label" class="djs-element djs-shape" transform="matrix(1,0,0,1,504,198)" style="display: block;"><rect fill="none" class="djs-outline" x="-6" y="-6" width="102" height="32"></rect><g class="djs-visual"><text class=" djs-label" style="font-family: Arial, sans-serif; font-size: 11px;"><tspan x="35.5" y="12">Yes</tspan></text></g><rect x="0" y="0" width="90" height="20" fill="none" stroke="#ffffff" style="stroke-opacity: 0; stroke-width: 15px;" class="djs-hit"></rect></g></g><g class="djs-group" xmlns="http://www.w3.org/2000/svg"><g data-element-id="SequenceFlow_12tajmq" class="djs-element djs-connection" style="display: block;"><rect fill="none" class="djs-outline" x="596" y="114" width="88" height="12"></rect><g class="djs-visual"><path d="m  602,120L640,120 L640,120 L678,120 " fill="none" stroke="#000000" style="stroke-width: 2px; stroke-linejoin: round; marker-end: url(#markerSich0m9l44);"></path></g><polyline points="602,120 640,120 640,120 678,120 " fill="none" stroke="#ffffff" style="stroke-opacity: 0; stroke-width: 15px;" class="djs-hit"></polyline></g></g><g class="djs-group" xmlns="http://www.w3.org/2000/svg"><g data-element-id="SequenceFlow_12tajmq_label" class="djs-element djs-shape" transform="matrix(1,0,0,1,679,98)" style="display: none;"><rect fill="none" class="djs-outline" x="-6" y="-6" width="102" height="32"></rect><g class="djs-visual"><text class=" djs-label" style="font-family: Arial, sans-serif; font-size: 11px;"><tspan x="45" y="0"></tspan></text></g><rect x="0" y="0" width="90" height="20" fill="none" stroke="#ffffff" style="stroke-opacity: 0; stroke-width: 15px;" class="djs-hit"></rect></g></g><g class="djs-group" xmlns="http://www.w3.org/2000/svg"><g data-element-id="SequenceFlow_0cclb5s" class="djs-element djs-connection" style="display: block;"><rect fill="none" class="djs-outline" x="940" y="257" width="45" height="21"></rect><g class="djs-visual"><path d="m  946,272L946,263 L979,263 " fill="none" stroke="#000000" style="stroke-width: 2px; stroke-linejoin: round; marker-end: url(#markerSich0m9l44);"></path></g><polyline points="946,272 946,263 979,263 " fill="none" stroke="#ffffff" style="stroke-opacity: 0; stroke-width: 15px;" class="djs-hit"></polyline></g></g><g class="djs-group" xmlns="http://www.w3.org/2000/svg"><g data-element-id="SequenceFlow_0cclb5s_label" class="djs-element djs-shape" transform="matrix(1,0,0,1,927,263)" style="display: none;"><rect fill="none" class="djs-outline" x="-6" y="-6" width="102" height="32"></rect><g class="djs-visual"><text class=" djs-label" style="font-family: Arial, sans-serif; font-size: 11px;"><tspan x="45" y="0"></tspan></text></g><rect x="0" y="0" width="90" height="20" fill="none" stroke="#ffffff" style="stroke-opacity: 0; stroke-width: 15px;" class="djs-hit"></rect></g></g><g class="djs-group" xmlns="http://www.w3.org/2000/svg"><g data-element-id="SequenceFlow_1g9vj79" class="djs-element djs-connection" style="display: block;"><rect fill="none" class="djs-outline" x="1023" y="321" width="12" height="109"></rect><g class="djs-visual"><path d="m  1029,327L1029,424 " fill="none" stroke="#000000" style="stroke-width: 2px; stroke-linejoin: round; marker-end: url(#markerSich0m9l44);"></path></g><polyline points="1029,327 1029,424 " fill="none" stroke="#ffffff" style="stroke-opacity: 0; stroke-width: 15px;" class="djs-hit"></polyline></g></g><g class="djs-group" xmlns="http://www.w3.org/2000/svg"><g data-element-id="SequenceFlow_1g9vj79_label" class="djs-element djs-shape" transform="matrix(1,0,0,1,1061,263)" style="display: none;"><rect fill="none" class="djs-outline" x="-6" y="-6" width="102" height="32"></rect><g class="djs-visual"><text class=" djs-label" style="font-family: Arial, sans-serif; font-size: 11px;"><tspan x="45" y="0"></tspan></text></g><rect x="0" y="0" width="90" height="20" fill="none" stroke="#ffffff" style="stroke-opacity: 0; stroke-width: 15px;" class="djs-hit"></rect></g></g><g class="djs-group" xmlns="http://www.w3.org/2000/svg"><g data-element-id="Association_186tn1l" class="djs-element djs-connection" style="display: block;"><rect fill="none" class="djs-outline" x="246" y="307" width="22" height="76"></rect><g class="djs-visual"><polyline points="252,313 262,377 " fill="none" stroke="#000000" style="stroke-width: 2px; stroke-dasharray: 1px, 6px; stroke-linecap: round; stroke-linejoin: round;"></polyline></g><polyline points="252,313 262,377 " fill="none" stroke="#ffffff" style="stroke-opacity: 0; stroke-width: 15px;" class="djs-hit"></polyline></g></g><g class="djs-group" xmlns="http://www.w3.org/2000/svg"><g data-element-id="Association_13i8jpz" class="djs-element djs-connection" style="display: block;"><rect fill="none" class="djs-outline" x="546" y="292" width="30" height="77"></rect><g class="djs-visual"><polyline points="552,298 570,363 " fill="none" stroke="#000000" style="stroke-width: 2px; stroke-dasharray: 1px, 6px; stroke-linecap: round; stroke-linejoin: round;"></polyline></g><polyline points="552,298 570,363 " fill="none" stroke="#ffffff" style="stroke-opacity: 0; stroke-width: 15px;" class="djs-hit"></polyline></g></g><g class="djs-group" xmlns="http://www.w3.org/2000/svg"><g data-element-id="Association_0b4f7yo" class="djs-element djs-connection" style="display: block;"><rect fill="none" class="djs-outline" x="888" y="307" width="13" height="87"></rect><g class="djs-visual"><polyline points="895,313 894,388 " fill="none" stroke="#000000" style="stroke-width: 2px; stroke-dasharray: 1px, 6px; stroke-linecap: round; stroke-linejoin: round;"></polyline></g><polyline points="895,313 894,388 " fill="none" stroke="#ffffff" style="stroke-opacity: 0; stroke-width: 15px;" class="djs-hit"></polyline></g></g><g class="djs-group" xmlns="http://www.w3.org/2000/svg"><g data-element-id="Association_1j27d44" class="djs-element djs-connection" style="display: block;"><rect fill="none" class="djs-outline" x="982" y="133" width="35" height="119"></rect><g class="djs-visual"><polyline points="1011,246 988,139 " fill="none" stroke="#000000" style="stroke-width: 2px; stroke-dasharray: 1px, 6px; stroke-linecap: round; stroke-linejoin: round;"></polyline></g><polyline points="1011,246 988,139 " fill="none" stroke="#ffffff" style="stroke-opacity: 0; stroke-width: 15px;" class="djs-hit"></polyline></g></g><g class="djs-group" xmlns="http://www.w3.org/2000/svg"><g data-element-id="IntermediateCatchEvent_0ok3f01_label" class="djs-element djs-shape selected" transform="matrix(1,0,0,1,693,445)" style="display: block;"><rect fill="none" class="djs-outline" x="-6" y="-6" width="102" height="32"></rect><g class="djs-visual"><text class=" djs-label" style="font-family: Arial, sans-serif; font-size: 11px;"><tspan x="28.5" y="12">Invoke</tspan></text></g><rect x="0" y="0" width="90" height="20" fill="none" stroke="#ffffff" style="stroke-opacity: 0; stroke-width: 15px;" class="djs-hit"></rect></g></g></svg>