<?xml version="1.0" encoding="utf-8"?>
<!-- created with bpmn-js / http://bpmn.io -->
<!DOCTYPE svg PUBLIC "-//W3C//DTD SVG 1.1//EN" "http://www.w3.org/Graphics/SVG/1.1/DTD/svg11.dtd">
<svg xmlns="http://www.w3.org/2000/svg" xmlns:xlink="http://www.w3.org/1999/xlink" width="782" height="385" viewBox="123 49 782 385" version="1.1"><defs><marker viewBox="0 0 20 20" markerWidth="10" markerHeight="10" orient="auto" refX="11" refY="10" id="markerSich8b5s74"><path d="M 1 5 L 11 10 L 1 15 Z" fill="#000000" style="stroke-width: 1px; stroke-linecap: round; stroke-dasharray: 10000px, 1px;"/></marker><marker viewBox="0 0 20 20" markerWidth="20" markerHeight="20" orient="auto" refX="6" refY="6" id="markerSich8b5s76"><circle cx="6" cy="6" r="3.5" style="stroke-width: 1px; stroke-linecap: round; stroke-dasharray: 10000px, 1px;" fill="#ffffff" stroke="#000000"/></marker><marker viewBox="0 0 20 20" markerWidth="20" markerHeight="20" orient="auto" refX="8.5" refY="5" id="markerSich8b5s78"><path d="m 1 5 l 0 -3 l 7 3 l -7 3 z" fill="#ffffff" stroke="#000000" style="stroke-width: 1px; stroke-linecap: butt; stroke-dasharray: 10000px, 1px;"/></marker><marker viewBox="0 0 20 20" markerWidth="10" markerHeight="10" orient="auto" refX="11" refY="10" id="markerSich8b5s7a"><path d="M 1 5 L 11 10 L 1 15" fill="#ffffff" stroke="#000000" style="stroke-width: 1px; stroke-linecap: round; stroke-dasharray: 10000px, 1px;"/></marker><marker viewBox="0 0 20 20" markerWidth="10" markerHeight="10" orient="auto" refX="-1" refY="10" id="markerSich8b5s7c"><path d="M 0 10 L 8 6 L 16 10 L 8 14 Z" fill="#ffffff" stroke="#000000" style="stroke-width: 1px; stroke-linecap: round; stroke-dasharray: 10000px, 1px;"/></marker><marker viewBox="0 0 20 20" markerWidth="10" markerHeight="10" orient="auto" refX="-5" refY="10" id="markerSich8b5s7e"><path d="M 1 4 L 5 16" fill="#000000" stroke="#000000" style="stroke-width: 1px; stroke-linecap: round; stroke-dasharray: 10000px, 1px;"/></marker></defs><g class="djs-group" xmlns="http://www.w3.org/2000/svg"><g data-element-id="Participant_1b1woab" class="djs-element djs-shape hover" transform="matrix(1,0,0,1,129,55)" style="display: block;"><rect fill="none" class="djs-outline" x="-6" y="-6" width="782" height="385"></rect><g class="djs-visual"><rect x="0" y="0" width="770" height="373" rx="0" ry="0" stroke="#000000" style="stroke-width: 2px;" fill="#ffffff"></rect><polyline points="30,0 30,373 " fill="none" stroke="#000000" style="stroke-width: 2px;"></polyline><text class=" djs-label" transform="matrix(0,-1,1,0,0,373)" style="font-family: Arial, sans-serif; font-size: 12px;"><tspan x="171.5" y="18.5">Pizza</tspan></text></g><rect x="0" y="0" width="770" height="373" fill="none" stroke="#ffffff" style="stroke-opacity: 0; stroke-width: 15px;" class="djs-hit"></rect></g><g class="djs-children"><g class="djs-group"><g data-element-id="StartEvent_1" transform="matrix(1,0,0,1,181,203)" class="djs-element djs-shape" style="display: block;"><rect fill="none" class="djs-outline" x="-6" y="-6" width="48" height="48"></rect><g class="djs-visual"><circle cx="18" cy="18" r="18" stroke="#000000" fill="#ffffff" style="stroke-width: 2px;"></circle></g><rect x="0" y="0" width="36" height="36" fill="none" stroke="#ffffff" style="stroke-opacity: 0; stroke-width: 15px;" class="djs-hit"></rect></g></g><g class="djs-group"><g data-element-id="StartEvent_1_label" class="djs-element djs-shape" transform="matrix(1,0,0,1,154,239)" style="display: block;"><rect fill="none" class="djs-outline" x="-6" y="-6" width="102" height="32"></rect><g class="djs-visual"><text class=" djs-label" style="font-family: Arial, sans-serif; font-size: 11px;"><tspan x="12.5" y="12">Pizza wanted</tspan></text></g><rect x="0" y="0" width="90" height="20" fill="none" stroke="#ffffff" style="stroke-opacity: 0; stroke-width: 15px;" class="djs-hit"></rect></g></g><g class="djs-group"><g data-element-id="EventBasedGateway_035xwj6" transform="matrix(1,0,0,1,436,90)" class="djs-element djs-shape" style="display: block;"><rect fill="none" class="djs-outline" x="-6" y="-6" width="62" height="62"></rect><g class="djs-visual"><polygon points="25,0,50,25,25,50,0,25" stroke="#000000" fill="#ffffff" style="stroke-width: 2px;"></polygon><circle cx="25" cy="25" r="15" stroke="#000000" fill="none" style="stroke-width: 1px;"></circle><circle cx="25" cy="25" r="12" stroke="#000000" fill="none" style="stroke-width: 1px;"></circle><path d="m 18,22 7.363636363636364,-4.909090909090909 7.363636363636364,4.909090909090909 -2.4545454545454546,9.818181818181818 -9.818181818181818,0 z" fill="none" stroke="#000000" style="stroke-width: 2px;"></path></g><rect x="0" y="0" width="50" height="50" fill="none" stroke="#ffffff" style="stroke-opacity: 0; stroke-width: 15px;" class="djs-hit"></rect></g></g><g class="djs-group"><g data-element-id="EventBasedGateway_035xwj6_label" class="djs-element djs-shape" transform="matrix(1,0,0,1,416,140)" style="display: none;"><rect fill="none" class="djs-outline" x="-6" y="-6" width="102" height="32"></rect><g class="djs-visual"><text class=" djs-label" style="font-family: Arial, sans-serif; font-size: 11px;"><tspan x="45" y="0"></tspan></text></g><rect x="0" y="0" width="90" height="20" fill="none" stroke="#ffffff" style="stroke-opacity: 0; stroke-width: 15px;" class="djs-hit"></rect></g></g><g class="djs-group"><g data-element-id="IntermediateCatchEvent_1wyy9ax" transform="matrix(1,0,0,1,526,97)" class="djs-element djs-shape" style="display: block;"><rect fill="none" class="djs-outline" x="-6" y="-6" width="48" height="48"></rect><g class="djs-visual"><circle cx="18" cy="18" r="18" stroke="#000000" fill="#ffffff" style="stroke-width: 1px;"></circle><circle cx="18" cy="18" r="15" stroke="#000000" fill="none" style="stroke-width: 1px;"></circle><path d="m 8.459999999999999,11.34 l 0,12.6 l 18.900000000000002,0 l 0,-12.6 z l 9.450000000000001,5.4 l 9.450000000000001,-5.4" fill="#ffffff" stroke="#000000" style="stroke-width: 1px;"></path></g><rect x="0" y="0" width="36" height="36" fill="none" stroke="#ffffff" style="stroke-opacity: 0; stroke-width: 15px;" class="djs-hit"></rect></g></g><g class="djs-group"><g data-element-id="IntermediateCatchEvent_1wyy9ax_label" class="djs-element djs-shape" transform="matrix(1,0,0,1,499,76)" style="display: block;"><rect fill="none" class="djs-outline" x="-6" y="-6" width="102" height="32"></rect><g class="djs-visual"><text class=" djs-label" style="font-family: Arial, sans-serif; font-size: 11px;"><tspan x="9" y="12">Pizza received</tspan></text></g><rect x="0" y="0" width="90" height="20" fill="none" stroke="#ffffff" style="stroke-opacity: 0; stroke-width: 15px;" class="djs-hit"></rect></g></g><g class="djs-group"><g data-element-id="IntermediateCatchEvent_1m0te3o" transform="matrix(1,0,0,1,526,203)" class="djs-element djs-shape" style="display: block;"><rect fill="none" class="djs-outline" x="-6" y="-6" width="48" height="48"></rect><g class="djs-visual"><circle cx="18" cy="18" r="18" stroke="#000000" fill="#ffffff" style="stroke-width: 1px;"></circle><circle cx="18" cy="18" r="15" stroke="#000000" fill="none" style="stroke-width: 1px;"></circle><circle cx="18" cy="18" r="11" stroke="#000000" fill="#ffffff" style="stroke-width: 2px;"></circle><path d="M 18,18 l 2.25,-7.5 m -2.25,7.5 l 5.25,1.5 " fill="none" stroke="#000000" style="stroke-width: 2px; stroke-linecap: square;"></path><path d="M 18,18 m 0,7.5 l -0,2.25 " fill="none" stroke="#000000" transform="matrix(1,0,0,1,0,0)" style="stroke-width: 1px; stroke-linecap: square;"></path><path d="M 18,18 m 0,7.5 l -0,2.25 " fill="none" stroke="#000000" transform="matrix(0.866,0.5,-0.5,0.866,11.4115,-6.5885)" style="stroke-width: 1px; stroke-linecap: square;"></path><path d="M 18,18 m 0,7.5 l -0,2.25 " fill="none" stroke="#000000" transform="matrix(0.5,0.866,-0.866,0.5,24.5885,-6.5885)" style="stroke-width: 1px; stroke-linecap: square;"></path><path d="M 18,18 m 0,7.5 l -0,2.25 " fill="none" stroke="#000000" transform="matrix(0,1,-1,0,36,0)" style="stroke-width: 1px; stroke-linecap: square;"></path><path d="M 18,18 m 0,7.5 l -0,2.25 " fill="none" stroke="#000000" transform="matrix(-0.5,0.866,-0.866,-0.5,42.5885,11.4115)" style="stroke-width: 1px; stroke-linecap: square;"></path><path d="M 18,18 m 0,7.5 l -0,2.25 " fill="none" stroke="#000000" transform="matrix(-0.866,0.5,-0.5,-0.866,42.5885,24.5885)" style="stroke-width: 1px; stroke-linecap: square;"></path><path d="M 18,18 m 0,7.5 l -0,2.25 " fill="none" stroke="#000000" transform="matrix(-1,0,0,-1,36,36)" style="stroke-width: 1px; stroke-linecap: square;"></path><path d="M 18,18 m 0,7.5 l -0,2.25 " fill="none" stroke="#000000" transform="matrix(-0.866,-0.5,0.5,-0.866,24.5885,42.5885)" style="stroke-width: 1px; stroke-linecap: square;"></path><path d="M 18,18 m 0,7.5 l -0,2.25 " fill="none" stroke="#000000" transform="matrix(-0.5,-0.866,0.866,-0.5,11.4115,42.5885)" style="stroke-width: 1px; stroke-linecap: square;"></path><path d="M 18,18 m 0,7.5 l -0,2.25 " fill="none" stroke="#000000" transform="matrix(0,-1,1,0,0,36)" style="stroke-width: 1px; stroke-linecap: square;"></path><path d="M 18,18 m 0,7.5 l -0,2.25 " fill="none" stroke="#000000" transform="matrix(0.5,-0.866,0.866,0.5,-6.5885,24.5885)" style="stroke-width: 1px; stroke-linecap: square;"></path><path d="M 18,18 m 0,7.5 l -0,2.25 " fill="none" stroke="#000000" transform="matrix(0.866,-0.5,0.5,0.866,-6.5885,11.4115)" style="stroke-width: 1px; stroke-linecap: square;"></path></g><rect x="0" y="0" width="36" height="36" fill="none" stroke="#ffffff" style="stroke-opacity: 0; stroke-width: 15px;" class="djs-hit"></rect></g></g><g class="djs-group"><g data-element-id="IntermediateCatchEvent_1m0te3o_label" class="djs-element djs-shape" transform="matrix(1,0,0,1,499,239)" style="display: block;"><rect fill="none" class="djs-outline" x="-6" y="-6" width="102" height="32"></rect><g class="djs-visual"><text class=" djs-label" style="font-family: Arial, sans-serif; font-size: 11px;"><tspan x="23.5" y="12">time\'s up</tspan></text></g><rect x="0" y="0" width="90" height="20" fill="none" stroke="#ffffff" style="stroke-opacity: 0; stroke-width: 15px;" class="djs-hit"></rect></g></g><g class="djs-group"><g data-element-id="ExclusiveGateway_1ekj4sq" transform="matrix(1,0,0,1,593,196)" class="djs-element djs-shape" style="display: block;"><rect fill="none" class="djs-outline" x="-6" y="-6" width="62" height="62"></rect><g class="djs-visual"><polygon points="25,0,50,25,25,50,0,25" stroke="#000000" fill="#ffffff" style="stroke-width: 2px;"></polygon><path d="m 16,15 7.42857142857143,9.714285714285715 -7.42857142857143,9.714285714285715 3.428571428571429,0 5.714285714285715,-7.464228571428572 5.714285714285715,7.464228571428572 3.428571428571429,0 -7.42857142857143,-9.714285714285715 7.42857142857143,-9.714285714285715 -3.428571428571429,0 -5.714285714285715,7.464228571428572 -5.714285714285715,-7.464228571428572 -3.428571428571429,0 z" fill="#000000" stroke="#000000" style="stroke-width: 1px;"></path></g><rect x="0" y="0" width="50" height="50" fill="none" stroke="#ffffff" style="stroke-opacity: 0; stroke-width: 15px;" class="djs-hit"></rect></g></g><g class="djs-group"><g data-element-id="ExclusiveGateway_1ekj4sq_label" class="djs-element djs-shape" transform="matrix(1,0,0,1,573,158)" style="display: block;"><rect fill="none" class="djs-outline" x="-6" y="-6" width="102" height="32"></rect><g class="djs-visual"><text class=" djs-label" style="font-family: Arial, sans-serif; font-size: 11px;"><tspan x="27" y="12">already </tspan><tspan x="14.5" y="24">complained? </tspan></text></g><rect x="0" y="0" width="90" height="20" fill="none" stroke="#ffffff" style="stroke-opacity: 0; stroke-width: 15px;" class="djs-hit"></rect></g></g><g class="djs-group"><g data-element-id="EndEvent_1fldsvh" transform="matrix(1,0,0,1,819,97)" class="djs-element djs-shape" style="display: block;"><rect fill="none" class="djs-outline" x="-6" y="-6" width="48" height="48"></rect><g class="djs-visual"><circle cx="18" cy="18" r="18" stroke="#000000" fill="#ffffff" style="stroke-width: 4px;"></circle></g><rect x="0" y="0" width="36" height="36" fill="none" stroke="#ffffff" style="stroke-opacity: 0; stroke-width: 15px;" class="djs-hit"></rect></g></g><g class="djs-group"><g data-element-id="EndEvent_1fldsvh_label" class="djs-element djs-shape" transform="matrix(1,0,0,1,792,133)" style="display: block;"><rect fill="none" class="djs-outline" x="-6" y="-6" width="102" height="32"></rect><g class="djs-visual"><text class=" djs-label" style="font-family: Arial, sans-serif; font-size: 11px;"><tspan x="16.5" y="12">Pizza eaten</tspan></text></g><rect x="0" y="0" width="90" height="20" fill="none" stroke="#ffffff" style="stroke-opacity: 0; stroke-width: 15px;" class="djs-hit"></rect></g></g><g class="djs-group"><g data-element-id="EndEvent_1svj9y6" transform="matrix(1,0,0,1,819,203)" class="djs-element djs-shape" style="display: block;"><rect fill="none" class="djs-outline" x="-6" y="-6" width="48" height="48"></rect><g class="djs-visual"><circle cx="18" cy="18" r="18" stroke="#000000" fill="#ffffff" style="stroke-width: 4px;"></circle></g><rect x="0" y="0" width="36" height="36" fill="none" stroke="#ffffff" style="stroke-opacity: 0; stroke-width: 15px;" class="djs-hit"></rect></g></g><g class="djs-group"><g data-element-id="EndEvent_1svj9y6_label" class="djs-element djs-shape" transform="matrix(1,0,0,1,792,239)" style="display: block;"><rect fill="none" class="djs-outline" x="-6" y="-6" width="102" height="32"></rect><g class="djs-visual"><text class=" djs-label" style="font-family: Arial, sans-serif; font-size: 11px;"><tspan x="6" y="12">Order cancelled</tspan></text></g><rect x="0" y="0" width="90" height="20" fill="none" stroke="#ffffff" style="stroke-opacity: 0; stroke-width: 15px;" class="djs-hit"></rect></g></g><g class="djs-group"><g data-element-id="UserTask_1vpwzij" class="djs-element djs-shape" transform="matrix(1,0,0,1,687,75)" style="display: block;"><rect fill="none" class="djs-outline" x="-6" y="-6" width="112" height="92"></rect><g class="djs-visual"><rect x="0" y="0" width="100" height="80" rx="10" ry="10" stroke="#000000" fill="#ffffff" style="stroke-width: 2px;"></rect><text class=" djs-label" style="font-family: Arial, sans-serif; font-size: 12px;"><tspan x="24.5" y="43.5">Eat Pizza</tspan></text><path d="m 15,12 c 0.909,-0.845 1.594,-2.049 1.594,-3.385 0,-2.554 -1.805,-4.62199999 -4.357,-4.62199999 -2.55199998,0 -4.28799998,2.06799999 -4.28799998,4.62199999 0,1.348 0.974,2.562 1.89599998,3.405 -0.52899998,0.187 -5.669,2.097 -5.794,4.7560005 v 6.718 h 17 v -6.718 c 0,-2.2980005 -5.5279996,-4.5950005 -6.0509996,-4.7760005 zm -8,6 l 0,5.5 m 11,0 l 0,-5" fill="none" stroke="#000000" style="stroke-width: 0.5px;"></path><path d="m 15,12 m 2.162,1.009 c 0,2.4470005 -2.158,4.4310005 -4.821,4.4310005 -2.66499998,0 -4.822,-1.981 -4.822,-4.4310005 " fill="none" stroke="#000000" style="stroke-width: 0.5px;"></path><path d="m 15,12 m -6.9,-3.80 c 0,0 2.25099998,-2.358 4.27399998,-1.177 2.024,1.181 4.221,1.537 4.124,0.965 -0.098,-0.57 -0.117,-3.79099999 -4.191,-4.13599999 -3.57499998,0.001 -4.20799998,3.36699999 -4.20699998,4.34799999 z" fill="#000000" stroke="#000000" style="stroke-width: 0.5px;"></path></g><rect x="0" y="0" width="100" height="80" fill="none" stroke="#ffffff" style="stroke-opacity: 0; stroke-width: 15px;" class="djs-hit"></rect></g></g><g class="djs-group"><g data-element-id="UserTask_0tbkcy7" class="djs-element djs-shape" transform="matrix(1,0,0,1,687,181)" style="display: block;"><rect fill="none" class="djs-outline" x="-6" y="-6" width="112" height="92"></rect><g class="djs-visual"><rect x="0" y="0" width="100" height="80" rx="10" ry="10" stroke="#000000" fill="#ffffff" style="stroke-width: 2px;"></rect><text class=" djs-label" style="font-family: Arial, sans-serif; font-size: 12px;"><tspan x="13.5" y="43.5">Cancel Order</tspan></text><path d="m 15,12 c 0.909,-0.845 1.594,-2.049 1.594,-3.385 0,-2.554 -1.805,-4.62199999 -4.357,-4.62199999 -2.55199998,0 -4.28799998,2.06799999 -4.28799998,4.62199999 0,1.348 0.974,2.562 1.89599998,3.405 -0.52899998,0.187 -5.669,2.097 -5.794,4.7560005 v 6.718 h 17 v -6.718 c 0,-2.2980005 -5.5279996,-4.5950005 -6.0509996,-4.7760005 zm -8,6 l 0,5.5 m 11,0 l 0,-5" fill="none" stroke="#000000" style="stroke-width: 0.5px;"></path><path d="m 15,12 m 2.162,1.009 c 0,2.4470005 -2.158,4.4310005 -4.821,4.4310005 -2.66499998,0 -4.822,-1.981 -4.822,-4.4310005 " fill="none" stroke="#000000" style="stroke-width: 0.5px;"></path><path d="m 15,12 m -6.9,-3.80 c 0,0 2.25099998,-2.358 4.27399998,-1.177 2.024,1.181 4.221,1.537 4.124,0.965 -0.098,-0.57 -0.117,-3.79099999 -4.191,-4.13599999 -3.57499998,0.001 -4.20799998,3.36699999 -4.20699998,4.34799999 z" fill="#000000" stroke="#000000" style="stroke-width: 0.5px;"></path></g><rect x="0" y="0" width="100" height="80" fill="none" stroke="#ffffff" style="stroke-opacity: 0; stroke-width: 15px;" class="djs-hit"></rect></g></g><g class="djs-group"><g data-element-id="UserTask_0cjk8va" class="djs-element djs-shape" transform="matrix(1,0,0,1,687,319)" style="display: block;"><rect fill="none" class="djs-outline" x="-6" y="-6" width="112" height="92"></rect><g class="djs-visual"><rect x="0" y="0" width="100" height="80" rx="10" ry="10" stroke="#000000" fill="#ffffff" style="stroke-width: 2px;"></rect><text class=" djs-label" style="font-family: Arial, sans-serif; font-size: 12px;"><tspan x="23.5" y="43.5">Complain</tspan></text><path d="m 15,12 c 0.909,-0.845 1.594,-2.049 1.594,-3.385 0,-2.554 -1.805,-4.62199999 -4.357,-4.62199999 -2.55199998,0 -4.28799998,2.06799999 -4.28799998,4.62199999 0,1.348 0.974,2.562 1.89599998,3.405 -0.52899998,0.187 -5.669,2.097 -5.794,4.7560005 v 6.718 h 17 v -6.718 c 0,-2.2980005 -5.5279996,-4.5950005 -6.0509996,-4.7760005 zm -8,6 l 0,5.5 m 11,0 l 0,-5" fill="none" stroke="#000000" style="stroke-width: 0.5px;"></path><path d="m 15,12 m 2.162,1.009 c 0,2.4470005 -2.158,4.4310005 -4.821,4.4310005 -2.66499998,0 -4.822,-1.981 -4.822,-4.4310005 " fill="none" stroke="#000000" style="stroke-width: 0.5px;"></path><path d="m 15,12 m -6.9,-3.80 c 0,0 2.25099998,-2.358 4.27399998,-1.177 2.024,1.181 4.221,1.537 4.124,0.965 -0.098,-0.57 -0.117,-3.79099999 -4.191,-4.13599999 -3.57499998,0.001 -4.20799998,3.36699999 -4.20699998,4.34799999 z" fill="#000000" stroke="#000000" style="stroke-width: 0.5px;"></path></g><rect x="0" y="0" width="100" height="80" fill="none" stroke="#ffffff" style="stroke-opacity: 0; stroke-width: 15px;" class="djs-hit"></rect></g></g><g class="djs-group"><g data-element-id="UserTask_1mku3j2" class="djs-element djs-shape" transform="matrix(1,0,0,1,273,181)" style="display: block;"><rect fill="none" class="djs-outline" x="-6" y="-6" width="112" height="92"></rect><g class="djs-visual"><rect x="0" y="0" width="100" height="80" rx="10" ry="10" stroke="#000000" fill="#ffffff" style="stroke-width: 2px;"></rect><text class=" djs-label" style="font-family: Arial, sans-serif; font-size: 12px;"><tspan x="18" y="43.5">Order Pizza</tspan></text><path d="m 15,12 c 0.909,-0.845 1.594,-2.049 1.594,-3.385 0,-2.554 -1.805,-4.62199999 -4.357,-4.62199999 -2.55199998,0 -4.28799998,2.06799999 -4.28799998,4.62199999 0,1.348 0.974,2.562 1.89599998,3.405 -0.52899998,0.187 -5.669,2.097 -5.794,4.7560005 v 6.718 h 17 v -6.718 c 0,-2.2980005 -5.5279996,-4.5950005 -6.0509996,-4.7760005 zm -8,6 l 0,5.5 m 11,0 l 0,-5" fill="none" stroke="#000000" style="stroke-width: 0.5px;"></path><path d="m 15,12 m 2.162,1.009 c 0,2.4470005 -2.158,4.4310005 -4.821,4.4310005 -2.66499998,0 -4.822,-1.981 -4.822,-4.4310005 " fill="none" stroke="#000000" style="stroke-width: 0.5px;"></path><path d="m 15,12 m -6.9,-3.80 c 0,0 2.25099998,-2.358 4.27399998,-1.177 2.024,1.181 4.221,1.537 4.124,0.965 -0.098,-0.57 -0.117,-3.79099999 -4.191,-4.13599999 -3.57499998,0.001 -4.20799998,3.36699999 -4.20699998,4.34799999 z" fill="#000000" stroke="#000000" style="stroke-width: 0.5px;"></path></g><rect x="0" y="0" width="100" height="80" fill="none" stroke="#ffffff" style="stroke-opacity: 0; stroke-width: 15px;" class="djs-hit"></rect></g></g><g class="djs-group"><g data-element-id="SequenceFlow_1rp9col" class="djs-element djs-connection" style="display: block;"><rect fill="none" class="djs-outline" x="211" y="215" width="68" height="12"></rect><g class="djs-visual"><path d="m  217,221L244,221 L244,221 L273,221 " fill="none" stroke="#000000" style="stroke-width: 2px; stroke-linejoin: round; marker-end: url(#markerSich8b5s74);"></path></g><polyline points="217,221 244,221 244,221 273,221 " fill="none" stroke="#ffffff" style="stroke-opacity: 0; stroke-width: 15px;" class="djs-hit"></polyline></g></g><g class="djs-group"><g data-element-id="SequenceFlow_1rp9col_label" class="djs-element djs-shape" transform="matrix(1,0,0,1,213,105)" style="display: none;"><rect fill="none" class="djs-outline" x="-6" y="-6" width="102" height="32"></rect><g class="djs-visual"><text class=" djs-label" style="font-family: Arial, sans-serif; font-size: 11px;"><tspan x="45" y="0"></tspan></text></g><rect x="0" y="0" width="90" height="20" fill="none" stroke="#ffffff" style="stroke-opacity: 0; stroke-width: 15px;" class="djs-hit"></rect></g></g><g class="djs-group"><g data-element-id="SequenceFlow_077e2jf" class="djs-element djs-connection" style="display: block;"><rect fill="none" class="djs-outline" x="317" y="109" width="125" height="76"></rect><g class="djs-visual"><path d="m  323,179L323,115 L436,115 " fill="none" stroke="#000000" style="stroke-width: 2px; stroke-linejoin: round; marker-end: url(#markerSich8b5s74);"></path></g><polyline points="323,179 323,115 436,115 " fill="none" stroke="#ffffff" style="stroke-opacity: 0; stroke-width: 15px;" class="djs-hit"></polyline></g></g><g class="djs-group"><g data-element-id="SequenceFlow_077e2jf_label" class="djs-element djs-shape" transform="matrix(1,0,0,1,373,105)" style="display: none;"><rect fill="none" class="djs-outline" x="-6" y="-6" width="102" height="32"></rect><g class="djs-visual"><text class=" djs-label" style="font-family: Arial, sans-serif; font-size: 11px;"><tspan x="45" y="0"></tspan></text></g><rect x="0" y="0" width="90" height="20" fill="none" stroke="#ffffff" style="stroke-opacity: 0; stroke-width: 15px;" class="djs-hit"></rect></g></g><g class="djs-group"><g data-element-id="SequenceFlow_14e3rv5" class="djs-element djs-connection" style="display: block;"><rect fill="none" class="djs-outline" x="427" y="125" width="264" height="263"></rect><g class="djs-visual"><path d="m  685,382L433,382 L433,161 L452,131 " fill="none" stroke="#000000" style="stroke-width: 2px; stroke-linejoin: round; marker-end: url(#markerSich8b5s74);"></path></g><polyline points="685,382 433,382 433,161 452,131 " fill="none" stroke="#ffffff" style="stroke-opacity: 0; stroke-width: 15px;" class="djs-hit"></polyline></g></g><g class="djs-group"><g data-element-id="SequenceFlow_14e3rv5_label" class="djs-element djs-shape" transform="matrix(1,0,0,1,542,227)" style="display: none;"><rect fill="none" class="djs-outline" x="-6" y="-6" width="102" height="32"></rect><g class="djs-visual"><text class=" djs-label" style="font-family: Arial, sans-serif; font-size: 11px;"><tspan x="45" y="0"></tspan></text></g><rect x="0" y="0" width="90" height="20" fill="none" stroke="#ffffff" style="stroke-opacity: 0; stroke-width: 15px;" class="djs-hit"></rect></g></g><g class="djs-group"><g data-element-id="SequenceFlow_1die2vb" class="djs-element djs-connection" style="display: block;"><rect fill="none" class="djs-outline" x="480" y="109" width="52" height="12"></rect><g class="djs-visual"><path d="m  486,115L526,115 " fill="none" stroke="#000000" style="stroke-width: 2px; stroke-linejoin: round; marker-end: url(#markerSich8b5s74);"></path></g><polyline points="486,115 526,115 " fill="none" stroke="#ffffff" style="stroke-opacity: 0; stroke-width: 15px;" class="djs-hit"></polyline></g></g><g class="djs-group"><g data-element-id="SequenceFlow_1die2vb_label" class="djs-element djs-shape" transform="matrix(1,0,0,1,461,105)" style="display: none;"><rect fill="none" class="djs-outline" x="-6" y="-6" width="102" height="32"></rect><g class="djs-visual"><text class=" djs-label" style="font-family: Arial, sans-serif; font-size: 11px;"><tspan x="45" y="0"></tspan></text></g><rect x="0" y="0" width="90" height="20" fill="none" stroke="#ffffff" style="stroke-opacity: 0; stroke-width: 15px;" class="djs-hit"></rect></g></g><g class="djs-group"><g data-element-id="SequenceFlow_0fzcmgz" class="djs-element djs-connection" style="display: block;"><rect fill="none" class="djs-outline" x="455" y="134" width="77" height="93"></rect><g class="djs-visual"><path d="m  461,140L461,221 L526,221 " fill="none" stroke="#000000" style="stroke-width: 2px; stroke-linejoin: round; marker-end: url(#markerSich8b5s74);"></path></g><polyline points="461,140 461,221 526,221 " fill="none" stroke="#ffffff" style="stroke-opacity: 0; stroke-width: 15px;" class="djs-hit"></polyline></g></g><g class="djs-group"><g data-element-id="SequenceFlow_0fzcmgz_label" class="djs-element djs-shape" transform="matrix(1,0,0,1,445,163)" style="display: none;"><rect fill="none" class="djs-outline" x="-6" y="-6" width="102" height="32"></rect><g class="djs-visual"><text class=" djs-label" style="font-family: Arial, sans-serif; font-size: 11px;"><tspan x="45" y="0"></tspan></text></g><rect x="0" y="0" width="90" height="20" fill="none" stroke="#ffffff" style="stroke-opacity: 0; stroke-width: 15px;" class="djs-hit"></rect></g></g><g class="djs-group"><g data-element-id="SequenceFlow_1jnaduk" class="djs-element djs-connection" style="display: block;"><rect fill="none" class="djs-outline" x="556" y="109" width="137" height="12"></rect><g class="djs-visual"><path d="m  562,115L687,115 " fill="none" stroke="#000000" style="stroke-width: 2px; stroke-linejoin: round; marker-end: url(#markerSich8b5s74);"></path></g><polyline points="562,115 687,115 " fill="none" stroke="#ffffff" style="stroke-opacity: 0; stroke-width: 15px;" class="djs-hit"></polyline></g></g><g class="djs-group"><g data-element-id="SequenceFlow_1jnaduk_label" class="djs-element djs-shape" transform="matrix(1,0,0,1,571,105)" style="display: none;"><rect fill="none" class="djs-outline" x="-6" y="-6" width="102" height="32"></rect><g class="djs-visual"><text class=" djs-label" style="font-family: Arial, sans-serif; font-size: 11px;"><tspan x="45" y="0"></tspan></text></g><rect x="0" y="0" width="90" height="20" fill="none" stroke="#ffffff" style="stroke-opacity: 0; stroke-width: 15px;" class="djs-hit"></rect></g></g><g class="djs-group"><g data-element-id="SequenceFlow_1s6v9k9" class="djs-element djs-connection" style="display: block;"><rect fill="none" class="djs-outline" x="556" y="215" width="43" height="12"></rect><g class="djs-visual"><path d="m  562,221L593,221 " fill="none" stroke="#000000" style="stroke-width: 2px; stroke-linejoin: round; marker-end: url(#markerSich8b5s74);"></path></g><polyline points="562,221 593,221 " fill="none" stroke="#ffffff" style="stroke-opacity: 0; stroke-width: 15px;" class="djs-hit"></polyline></g></g><g class="djs-group"><g data-element-id="SequenceFlow_1s6v9k9_label" class="djs-element djs-shape" transform="matrix(1,0,0,1,533,211)" style="display: none;"><rect fill="none" class="djs-outline" x="-6" y="-6" width="102" height="32"></rect><g class="djs-visual"><text class=" djs-label" style="font-family: Arial, sans-serif; font-size: 11px;"><tspan x="45" y="0"></tspan></text></g><rect x="0" y="0" width="90" height="20" fill="none" stroke="#ffffff" style="stroke-opacity: 0; stroke-width: 15px;" class="djs-hit"></rect></g></g><g class="djs-group"><g data-element-id="SequenceFlow_0rig2ag" class="djs-element djs-connection" style="display: block;"><rect fill="none" class="djs-outline" x="637" y="215" width="56" height="12"></rect><g class="djs-visual"><path d="m  643,221L687,221 " fill="none" stroke="#000000" style="stroke-width: 2px; stroke-linejoin: round; marker-end: url(#markerSich8b5s74);"></path></g><polyline points="643,221 687,221 " fill="none" stroke="#ffffff" style="stroke-opacity: 0; stroke-width: 15px;" class="djs-hit"></polyline></g></g><g class="djs-group"><g data-element-id="SequenceFlow_0rig2ag_label" class="djs-element djs-shape" transform="matrix(1,0,0,1,616,201)" style="display: block;"><rect fill="none" class="djs-outline" x="-6" y="-6" width="102" height="32"></rect><g class="djs-visual"><text class=" djs-label" style="font-family: Arial, sans-serif; font-size: 11px;"><tspan x="35.5" y="12">Yes</tspan></text></g><rect x="0" y="0" width="90" height="20" fill="none" stroke="#ffffff" style="stroke-opacity: 0; stroke-width: 15px;" class="djs-hit"></rect></g></g><g class="djs-group"><g data-element-id="SequenceFlow_1gqmvfg" class="djs-element djs-connection" style="display: block;"><rect fill="none" class="djs-outline" x="612" y="240" width="78" height="112"></rect><g class="djs-visual"><path d="m  618,246L618,346 L684,346 " fill="none" stroke="#000000" style="stroke-width: 2px; stroke-linejoin: round; marker-end: url(#markerSich8b5s74);"></path></g><polyline points="618,246 618,346 684,346 " fill="none" stroke="#ffffff" style="stroke-opacity: 0; stroke-width: 15px;" class="djs-hit"></polyline></g></g><g class="djs-group"><g data-element-id="SequenceFlow_1gqmvfg_label" class="djs-element djs-shape" transform="matrix(1,0,0,1,613,323)" style="display: block;"><rect fill="none" class="djs-outline" x="-6" y="-6" width="102" height="32"></rect><g class="djs-visual"><text class=" djs-label" style="font-family: Arial, sans-serif; font-size: 11px;"><tspan x="38" y="12">No</tspan></text></g><rect x="0" y="0" width="90" height="20" fill="none" stroke="#ffffff" style="stroke-opacity: 0; stroke-width: 15px;" class="djs-hit"></rect></g></g><g class="djs-group"><g data-element-id="SequenceFlow_1ub8yqx" class="djs-element djs-connection" style="display: block;"><rect fill="none" class="djs-outline" x="781" y="109" width="44" height="12"></rect><g class="djs-visual"><path d="m  787,115L819,115 " fill="none" stroke="#000000" style="stroke-width: 2px; stroke-linejoin: round; marker-end: url(#markerSich8b5s74);"></path></g><polyline points="787,115 819,115 " fill="none" stroke="#ffffff" style="stroke-opacity: 0; stroke-width: 15px;" class="djs-hit"></polyline></g></g><g class="djs-group"><g data-element-id="SequenceFlow_1ub8yqx_label" class="djs-element djs-shape" transform="matrix(1,0,0,1,751,89)" style="display: none;"><rect fill="none" class="djs-outline" x="-6" y="-6" width="102" height="32"></rect><g class="djs-visual"><text class=" djs-label" style="font-family: Arial, sans-serif; font-size: 11px;"><tspan x="45" y="0"></tspan></text></g><rect x="0" y="0" width="90" height="20" fill="none" stroke="#ffffff" style="stroke-opacity: 0; stroke-width: 15px;" class="djs-hit"></rect></g></g><g class="djs-group"><g data-element-id="SequenceFlow_02s7u49" class="djs-element djs-connection" style="display: block;"><rect fill="none" class="djs-outline" x="781" y="215" width="44" height="12"></rect><g class="djs-visual"><path d="m  787,221L819,221 " fill="none" stroke="#000000" style="stroke-width: 2px; stroke-linejoin: round; marker-end: url(#markerSich8b5s74);"></path></g><polyline points="787,221 819,221 " fill="none" stroke="#ffffff" style="stroke-opacity: 0; stroke-width: 15px;" class="djs-hit"></polyline></g></g><g class="djs-group"><g data-element-id="SequenceFlow_02s7u49_label" class="djs-element djs-shape" transform="matrix(1,0,0,1,758,211)" style="display: none;"><rect fill="none" class="djs-outline" x="-6" y="-6" width="102" height="32"></rect><g class="djs-visual"><text class=" djs-label" style="font-family: Arial, sans-serif; font-size: 11px;"><tspan x="45" y="0"></tspan></text></g><rect x="0" y="0" width="90" height="20" fill="none" stroke="#ffffff" style="stroke-opacity: 0; stroke-width: 15px;" class="djs-hit"></rect></g></g></g></g></svg>